<?xml version="1.0" encoding="UTF-8" standalone="no"?>
<!DOCTYPE svg PUBLIC "-//W3C//DTD SVG 1.1//EN"
 "http://www.w3.org/Graphics/SVG/1.1/DTD/svg11.dtd">
<!-- Generated by graphviz version 10.0.1 (20240210.2158)
 -->
<!-- Title: include/Application.hpp Pages: 1 -->
<!--zoomable 364 -->

<svg id="main" version="1.1" xmlns="http://www.w3.org/2000/svg" xmlns:xlink="http://www.w3.org/1999/xlink" xml:space="preserve" onload="init(evt)">
<style type="text/css"><![CDATA[
.node, .edge {opacity: 0.7;}
.node.selected, .edge.selected {opacity: 1;}
.edge:hover path { stroke: red; }
.edge:hover polygon { stroke: red; fill: red; }
]]></style>

<defs>
  <circle id="rim" cx="0" cy="0" r="7"/>
  <circle id="rim2" cx="0" cy="0" r="3.5"/>
  <g id="zoomPlus">
    <use xlink:href="#rim" fill="#404040"><set attributeName="fill" to="#808080" begin="zoomplus.mouseover" end="zoomplus.mouseout"/></use>
    <path d="M-4,0h8M0,-4v8" fill="none" stroke="white" stroke-width="1.5" pointer-events="none"/>
  </g>
  <g id="zoomMin">
    <use xlink:href="#rim" fill="#404040"><set attributeName="fill" to="#808080" begin="zoomminus.mouseover" end="zoomminus.mouseout"/></use>
    <path d="M-4,0h8" fill="none" stroke="white" stroke-width="1.5" pointer-events="none"/>
  </g>
  <g id="arrowUp" transform="translate(30 24)">
    <use xlink:href="#rim"/>
    <path pointer-events="none" fill="none" stroke="white" stroke-width="1.5" d="M0,-3.0v7 M-2.5,-0.5L0,-3.0L2.5,-0.5"/>
  </g>
  <g id="arrowRight" transform="rotate(90) translate(36 -43)">
    <use xlink:href="#rim"/>
    <path pointer-events="none" fill="none" stroke="white" stroke-width="1.5" d="M0,-3.0v7 M-2.5,-0.5L0,-3.0L2.5,-0.5"/>
  </g>
  <g id="arrowDown" transform="rotate(180) translate(-30 -48)">
    <use xlink:href="#rim"/>
    <path pointer-events="none" fill="none" stroke="white" stroke-width="1.5" d="M0,-3.0v7 M-2.5,-0.5L0,-3.0L2.5,-0.5"/>
  </g>
  <g id="arrowLeft" transform="rotate(270) translate(-36 17)">
    <use xlink:href="#rim"/>
    <path pointer-events="none" fill="none" stroke="white" stroke-width="1.5" d="M0,-3.0v7 M-2.5,-0.5L0,-3.0L2.5,-0.5"/>
  </g>
  <g id="resetDef">
    <use xlink:href="#rim2" fill="#404040"><set attributeName="fill" to="#808080" begin="reset.mouseover" end="reset.mouseout"/></use>
  </g>
</defs>
<script type="application/ecmascript">
var viewWidth = 1181;
var viewHeight = 364;
var sectionId = 'dynsection-0';
</script>
<script type="application/ecmascript" xlink:href="svg.min.js"/>
<svg id="graph" class="graph">
<g id="viewport">
<title>include/Application.hpp</title>
<!-- Node1 -->
<g id="Node000001" class="node">
<title>Node1</title>
<g id="a_Node000001"><a xlink:title=" ">
<polygon fill="#999999" stroke="#666666" points="987.25,-356 870.75,-356 870.75,-336 987.25,-336 987.25,-356"/>
<text text-anchor="middle" x="929" y="-342.5" font-family="Helvetica,sans-Serif" font-size="10.00">include/Application.hpp</text>
</a>
</g>
</g>
<!-- Node2 -->
<g id="Node000002" class="node">
<title>Node2</title>
<g id="a_Node000002"><a xlink:title=" ">
<polygon fill="#e0e0e0" stroke="#999999" points="669,-20 599,-20 599,0 669,0 669,-20"/>
<text text-anchor="middle" x="634" y="-6.5" font-family="Helvetica,sans-Serif" font-size="10.00">SDL3/SDL.h</text>
</a>
</g>
</g>
<!-- Node1&#45;&gt;Node2 -->
<g id="edge1_Node000001_Node000002" class="edge">
<title>Node1&#45;&gt;Node2</title>
<g id="a_edge1_Node000001_Node000002"><a xlink:title=" ">
<path fill="none" stroke="#63b8ff" d="M987.44,-343.31C1059.63,-337.74 1173,-316.08 1173,-235 1173,-235 1173,-235 1173,-121 1173,-20.88 811.43,-10.97 680.57,-10.67"/>
<polygon fill="#63b8ff" stroke="#63b8ff" points="680.88,-7.17 670.88,-10.66 680.88,-14.17 680.88,-7.17"/>
</a>
</g>
</g>
<!-- Node3 -->
<g id="Node000003" class="node">
<title>Node3</title>
<g id="a_Node000003"><a xlink:title=" ">
<polygon fill="#e0e0e0" stroke="#999999" points="1003.25,-188 958.75,-188 958.75,-168 1003.25,-168 1003.25,-188"/>
<text text-anchor="middle" x="981" y="-174.5" font-family="Helvetica,sans-Serif" font-size="10.00">cstdlib</text>
</a>
</g>
</g>
<!-- Node1&#45;&gt;Node3 -->
<g id="edge2_Node000001_Node000003" class="edge">
<title>Node1&#45;&gt;Node3</title>
<g id="a_edge2_Node000001_Node000003"><a xlink:title=" ">
<path fill="none" stroke="#63b8ff" d="M931.94,-335.6C940.17,-309.35 963.51,-234.84 974.77,-198.89"/>
<polygon fill="#63b8ff" stroke="#63b8ff" points="977.99,-200.33 977.64,-189.74 971.31,-198.24 977.99,-200.33"/>
</a>
</g>
</g>
<!-- Node4 -->
<g id="Node000004" class="node">
<title>Node4</title>
<g id="a_Node000004"><a xlink:title=" ">
<polygon fill="#e0e0e0" stroke="#999999" points="939.75,-132 898.25,-132 898.25,-112 939.75,-112 939.75,-132"/>
<text text-anchor="middle" x="919" y="-118.5" font-family="Helvetica,sans-Serif" font-size="10.00">vector</text>
</a>
</g>
</g>
<!-- Node1&#45;&gt;Node4 -->
<g id="edge3_Node000001_Node000004" class="edge">
<title>Node1&#45;&gt;Node4</title>
<g id="a_edge3_Node000001_Node000004"><a xlink:title=" ">
<path fill="none" stroke="#63b8ff" d="M948.43,-335.51C999.16,-309.48 1128.27,-234.48 1078,-168 1062.77,-147.86 993.3,-134.14 951.39,-127.53"/>
<polygon fill="#63b8ff" stroke="#63b8ff" points="952.02,-124.09 941.61,-126.05 950.97,-131.01 952.02,-124.09"/>
</a>
</g>
</g>
<!-- Node5 -->
<g id="Node000005" class="node">
<title>Node5</title>
<g id="a_Node000005"><a xlink:title=" ">
<polygon fill="#e0e0e0" stroke="#999999" points="269.62,-20 218.38,-20 218.38,0 269.62,0 269.62,-20"/>
<text text-anchor="middle" x="244" y="-6.5" font-family="Helvetica,sans-Serif" font-size="10.00">memory</text>
</a>
</g>
</g>
<!-- Node1&#45;&gt;Node5 -->
<g id="edge4_Node000001_Node000005" class="edge">
<title>Node1&#45;&gt;Node5</title>
<g id="a_edge4_Node000001_Node000005"><a xlink:title=" ">
<path fill="none" stroke="#63b8ff" d="M870.53,-344.25C666.74,-340.86 0,-323.06 0,-235 0,-235 0,-235 0,-121 0,-31.39 138.46,-14.37 206.78,-11.42"/>
<polygon fill="#63b8ff" stroke="#63b8ff" points="206.5,-14.93 216.38,-11.09 206.26,-7.94 206.5,-14.93"/>
</a>
</g>
</g>
<!-- Node6 -->
<g id="Node000006" class="node">
<title>Node6</title>
<g id="a_Node000006"><a xlink:title=" ">
<polygon fill="#e0e0e0" stroke="#999999" points="196.88,-188 141.12,-188 141.12,-168 196.88,-168 196.88,-188"/>
<text text-anchor="middle" x="169" y="-174.5" font-family="Helvetica,sans-Serif" font-size="10.00">algorithm</text>
</a>
</g>
</g>
<!-- Node1&#45;&gt;Node6 -->
<g id="edge5_Node000001_Node000006" class="edge">
<title>Node1&#45;&gt;Node6</title>
<g id="a_edge5_Node000001_Node000006"><a xlink:title=" ">
<path fill="none" stroke="#63b8ff" d="M870.29,-344.78C714.04,-343.02 292.95,-330.2 190,-244 177.06,-233.17 172.02,-214.29 170.09,-199.66"/>
<polygon fill="#63b8ff" stroke="#63b8ff" points="173.58,-199.37 169.21,-189.72 166.61,-199.99 173.58,-199.37"/>
</a>
</g>
</g>
<!-- Node7 -->
<g id="Node000007" class="node">
<title>Node7</title>
<g id="a_Node000007"><a xlink:title=" ">
<polygon fill="#e0e0e0" stroke="#999999" points="84.75,-188 31.25,-188 31.25,-168 84.75,-168 84.75,-188"/>
<text text-anchor="middle" x="58" y="-174.5" font-family="Helvetica,sans-Serif" font-size="10.00">iostream</text>
</a>
</g>
</g>
<!-- Node1&#45;&gt;Node7 -->
<g id="edge6_Node000001_Node000007" class="edge">
<title>Node1&#45;&gt;Node7</title>
<g id="a_edge6_Node000001_Node000007"><a xlink:title=" ">
<path fill="none" stroke="#63b8ff" d="M870.26,-344.41C730,-342.44 378.9,-334.16 267,-300 191.49,-276.95 113.99,-222.34 78.28,-195.08"/>
<polygon fill="#63b8ff" stroke="#63b8ff" points="80.6,-192.44 70.55,-189.08 76.31,-197.98 80.6,-192.44"/>
</a>
</g>
</g>
<!-- Node8 -->
<g id="Node000008" class="node">
<title>Node8</title>
<g id="a_Node000008"><a xlink:title=" ">
<polygon fill="#e0e0e0" stroke="#999999" points="1069.12,-188 1020.88,-188 1020.88,-168 1069.12,-168 1069.12,-188"/>
<text text-anchor="middle" x="1045" y="-174.5" font-family="Helvetica,sans-Serif" font-size="10.00">fstream</text>
</a>
</g>
</g>
<!-- Node1&#45;&gt;Node8 -->
<g id="edge7_Node000001_Node000008" class="edge">
<title>Node1&#45;&gt;Node8</title>
<g id="a_edge7_Node000001_Node000008"><a xlink:title=" ">
<path fill="none" stroke="#63b8ff" d="M935.57,-335.6C954.15,-309.01 1007.35,-232.89 1032.07,-197.5"/>
<polygon fill="#63b8ff" stroke="#63b8ff" points="1034.78,-199.74 1037.64,-189.54 1029.04,-195.73 1034.78,-199.74"/>
</a>
</g>
</g>
<!-- Node9 -->
<g id="Node000009" class="node">
<title>Node9</title>
<g id="a_Node000009"><a xlink:title=" ">
<polygon fill="#e0e0e0" stroke="#999999" points="762,-76 722,-76 722,-56 762,-56 762,-76"/>
<text text-anchor="middle" x="742" y="-62.5" font-family="Helvetica,sans-Serif" font-size="10.00">string</text>
</a>
</g>
</g>
<!-- Node1&#45;&gt;Node9 -->
<g id="edge8_Node000001_Node000009" class="edge">
<title>Node1&#45;&gt;Node9</title>
<g id="a_edge8_Node000001_Node000009"><a xlink:title=" ">
<path fill="none" stroke="#63b8ff" d="M987.48,-338.73C1048.38,-328.57 1135,-302.3 1135,-235 1135,-235 1135,-235 1135,-177 1135,-102.08 866.8,-75.88 773.52,-69.03"/>
<polygon fill="#63b8ff" stroke="#63b8ff" points="774.03,-65.55 763.81,-68.34 773.54,-72.54 774.03,-65.55"/>
</a>
</g>
</g>
<!-- Node10 -->
<g id="Node000010" class="node">
<title>Node10</title>
<g id="a_Node000010"><a xlink:href="_scene_8hpp.html" target="_top" xlink:title=" ">
<polygon fill="white" stroke="#666666" points="907.25,-244 844.75,-244 844.75,-224 907.25,-224 907.25,-244"/>
<text text-anchor="middle" x="876" y="-230.5" font-family="Helvetica,sans-Serif" font-size="10.00">Scene.hpp</text>
</a>
</g>
</g>
<!-- Node1&#45;&gt;Node10 -->
<g id="edge9_Node000001_Node000010" class="edge">
<title>Node1&#45;&gt;Node10</title>
<g id="a_edge9_Node000001_Node000010"><a xlink:title=" ">
<path fill="none" stroke="#63b8ff" d="M924.48,-335.62C915.88,-317.76 896.97,-278.53 885.48,-254.67"/>
<polygon fill="#63b8ff" stroke="#63b8ff" points="888.66,-253.21 881.16,-245.72 882.35,-256.25 888.66,-253.21"/>
</a>
</g>
</g>
<!-- Node18 -->
<g id="Node000018" class="node">
<title>Node18</title>
<g id="a_Node000018"><a xlink:href="_gui_handler_8hpp.html" target="_top" xlink:title=" ">
<polygon fill="white" stroke="#666666" points="837.38,-300 754.62,-300 754.62,-280 837.38,-280 837.38,-300"/>
<text text-anchor="middle" x="796" y="-286.5" font-family="Helvetica,sans-Serif" font-size="10.00">GuiHandler.hpp</text>
</a>
</g>
</g>
<!-- Node1&#45;&gt;Node18 -->
<g id="edge44_Node000001_Node000018" class="edge">
<title>Node1&#45;&gt;Node18</title>
<g id="a_edge44_Node000001_Node000018"><a xlink:title=" ">
<path fill="none" stroke="#63b8ff" d="M905.83,-335.59C884.79,-327.05 853.5,-314.35 829.7,-304.68"/>
<polygon fill="#63b8ff" stroke="#63b8ff" points="831.33,-301.57 820.75,-301.05 828.7,-308.05 831.33,-301.57"/>
</a>
</g>
</g>
<!-- Node10&#45;&gt;Node2 -->
<g id="edge10_Node000010_Node000002" class="edge">
<title>Node10&#45;&gt;Node2</title>
<g id="a_edge10_Node000010_Node000002"><a xlink:title=" ">
<path fill="none" stroke="#63b8ff" d="M884.56,-223.77C892.92,-214.72 905.94,-200.51 917,-188 943.46,-158.06 988.36,-144.41 965,-112 931.41,-65.39 763.26,-32.05 680.36,-18.17"/>
<polygon fill="#63b8ff" stroke="#63b8ff" points="681.18,-14.76 670.75,-16.59 680.04,-21.66 681.18,-14.76"/>
</a>
</g>
</g>
<!-- Node10&#45;&gt;Node3 -->
<g id="edge11_Node000010_Node000003" class="edge">
<title>Node10&#45;&gt;Node3</title>
<g id="a_edge11_Node000010_Node000003"><a xlink:title=" ">
<path fill="none" stroke="#63b8ff" d="M894.29,-223.59C910.3,-215.36 933.83,-203.26 952.34,-193.74"/>
<polygon fill="#63b8ff" stroke="#63b8ff" points="953.93,-196.86 961.22,-189.17 950.73,-190.63 953.93,-196.86"/>
</a>
</g>
</g>
<!-- Node10&#45;&gt;Node4 -->
<g id="edge12_Node000010_Node000004" class="edge">
<title>Node10&#45;&gt;Node4</title>
<g id="a_edge12_Node000010_Node000004"><a xlink:title=" ">
<path fill="none" stroke="#63b8ff" d="M874.56,-223.76C872.93,-210.77 871.42,-186.63 879,-168 883.34,-157.33 891.35,-147.52 899.07,-139.79"/>
<polygon fill="#63b8ff" stroke="#63b8ff" points="901.09,-142.69 906.04,-133.32 896.33,-137.56 901.09,-142.69"/>
</a>
</g>
</g>
<!-- Node10&#45;&gt;Node5 -->
<g id="edge13_Node000010_Node000005" class="edge">
<title>Node10&#45;&gt;Node5</title>
<g id="a_edge13_Node000010_Node000005"><a xlink:title=" ">
<path fill="none" stroke="#63b8ff" d="M844.37,-231.51C733.78,-225.75 366.12,-201.61 275,-132 244.37,-108.6 241.33,-59.35 242.33,-31.43"/>
<polygon fill="#63b8ff" stroke="#63b8ff" points="245.81,-31.98 242.91,-21.79 238.82,-31.57 245.81,-31.98"/>
</a>
</g>
</g>
<!-- Node10&#45;&gt;Node6 -->
<g id="edge14_Node000010_Node000006" class="edge">
<title>Node10&#45;&gt;Node6</title>
<g id="a_edge14_Node000010_Node000006"><a xlink:title=" ">
<path fill="none" stroke="#63b8ff" d="M844.32,-231.18C752.27,-225.79 476.94,-208.99 249,-188 235.79,-186.78 221.37,-185.23 208.46,-183.76"/>
<polygon fill="#63b8ff" stroke="#63b8ff" points="208.95,-180.29 198.61,-182.62 208.14,-187.25 208.95,-180.29"/>
</a>
</g>
</g>
<!-- Node10&#45;&gt;Node7 -->
<g id="edge16_Node000010_Node000007" class="edge">
<title>Node10&#45;&gt;Node7</title>
<g id="a_edge16_Node000010_Node000007"><a xlink:title=" ">
<path fill="none" stroke="#63b8ff" d="M844.4,-231.78C741.61,-227.64 407.46,-213.06 132,-188 120.43,-186.95 107.87,-185.53 96.43,-184.12"/>
<polygon fill="#63b8ff" stroke="#63b8ff" points="96.88,-180.65 86.52,-182.87 96.01,-187.6 96.88,-180.65"/>
</a>
</g>
</g>
<!-- Node10&#45;&gt;Node8 -->
<g id="edge17_Node000010_Node000008" class="edge">
<title>Node10&#45;&gt;Node8</title>
<g id="a_edge17_Node000010_Node000008"><a xlink:title=" ">
<path fill="none" stroke="#63b8ff" d="M905.44,-223.59C934.5,-214.31 978.94,-200.11 1009.84,-190.23"/>
<polygon fill="#63b8ff" stroke="#63b8ff" points="1010.65,-193.65 1019.11,-187.27 1008.52,-186.98 1010.65,-193.65"/>
</a>
</g>
</g>
<!-- Node10&#45;&gt;Node9 -->
<g id="edge15_Node000010_Node000009" class="edge">
<title>Node10&#45;&gt;Node9</title>
<g id="a_edge15_Node000010_Node000009"><a xlink:title=" ">
<path fill="none" stroke="#63b8ff" d="M881.12,-223.86C888.48,-210.99 902.73,-186.98 917,-168 929.86,-150.89 941.39,-152.01 949,-132 952.16,-123.69 954.58,-118.92 949,-112 927.32,-85.1 825.98,-73.45 773.58,-69.15"/>
<polygon fill="#63b8ff" stroke="#63b8ff" points="774.03,-65.67 763.79,-68.39 773.49,-72.65 774.03,-65.67"/>
</a>
</g>
</g>
<!-- Node11 -->
<g id="Node000011" class="node">
<title>Node11</title>
<g id="a_Node000011"><a xlink:href="_game_entity_8hpp.html" target="_top" xlink:title=" ">
<polygon fill="white" stroke="#666666" points="699.25,-188 612.75,-188 612.75,-168 699.25,-168 699.25,-188"/>
<text text-anchor="middle" x="656" y="-174.5" font-family="Helvetica,sans-Serif" font-size="10.00">GameEntity.hpp</text>
</a>
</g>
</g>
<!-- Node10&#45;&gt;Node11 -->
<g id="edge18_Node000010_Node000011" class="edge">
<title>Node10&#45;&gt;Node11</title>
<g id="a_edge18_Node000010_Node000011"><a xlink:title=" ">
<path fill="none" stroke="#63b8ff" d="M844.48,-225.26C808.16,-216.35 748.02,-201.59 705.46,-191.14"/>
<polygon fill="#63b8ff" stroke="#63b8ff" points="706.51,-187.79 695.97,-188.81 704.84,-194.59 706.51,-187.79"/>
</a>
</g>
</g>
<!-- Node11&#45;&gt;Node2 -->
<g id="edge19_Node000011_Node000002" class="edge">
<title>Node11&#45;&gt;Node2</title>
<g id="a_edge19_Node000011_Node000002"><a xlink:title=" ">
<path fill="none" stroke="#63b8ff" d="M699.45,-176.23C751.32,-173.15 829.19,-160.56 813,-112 803.16,-82.49 796.28,-74.14 771,-56 744.18,-36.76 708.65,-25.4 680.5,-18.91"/>
<polygon fill="#63b8ff" stroke="#63b8ff" points="681.31,-15.51 670.8,-16.82 679.84,-22.35 681.31,-15.51"/>
</a>
</g>
</g>
<!-- Node11&#45;&gt;Node4 -->
<g id="edge22_Node000011_Node000004" class="edge">
<title>Node11&#45;&gt;Node4</title>
<g id="a_edge22_Node000011_Node000004"><a xlink:title=" ">
<path fill="none" stroke="#63b8ff" d="M699.44,-169.19C745.43,-160.74 820.06,-146.52 884,-132 884.99,-131.78 886,-131.54 887.01,-131.3"/>
<polygon fill="#63b8ff" stroke="#63b8ff" points="887.6,-134.76 896.48,-128.98 885.93,-127.97 887.6,-134.76"/>
</a>
</g>
</g>
<!-- Node11&#45;&gt;Node5 -->
<g id="edge20_Node000011_Node000005" class="edge">
<title>Node11&#45;&gt;Node5</title>
<g id="a_edge20_Node000011_Node000005"><a xlink:title=" ">
<path fill="none" stroke="#63b8ff" d="M612.42,-176.74C528.16,-175.41 346.93,-168.28 298,-132 265.31,-107.76 252.01,-59.24 246.92,-31.57"/>
<polygon fill="#63b8ff" stroke="#63b8ff" points="250.42,-31.29 245.36,-21.98 243.51,-32.42 250.42,-31.29"/>
</a>
</g>
</g>
<!-- Node11&#45;&gt;Node9 -->
<g id="edge23_Node000011_Node000009" class="edge">
<title>Node11&#45;&gt;Node9</title>
<g id="a_edge23_Node000011_Node000009"><a xlink:title=" ">
<path fill="none" stroke="#63b8ff" d="M677.35,-167.57C692.19,-159.97 711.33,-147.94 723,-132 732.57,-118.93 737.34,-101.09 739.71,-87.41"/>
<polygon fill="#63b8ff" stroke="#63b8ff" points="743.14,-88.16 741.06,-77.77 736.21,-87.18 743.14,-88.16"/>
</a>
</g>
</g>
<!-- Node12 -->
<g id="Node000012" class="node">
<title>Node12</title>
<g id="a_Node000012"><a xlink:title=" ">
<polygon fill="#e0e0e0" stroke="#999999" points="804.38,-132 769.62,-132 769.62,-112 804.38,-112 804.38,-132"/>
<text text-anchor="middle" x="787" y="-118.5" font-family="Helvetica,sans-Serif" font-size="10.00">map</text>
</a>
</g>
</g>
<!-- Node11&#45;&gt;Node12 -->
<g id="edge21_Node000011_Node000012" class="edge">
<title>Node11&#45;&gt;Node12</title>
<g id="a_edge21_Node000011_Node000012"><a xlink:title=" ">
<path fill="none" stroke="#63b8ff" d="M678.82,-167.59C701.09,-158.41 735.04,-144.42 758.95,-134.56"/>
<polygon fill="#63b8ff" stroke="#63b8ff" points="760.16,-137.85 768.07,-130.8 757.49,-131.38 760.16,-137.85"/>
</a>
</g>
</g>
<!-- Node13 -->
<g id="Node000013" class="node">
<title>Node13</title>
<g id="a_Node000013"><a xlink:href="_component_type_8hpp.html" target="_top" xlink:title=" ">
<polygon fill="white" stroke="#666666" points="446.62,-20 341.38,-20 341.38,0 446.62,0 446.62,-20"/>
<text text-anchor="middle" x="394" y="-6.5" font-family="Helvetica,sans-Serif" font-size="10.00">ComponentType.hpp</text>
</a>
</g>
</g>
<!-- Node11&#45;&gt;Node13 -->
<g id="edge24_Node000011_Node000013" class="edge">
<title>Node11&#45;&gt;Node13</title>
<g id="a_edge24_Node000011_Node000013"><a xlink:title=" ">
<path fill="none" stroke="#63b8ff" d="M612.47,-174.5C523.97,-168.98 329.69,-154.41 310,-132 279.28,-97.03 334.72,-50.61 369.32,-26.71"/>
<polygon fill="#63b8ff" stroke="#63b8ff" points="371.24,-29.64 377.6,-21.16 367.34,-23.82 371.24,-29.64"/>
</a>
</g>
</g>
<!-- Node14 -->
<g id="Node000014" class="node">
<title>Node14</title>
<g id="a_Node000014"><a xlink:href="_component_8hpp.html" target="_top" xlink:title=" ">
<polygon fill="white" stroke="#666666" points="489.12,-76 404.88,-76 404.88,-56 489.12,-56 489.12,-76"/>
<text text-anchor="middle" x="447" y="-62.5" font-family="Helvetica,sans-Serif" font-size="10.00">Component.hpp</text>
</a>
</g>
</g>
<!-- Node11&#45;&gt;Node14 -->
<g id="edge25_Node000011_Node000014" class="edge">
<title>Node11&#45;&gt;Node14</title>
<g id="a_edge25_Node000011_Node000014"><a xlink:title=" ">
<path fill="none" stroke="#63b8ff" d="M612.4,-177.93C530.27,-178.63 357.5,-174.85 320,-132 294.36,-102.7 348.08,-84.88 393.38,-75.48"/>
<polygon fill="#63b8ff" stroke="#63b8ff" points="394.03,-78.92 403.17,-73.56 392.69,-72.05 394.03,-78.92"/>
</a>
</g>
</g>
<!-- Node15 -->
<g id="Node000015" class="node">
<title>Node15</title>
<g id="a_Node000015"><a xlink:href="_texture_component_8hpp.html" target="_top" xlink:title=" ">
<polygon fill="white" stroke="#666666" points="714.25,-132 597.75,-132 597.75,-112 714.25,-112 714.25,-132"/>
<text text-anchor="middle" x="656" y="-118.5" font-family="Helvetica,sans-Serif" font-size="10.00">TextureComponent.hpp</text>
</a>
</g>
</g>
<!-- Node11&#45;&gt;Node15 -->
<g id="edge29_Node000011_Node000015" class="edge">
<title>Node11&#45;&gt;Node15</title>
<g id="a_edge29_Node000011_Node000015"><a xlink:title=" ">
<path fill="none" stroke="#63b8ff" d="M656,-167.59C656,-161.01 656,-151.96 656,-143.73"/>
<polygon fill="#63b8ff" stroke="#63b8ff" points="659.5,-143.81 656,-133.81 652.5,-143.81 659.5,-143.81"/>
</a>
</g>
</g>
<!-- Node16 -->
<g id="Node000016" class="node">
<title>Node16</title>
<g id="a_Node000016"><a xlink:href="_transform_component_8hpp.html" target="_top" xlink:title=" ">
<polygon fill="white" stroke="#666666" points="579.5,-132 452.5,-132 452.5,-112 579.5,-112 579.5,-132"/>
<text text-anchor="middle" x="516" y="-118.5" font-family="Helvetica,sans-Serif" font-size="10.00">TransformComponent.hpp</text>
</a>
</g>
</g>
<!-- Node11&#45;&gt;Node16 -->
<g id="edge34_Node000011_Node000016" class="edge">
<title>Node11&#45;&gt;Node16</title>
<g id="a_edge34_Node000011_Node000016"><a xlink:title=" ">
<path fill="none" stroke="#63b8ff" d="M631.61,-167.59C609.37,-159.01 576.23,-146.23 551.13,-136.55"/>
<polygon fill="#63b8ff" stroke="#63b8ff" points="552.58,-133.36 541.99,-133.02 550.06,-139.89 552.58,-133.36"/>
</a>
</g>
</g>
<!-- Node17 -->
<g id="Node000017" class="node">
<title>Node17</title>
<g id="a_Node000017"><a xlink:href="_input_component_8hpp.html" target="_top" xlink:title=" ">
<polygon fill="white" stroke="#666666" points="434.62,-132 329.38,-132 329.38,-112 434.62,-112 434.62,-132"/>
<text text-anchor="middle" x="382" y="-118.5" font-family="Helvetica,sans-Serif" font-size="10.00">InputComponent.hpp</text>
</a>
</g>
</g>
<!-- Node11&#45;&gt;Node17 -->
<g id="edge39_Node000011_Node000017" class="edge">
<title>Node11&#45;&gt;Node17</title>
<g id="a_edge39_Node000011_Node000017"><a xlink:title=" ">
<path fill="none" stroke="#63b8ff" d="M612.28,-168.38C566.07,-159.28 492.89,-144.85 441.45,-134.72"/>
<polygon fill="#63b8ff" stroke="#63b8ff" points="442.15,-131.29 431.66,-132.79 440.79,-138.15 442.15,-131.29"/>
</a>
</g>
</g>
<!-- Node14&#45;&gt;Node2 -->
<g id="edge26_Node000014_Node000002" class="edge">
<title>Node14&#45;&gt;Node2</title>
<g id="a_edge26_Node000014_Node000002"><a xlink:title=" ">
<path fill="none" stroke="#63b8ff" d="M479.57,-55.59C510.22,-46.74 556.34,-33.43 590.2,-23.65"/>
<polygon fill="#63b8ff" stroke="#63b8ff" points="591.08,-27.04 599.72,-20.9 589.14,-20.31 591.08,-27.04"/>
</a>
</g>
</g>
<!-- Node14&#45;&gt;Node5 -->
<g id="edge27_Node000014_Node000005" class="edge">
<title>Node14&#45;&gt;Node5</title>
<g id="a_edge27_Node000014_Node000005"><a xlink:title=" ">
<path fill="none" stroke="#63b8ff" d="M411.64,-55.59C374.99,-45.84 317.97,-30.68 280.8,-20.79"/>
<polygon fill="#63b8ff" stroke="#63b8ff" points="281.97,-17.48 271.4,-18.29 280.17,-24.24 281.97,-17.48"/>
</a>
</g>
</g>
<!-- Node14&#45;&gt;Node13 -->
<g id="edge28_Node000014_Node000013" class="edge">
<title>Node14&#45;&gt;Node13</title>
<g id="a_edge28_Node000014_Node000013"><a xlink:title=" ">
<path fill="none" stroke="#63b8ff" d="M437.77,-55.59C430.4,-48.08 419.87,-37.35 410.98,-28.3"/>
<polygon fill="#63b8ff" stroke="#63b8ff" points="413.69,-26.06 404.19,-21.38 408.69,-30.97 413.69,-26.06"/>
</a>
</g>
</g>
<!-- Node15&#45;&gt;Node2 -->
<g id="edge30_Node000015_Node000002" class="edge">
<title>Node15&#45;&gt;Node2</title>
<g id="a_edge30_Node000015_Node000002"><a xlink:title=" ">
<path fill="none" stroke="#63b8ff" d="M654.12,-111.62C650.58,-93.92 642.85,-55.24 638.06,-31.32"/>
<polygon fill="#63b8ff" stroke="#63b8ff" points="641.56,-30.96 636.17,-21.84 634.7,-32.33 641.56,-30.96"/>
</a>
</g>
</g>
<!-- Node15&#45;&gt;Node5 -->
<g id="edge31_Node000015_Node000005" class="edge">
<title>Node15&#45;&gt;Node5</title>
<g id="a_edge31_Node000015_Node000005"><a xlink:title=" ">
<path fill="none" stroke="#63b8ff" d="M637.02,-111.62C607.83,-97.56 549.84,-71.06 498,-56 422.55,-34.07 331.23,-21.07 281.22,-15.05"/>
<polygon fill="#63b8ff" stroke="#63b8ff" points="281.86,-11.6 271.52,-13.91 281.04,-18.55 281.86,-11.6"/>
</a>
</g>
</g>
<!-- Node15&#45;&gt;Node9 -->
<g id="edge32_Node000015_Node000009" class="edge">
<title>Node15&#45;&gt;Node9</title>
<g id="a_edge32_Node000015_Node000009"><a xlink:title=" ">
<path fill="none" stroke="#63b8ff" d="M670.98,-111.59C683.73,-103.59 702.29,-91.93 717.24,-82.54"/>
<polygon fill="#63b8ff" stroke="#63b8ff" points="719.01,-85.57 725.62,-77.28 715.29,-79.64 719.01,-85.57"/>
</a>
</g>
</g>
<!-- Node15&#45;&gt;Node14 -->
<g id="edge33_Node000015_Node000014" class="edge">
<title>Node15&#45;&gt;Node14</title>
<g id="a_edge33_Node000015_Node000014"><a xlink:title=" ">
<path fill="none" stroke="#63b8ff" d="M619.59,-111.59C584.89,-102.63 532.45,-89.08 494.48,-79.27"/>
<polygon fill="#63b8ff" stroke="#63b8ff" points="495.71,-75.97 485.15,-76.86 493.96,-82.75 495.71,-75.97"/>
</a>
</g>
</g>
<!-- Node16&#45;&gt;Node2 -->
<g id="edge35_Node000016_Node000002" class="edge">
<title>Node16&#45;&gt;Node2</title>
<g id="a_edge35_Node000016_Node000002"><a xlink:title=" ">
<path fill="none" stroke="#63b8ff" d="M526.06,-111.62C545.92,-93.11 590.4,-51.65 615.62,-28.13"/>
<polygon fill="#63b8ff" stroke="#63b8ff" points="617.93,-30.77 622.86,-21.39 613.16,-25.65 617.93,-30.77"/>
</a>
</g>
</g>
<!-- Node16&#45;&gt;Node5 -->
<g id="edge36_Node000016_Node000005" class="edge">
<title>Node16&#45;&gt;Node5</title>
<g id="a_edge36_Node000016_Node000005"><a xlink:title=" ">
<path fill="none" stroke="#63b8ff" d="M489.65,-111.51C465.25,-102.63 428.01,-88.84 396,-76 354.01,-59.16 306.1,-38.41 275.48,-24.95"/>
<polygon fill="#63b8ff" stroke="#63b8ff" points="276.97,-21.79 266.41,-20.96 274.15,-28.19 276.97,-21.79"/>
</a>
</g>
</g>
<!-- Node16&#45;&gt;Node9 -->
<g id="edge37_Node000016_Node000009" class="edge">
<title>Node16&#45;&gt;Node9</title>
<g id="a_edge37_Node000016_Node000009"><a xlink:title=" ">
<path fill="none" stroke="#63b8ff" d="M555.62,-111.53C599.75,-100.99 670.19,-84.16 710.65,-74.49"/>
<polygon fill="#63b8ff" stroke="#63b8ff" points="711.32,-77.93 720.23,-72.2 709.69,-71.12 711.32,-77.93"/>
</a>
</g>
</g>
<!-- Node16&#45;&gt;Node14 -->
<g id="edge38_Node000016_Node000014" class="edge">
<title>Node16&#45;&gt;Node14</title>
<g id="a_edge38_Node000016_Node000014"><a xlink:title=" ">
<path fill="none" stroke="#63b8ff" d="M503.98,-111.59C493.99,-103.77 479.54,-92.46 467.69,-83.19"/>
<polygon fill="#63b8ff" stroke="#63b8ff" points="470.11,-80.64 460.07,-77.23 465.79,-86.15 470.11,-80.64"/>
</a>
</g>
</g>
<!-- Node17&#45;&gt;Node2 -->
<g id="edge40_Node000017_Node000002" class="edge">
<title>Node17&#45;&gt;Node2</title>
<g id="a_edge40_Node000017_Node000002"><a xlink:title=" ">
<path fill="none" stroke="#63b8ff" d="M408.03,-111.55C431.69,-102.8 467.46,-89.2 498,-76 535.54,-59.78 577.92,-39.14 605.25,-25.52"/>
<polygon fill="#63b8ff" stroke="#63b8ff" points="606.56,-28.78 613.93,-21.18 603.42,-22.52 606.56,-28.78"/>
</a>
</g>
</g>
<!-- Node17&#45;&gt;Node5 -->
<g id="edge41_Node000017_Node000005" class="edge">
<title>Node17&#45;&gt;Node5</title>
<g id="a_edge41_Node000017_Node000005"><a xlink:title=" ">
<path fill="none" stroke="#63b8ff" d="M370.23,-111.62C346.81,-92.95 294.08,-50.92 264.72,-27.52"/>
<polygon fill="#63b8ff" stroke="#63b8ff" points="266.92,-24.79 256.92,-21.3 262.56,-30.27 266.92,-24.79"/>
</a>
</g>
</g>
<!-- Node17&#45;&gt;Node9 -->
<g id="edge42_Node000017_Node000009" class="edge">
<title>Node17&#45;&gt;Node9</title>
<g id="a_edge42_Node000017_Node000009"><a xlink:title=" ">
<path fill="none" stroke="#63b8ff" d="M435.12,-113.03C511.21,-101.62 648.86,-80.97 710.58,-71.71"/>
<polygon fill="#63b8ff" stroke="#63b8ff" points="711,-75.19 720.37,-70.24 709.96,-68.27 711,-75.19"/>
</a>
</g>
</g>
<!-- Node17&#45;&gt;Node14 -->
<g id="edge43_Node000017_Node000014" class="edge">
<title>Node17&#45;&gt;Node14</title>
<g id="a_edge43_Node000017_Node000014"><a xlink:title=" ">
<path fill="none" stroke="#63b8ff" d="M393.32,-111.59C402.64,-103.85 416.08,-92.69 427.18,-83.47"/>
<polygon fill="#63b8ff" stroke="#63b8ff" points="429.19,-86.35 434.64,-77.27 424.71,-80.96 429.19,-86.35"/>
</a>
</g>
</g>
<!-- Node18&#45;&gt;Node2 -->
<g id="edge45_Node000018_Node000002" class="edge">
<title>Node18&#45;&gt;Node2</title>
<g id="a_edge45_Node000018_Node000002"><a xlink:title=" ">
<path fill="none" stroke="#63b8ff" d="M754.17,-281.89C646.37,-262.64 363.81,-205.93 310,-132 238.56,-33.85 482.03,-15.26 587.57,-11.78"/>
<polygon fill="#63b8ff" stroke="#63b8ff" points="587.43,-15.29 597.33,-11.49 587.23,-8.29 587.43,-15.29"/>
</a>
</g>
</g>
<!-- Node18&#45;&gt;Node3 -->
<g id="edge46_Node000018_Node000003" class="edge">
<title>Node18&#45;&gt;Node3</title>
<g id="a_edge46_Node000018_Node000003"><a xlink:title=" ">
<path fill="none" stroke="#63b8ff" d="M833.07,-279.57C857.81,-272.23 890.37,-260.5 916,-244 936.03,-231.1 954.81,-211.14 966.98,-196.74"/>
<polygon fill="#63b8ff" stroke="#63b8ff" points="969.38,-199.34 973.01,-189.38 963.96,-194.9 969.38,-199.34"/>
</a>
</g>
</g>
<!-- Node18&#45;&gt;Node4 -->
<g id="edge47_Node000018_Node000004" class="edge">
<title>Node18&#45;&gt;Node4</title>
<g id="a_edge47_Node000018_Node000004"><a xlink:title=" ">
<path fill="none" stroke="#63b8ff" d="M800.69,-279.64C811.49,-258.56 839.61,-206.18 871,-168 879.38,-157.81 889.97,-147.65 899.07,-139.58"/>
<polygon fill="#63b8ff" stroke="#63b8ff" points="901.11,-142.44 906.39,-133.26 896.53,-137.14 901.11,-142.44"/>
</a>
</g>
</g>
<!-- Node18&#45;&gt;Node5 -->
<g id="edge48_Node000018_Node000005" class="edge">
<title>Node18&#45;&gt;Node5</title>
<g id="a_edge48_Node000018_Node000005"><a xlink:title=" ">
<path fill="none" stroke="#63b8ff" d="M754.13,-289.55C634.12,-290.55 291.1,-289.27 190,-244 151.22,-226.64 119.05,-208.47 132,-168 150.53,-110.13 199.07,-55.41 225.77,-28.45"/>
<polygon fill="#63b8ff" stroke="#63b8ff" points="228.17,-30.99 232.83,-21.48 223.25,-26.01 228.17,-30.99"/>
</a>
</g>
</g>
<!-- Node18&#45;&gt;Node6 -->
<g id="edge49_Node000018_Node000006" class="edge">
<title>Node18&#45;&gt;Node6</title>
<g id="a_edge49_Node000018_Node000006"><a xlink:title=" ">
<path fill="none" stroke="#63b8ff" d="M754.46,-287.84C629.14,-284.05 260.58,-270.74 214,-244 196.36,-233.87 184.06,-213.68 176.83,-198.48"/>
<polygon fill="#63b8ff" stroke="#63b8ff" points="180.1,-197.22 172.89,-189.46 173.69,-200.02 180.1,-197.22"/>
</a>
</g>
</g>
<!-- Node18&#45;&gt;Node7 -->
<g id="edge50_Node000018_Node000007" class="edge">
<title>Node18&#45;&gt;Node7</title>
<g id="a_edge50_Node000018_Node000007"><a xlink:title=" ">
<path fill="none" stroke="#63b8ff" d="M754.38,-289.41C628.07,-290.15 250.93,-288.49 138,-244 112.11,-233.8 88.16,-212.01 73.34,-196.48"/>
<polygon fill="#63b8ff" stroke="#63b8ff" points="76.09,-194.3 66.75,-189.3 70.94,-199.03 76.09,-194.3"/>
</a>
</g>
</g>
<!-- Node18&#45;&gt;Node8 -->
<g id="edge51_Node000018_Node000008" class="edge">
<title>Node18&#45;&gt;Node8</title>
<g id="a_edge51_Node000018_Node000008"><a xlink:title=" ">
<path fill="none" stroke="#63b8ff" d="M836.71,-279.54C866.6,-271.86 907.78,-259.73 942,-244 971.75,-230.32 1003.19,-209.41 1023.4,-195.02"/>
<polygon fill="#63b8ff" stroke="#63b8ff" points="1025.34,-197.94 1031.39,-189.24 1021.23,-192.27 1025.34,-197.94"/>
</a>
</g>
</g>
<!-- Node18&#45;&gt;Node9 -->
<g id="edge52_Node000018_Node000009" class="edge">
<title>Node18&#45;&gt;Node9</title>
<g id="a_edge52_Node000018_Node000009"><a xlink:title=" ">
<path fill="none" stroke="#63b8ff" d="M798.29,-279.53C805.92,-247.14 829.07,-141.21 813,-112 804.4,-96.36 787.81,-85.39 772.83,-78.2"/>
<polygon fill="#63b8ff" stroke="#63b8ff" points="774.29,-75.02 763.73,-74.23 771.49,-81.44 774.29,-75.02"/>
</a>
</g>
</g>
<!-- Node18&#45;&gt;Node10 -->
<g id="edge53_Node000018_Node000010" class="edge">
<title>Node18&#45;&gt;Node10</title>
<g id="a_edge53_Node000018_Node000010"><a xlink:title=" ">
<path fill="none" stroke="#63b8ff" d="M809.93,-279.59C821.68,-271.67 838.73,-260.16 852.57,-250.82"/>
<polygon fill="#63b8ff" stroke="#63b8ff" points="854.37,-253.82 860.7,-245.33 850.46,-248.02 854.37,-253.82"/>
</a>
</g>
</g>
</g>
</svg>

<g id="navigator" transform="translate(0 0)" fill="#404254">
  <rect fill="#f2f5e9" fill-opacity="0.5" stroke="#606060" stroke-width=".5" x="0" y="0" width="60" height="60"/>
  <use id="zoomplus" xlink:href="#zoomPlus" x="17" y="9" onmousedown="handleZoom(evt,'in')"/>
  <use id="zoomminus" xlink:href="#zoomMin" x="42" y="9" onmousedown="handleZoom(evt,'out')"/>
  <use id="reset" xlink:href="#resetDef" x="30" y="36" onmousedown="handleReset()"/>
   <use id="arrowup" xlink:href="#arrowUp" x="0" y="0" onmousedown="handlePan(0,-1)"/>
  <use id="arrowright" xlink:href="#arrowRight" x="0" y="0" onmousedown="handlePan(1,0)"/>
  <use id="arrowdown" xlink:href="#arrowDown" x="0" y="0" onmousedown="handlePan(0,1)"/>
  <use id="arrowleft" xlink:href="#arrowLeft" x="0" y="0" onmousedown="handlePan(-1,0)"/>
</g>
<svg viewBox="0 0 15 15" width="100%" height="30px" preserveAspectRatio="xMaxYMin meet">
 <g id="arrow_out" transform="scale(0.3 0.3)">
  <a xlink:href="_application_8hpp__incl_org.svg" target="_base">
   <rect id="button" ry="5" rx="5" y="6" x="6" height="38" width="38"
        fill="#f2f5e9" fill-opacity="0.5" stroke="#606060" stroke-width="1.0"/>
   <path id="arrow"
     d="M 11.500037,31.436501 C 11.940474,20.09759 22.043105,11.32322 32.158766,21.979434 L 37.068811,17.246167 C 37.068811,17.246167 37.088388,32 37.088388,32 L 22.160133,31.978069 C 22.160133,31.978069 26.997745,27.140456 26.997745,27.140456 C 18.528582,18.264221 13.291696,25.230495 11.500037,31.436501 z"
     style="fill:#404040;"/>
  </a>
 </g>
</svg>

<style type='text/css'>
<![CDATA[
[data-mouse-over-selected='false'] { opacity: 0.7; }
[data-mouse-over-selected='true']  { opacity: 1.0; }
]]>
</style>
<script type="application/ecmascript"><![CDATA[
document.addEventListener('DOMContentLoaded', (event) => {
  highlightEdges();
  highlightAdjacentNodes();
});
]]></script>
</svg>
