<?xml version="1.0" encoding="UTF-8" standalone="no"?>
<!DOCTYPE svg PUBLIC "-//W3C//DTD SVG 1.1//EN"
 "http://www.w3.org/Graphics/SVG/1.1/DTD/svg11.dtd">
<!-- Generated by graphviz version 10.0.1 (20240210.2158)
 -->
<!-- Title: include/GameEntity.hpp Pages: 1 -->
<svg width="169pt" height="196pt"
 viewBox="0.00 0.00 169.38 196.00" xmlns="http://www.w3.org/2000/svg" xmlns:xlink="http://www.w3.org/1999/xlink">

<svg id="main" version="1.1" xmlns="http://www.w3.org/2000/svg" xmlns:xlink="http://www.w3.org/1999/xlink" xml:space="preserve" onload="init(evt)">
<style type="text/css"><![CDATA[
.node, .edge {opacity: 0.7;}
.node.selected, .edge.selected {opacity: 1;}
.edge:hover path { stroke: red; }
.edge:hover polygon { stroke: red; fill: red; }
]]></style>
<script type="application/ecmascript" xlink:href="svg.min.js"/>
<svg id="graph" class="graph">
<g id="graph0" class="graph" transform="scale(1 1) rotate(0) translate(4 192)">
<title>include/GameEntity.hpp</title>
<!-- Node1 -->
<g id="Node000001" class="node">
<title>Node1</title>
<g id="a_Node000001"><a xlink:title=" ">
<polygon fill="#999999" stroke="#666666" points="120.25,-188 0,-188 0,-168 120.25,-168 120.25,-188"/>
<text text-anchor="middle" x="60.12" y="-174.5" font-family="Helvetica,sans-Serif" font-size="10.00">include/GameEntity.hpp</text>
</a>
</g>
</g>
<!-- Node2 -->
<g id="Node000002" class="node">
<title>Node2</title>
<g id="a_Node000002"><a xlink:href="_scene_8hpp.html" target="_top" xlink:title=" ">
<polygon fill="white" stroke="#666666" points="108.25,-132 12,-132 12,-112 108.25,-112 108.25,-132"/>
<text text-anchor="middle" x="60.12" y="-118.5" font-family="Helvetica,sans-Serif" font-size="10.00">include/Scene.hpp</text>
</a>
</g>
</g>
<!-- Node1&#45;&gt;Node2 -->
<g id="edge1_Node000001_Node000002" class="edge">
<title>Node1&#45;&gt;Node2</title>
<g id="a_edge1_Node000001_Node000002"><a xlink:title=" ">
<path fill="none" stroke="#63b8ff" d="M60.12,-156.13C60.12,-147.9 60.12,-138.85 60.12,-132.3"/>
<polygon fill="#63b8ff" stroke="#63b8ff" points="56.63,-156.08 60.13,-166.08 63.63,-156.08 56.63,-156.08"/>
</a>
</g>
</g>
<!-- Node3 -->
<g id="Node000003" class="node">
<title>Node3</title>
<g id="a_Node000003"><a xlink:href="_application_8hpp.html" target="_top" xlink:title=" ">
<polygon fill="white" stroke="#666666" points="118.38,-20 1.88,-20 1.88,0 118.38,0 118.38,-20"/>
<text text-anchor="middle" x="60.12" y="-6.5" font-family="Helvetica,sans-Serif" font-size="10.00">include/Application.hpp</text>
</a>
</g>
</g>
<!-- Node2&#45;&gt;Node3 -->
<g id="edge2_Node000002_Node000003" class="edge">
<title>Node2&#45;&gt;Node3</title>
<g id="a_edge2_Node000002_Node000003"><a xlink:title=" ">
<path fill="none" stroke="#63b8ff" d="M47.24,-101.84C42.79,-94.15 38.37,-84.99 36.12,-76 31.05,-55.69 43.96,-32.96 52.75,-20.48"/>
<polygon fill="#63b8ff" stroke="#63b8ff" points="44.24,-103.65 52.5,-110.28 50.18,-99.94 44.24,-103.65"/>
</a>
</g>
</g>
<!-- Node4 -->
<g id="Node000004" class="node">
<title>Node4</title>
<g id="a_Node000004"><a xlink:href="_gui_handler_8hpp.html" target="_top" xlink:title=" ">
<polygon fill="white" stroke="#666666" points="161.38,-76 44.88,-76 44.88,-56 161.38,-56 161.38,-76"/>
<text text-anchor="middle" x="103.12" y="-62.5" font-family="Helvetica,sans-Serif" font-size="10.00">include/GuiHandler.hpp</text>
</a>
</g>
</g>
<!-- Node2&#45;&gt;Node4 -->
<g id="edge3_Node000002_Node000004" class="edge">
<title>Node2&#45;&gt;Node4</title>
<g id="a_edge3_Node000002_Node000004"><a xlink:title=" ">
<path fill="none" stroke="#63b8ff" d="M74.68,-102.72C81.75,-93.84 89.95,-83.55 95.72,-76.3"/>
<polygon fill="#63b8ff" stroke="#63b8ff" points="72.05,-100.41 68.56,-110.41 77.53,-104.77 72.05,-100.41"/>
</a>
</g>
</g>
<!-- Node4&#45;&gt;Node3 -->
<g id="edge4_Node000004_Node000003" class="edge">
<title>Node4&#45;&gt;Node3</title>
<g id="a_edge4_Node000004_Node000003"><a xlink:title=" ">
<path fill="none" stroke="#63b8ff" d="M88.57,-46.72C81.5,-37.84 73.3,-27.55 67.53,-20.3"/>
<polygon fill="#63b8ff" stroke="#63b8ff" points="85.72,-48.77 94.69,-54.41 91.2,-44.41 85.72,-48.77"/>
</a>
</g>
</g>
</g>
</svg>
</svg>

<style type='text/css'>
<![CDATA[
[data-mouse-over-selected='false'] { opacity: 0.7; }
[data-mouse-over-selected='true']  { opacity: 1.0; }
]]>
</style>
<script type="application/ecmascript"><![CDATA[
document.addEventListener('DOMContentLoaded', (event) => {
  highlightEdges();
  highlightAdjacentNodes();
});
]]></script>
</svg>
