<?xml version="1.0" encoding="UTF-8" standalone="no"?>
<!DOCTYPE svg PUBLIC "-//W3C//DTD SVG 1.1//EN"
 "http://www.w3.org/Graphics/SVG/1.1/DTD/svg11.dtd">
<!-- Generated by graphviz version 10.0.1 (20240210.2158)
 -->
<!-- Title: include/GameEntity.hpp Pages: 1 -->
<!--zoomable 196 -->

<svg id="main" version="1.1" xmlns="http://www.w3.org/2000/svg" xmlns:xlink="http://www.w3.org/1999/xlink" xml:space="preserve" onload="init(evt)">
<style type="text/css"><![CDATA[
.node, .edge {opacity: 0.7;}
.node.selected, .edge.selected {opacity: 1;}
.edge:hover path { stroke: red; }
.edge:hover polygon { stroke: red; fill: red; }
]]></style>

<defs>
  <circle id="rim" cx="0" cy="0" r="7"/>
  <circle id="rim2" cx="0" cy="0" r="3.5"/>
  <g id="zoomPlus">
    <use xlink:href="#rim" fill="#404040"><set attributeName="fill" to="#808080" begin="zoomplus.mouseover" end="zoomplus.mouseout"/></use>
    <path d="M-4,0h8M0,-4v8" fill="none" stroke="white" stroke-width="1.5" pointer-events="none"/>
  </g>
  <g id="zoomMin">
    <use xlink:href="#rim" fill="#404040"><set attributeName="fill" to="#808080" begin="zoomminus.mouseover" end="zoomminus.mouseout"/></use>
    <path d="M-4,0h8" fill="none" stroke="white" stroke-width="1.5" pointer-events="none"/>
  </g>
  <g id="arrowUp" transform="translate(30 24)">
    <use xlink:href="#rim"/>
    <path pointer-events="none" fill="none" stroke="white" stroke-width="1.5" d="M0,-3.0v7 M-2.5,-0.5L0,-3.0L2.5,-0.5"/>
  </g>
  <g id="arrowRight" transform="rotate(90) translate(36 -43)">
    <use xlink:href="#rim"/>
    <path pointer-events="none" fill="none" stroke="white" stroke-width="1.5" d="M0,-3.0v7 M-2.5,-0.5L0,-3.0L2.5,-0.5"/>
  </g>
  <g id="arrowDown" transform="rotate(180) translate(-30 -48)">
    <use xlink:href="#rim"/>
    <path pointer-events="none" fill="none" stroke="white" stroke-width="1.5" d="M0,-3.0v7 M-2.5,-0.5L0,-3.0L2.5,-0.5"/>
  </g>
  <g id="arrowLeft" transform="rotate(270) translate(-36 17)">
    <use xlink:href="#rim"/>
    <path pointer-events="none" fill="none" stroke="white" stroke-width="1.5" d="M0,-3.0v7 M-2.5,-0.5L0,-3.0L2.5,-0.5"/>
  </g>
  <g id="resetDef">
    <use xlink:href="#rim2" fill="#404040"><set attributeName="fill" to="#808080" begin="reset.mouseover" end="reset.mouseout"/></use>
  </g>
</defs>
<script type="application/ecmascript">
var viewWidth = 676;
var viewHeight = 196;
var sectionId = 'dynsection-0';
</script>
<script type="application/ecmascript" xlink:href="svg.min.js"/>
<svg id="graph" class="graph">
<g id="viewport">
<title>include/GameEntity.hpp</title>
<!-- Node1 -->
<g id="Node000001" class="node">
<title>Node1</title>
<g id="a_Node000001"><a xlink:title=" ">
<polygon fill="#999999" stroke="#666666" points="446.57,-188 326.32,-188 326.32,-168 446.57,-168 446.57,-188"/>
<text text-anchor="middle" x="386.44" y="-174.5" font-family="Helvetica,sans-Serif" font-size="10.00">include/GameEntity.hpp</text>
</a>
</g>
</g>
<!-- Node2 -->
<g id="Node000002" class="node">
<title>Node2</title>
<g id="a_Node000002"><a xlink:title=" ">
<polygon fill="#e0e0e0" stroke="#999999" points="150.44,-20 80.44,-20 80.44,0 150.44,0 150.44,-20"/>
<text text-anchor="middle" x="115.44" y="-6.5" font-family="Helvetica,sans-Serif" font-size="10.00">SDL3/SDL.h</text>
</a>
</g>
</g>
<!-- Node1&#45;&gt;Node2 -->
<g id="edge1_Node000001_Node000002" class="edge">
<title>Node1&#45;&gt;Node2</title>
<g id="a_edge1_Node000001_Node000002"><a xlink:title=" ">
<path fill="none" stroke="#63b8ff" d="M325.94,-174.11C224.72,-168.65 30.06,-155.23 9.44,-132 -24.4,-93.88 43.91,-48.6 85.9,-25.76"/>
<polygon fill="#63b8ff" stroke="#63b8ff" points="87.39,-28.93 94.59,-21.16 84.12,-22.74 87.39,-28.93"/>
</a>
</g>
</g>
<!-- Node3 -->
<g id="Node000003" class="node">
<title>Node3</title>
<g id="a_Node000003"><a xlink:title=" ">
<polygon fill="#e0e0e0" stroke="#999999" points="319.07,-20 267.82,-20 267.82,0 319.07,0 319.07,-20"/>
<text text-anchor="middle" x="293.44" y="-6.5" font-family="Helvetica,sans-Serif" font-size="10.00">memory</text>
</a>
</g>
</g>
<!-- Node1&#45;&gt;Node3 -->
<g id="edge2_Node000001_Node000003" class="edge">
<title>Node1&#45;&gt;Node3</title>
<g id="a_edge2_Node000001_Node000003"><a xlink:title=" ">
<path fill="none" stroke="#63b8ff" d="M431.93,-167.53C465.28,-158.08 502.62,-140.74 489.44,-112 461.37,-50.76 379.27,-25.99 330.69,-16.48"/>
<polygon fill="#63b8ff" stroke="#63b8ff" points="331.36,-13.05 320.89,-14.7 330.1,-19.94 331.36,-13.05"/>
</a>
</g>
</g>
<!-- Node4 -->
<g id="Node000004" class="node">
<title>Node4</title>
<g id="a_Node000004"><a xlink:title=" ">
<polygon fill="#e0e0e0" stroke="#999999" points="608.82,-132 574.07,-132 574.07,-112 608.82,-112 608.82,-132"/>
<text text-anchor="middle" x="591.44" y="-118.5" font-family="Helvetica,sans-Serif" font-size="10.00">map</text>
</a>
</g>
</g>
<!-- Node1&#45;&gt;Node4 -->
<g id="edge3_Node000001_Node000004" class="edge">
<title>Node1&#45;&gt;Node4</title>
<g id="a_edge3_Node000001_Node000004"><a xlink:title=" ">
<path fill="none" stroke="#63b8ff" d="M424.2,-167.58C459.51,-158.68 513.65,-144.84 560.44,-132 561.25,-131.78 562.08,-131.55 562.9,-131.32"/>
<polygon fill="#63b8ff" stroke="#63b8ff" points="563.65,-134.75 572.31,-128.64 561.73,-128.01 563.65,-134.75"/>
</a>
</g>
</g>
<!-- Node5 -->
<g id="Node000005" class="node">
<title>Node5</title>
<g id="a_Node000005"><a xlink:title=" ">
<polygon fill="#e0e0e0" stroke="#999999" points="668.19,-132 626.69,-132 626.69,-112 668.19,-112 668.19,-132"/>
<text text-anchor="middle" x="647.44" y="-118.5" font-family="Helvetica,sans-Serif" font-size="10.00">vector</text>
</a>
</g>
</g>
<!-- Node1&#45;&gt;Node5 -->
<g id="edge4_Node000001_Node000005" class="edge">
<title>Node1&#45;&gt;Node5</title>
<g id="a_edge4_Node000001_Node000005"><a xlink:title=" ">
<path fill="none" stroke="#63b8ff" d="M443.27,-167.55C487.67,-159.8 551.13,-147.92 615.1,-132.39"/>
<polygon fill="#63b8ff" stroke="#63b8ff" points="615.87,-135.8 624.74,-130.02 614.19,-129.01 615.87,-135.8"/>
</a>
</g>
</g>
<!-- Node6 -->
<g id="Node000006" class="node">
<title>Node6</title>
<g id="a_Node000006"><a xlink:title=" ">
<polygon fill="#e0e0e0" stroke="#999999" points="361.44,-76 321.44,-76 321.44,-56 361.44,-56 361.44,-76"/>
<text text-anchor="middle" x="341.44" y="-62.5" font-family="Helvetica,sans-Serif" font-size="10.00">string</text>
</a>
</g>
</g>
<!-- Node1&#45;&gt;Node6 -->
<g id="edge5_Node000001_Node000006" class="edge">
<title>Node1&#45;&gt;Node6</title>
<g id="a_edge5_Node000001_Node000006"><a xlink:title=" ">
<path fill="none" stroke="#63b8ff" d="M381.87,-167.79C377.46,-158.77 370.69,-144.57 365.44,-132 359.2,-117.04 352.88,-99.82 348.29,-86.86"/>
<polygon fill="#63b8ff" stroke="#63b8ff" points="351.72,-86.07 345.12,-77.78 345.12,-88.37 351.72,-86.07"/>
</a>
</g>
</g>
<!-- Node7 -->
<g id="Node000007" class="node">
<title>Node7</title>
<g id="a_Node000007"><a xlink:href="_component_type_8hpp.html" target="_top" xlink:title=" ">
<polygon fill="white" stroke="#666666" points="520.07,-20 414.82,-20 414.82,0 520.07,0 520.07,-20"/>
<text text-anchor="middle" x="467.44" y="-6.5" font-family="Helvetica,sans-Serif" font-size="10.00">ComponentType.hpp</text>
</a>
</g>
</g>
<!-- Node1&#45;&gt;Node7 -->
<g id="edge6_Node000001_Node000007" class="edge">
<title>Node1&#45;&gt;Node7</title>
<g id="a_edge6_Node000001_Node000007"><a xlink:title=" ">
<path fill="none" stroke="#63b8ff" d="M447.06,-172.67C474.76,-167.3 505.18,-155.89 522.44,-132 542.22,-104.62 536.91,-86.52 522.44,-56 516.7,-43.88 505.91,-33.94 495.41,-26.51"/>
<polygon fill="#63b8ff" stroke="#63b8ff" points="497.55,-23.73 487.26,-21.23 493.74,-29.6 497.55,-23.73"/>
</a>
</g>
</g>
<!-- Node8 -->
<g id="Node000008" class="node">
<title>Node8</title>
<g id="a_Node000008"><a xlink:href="_component_8hpp.html" target="_top" xlink:title=" ">
<polygon fill="white" stroke="#666666" points="265.57,-76 181.32,-76 181.32,-56 265.57,-56 265.57,-76"/>
<text text-anchor="middle" x="223.44" y="-62.5" font-family="Helvetica,sans-Serif" font-size="10.00">Component.hpp</text>
</a>
</g>
</g>
<!-- Node1&#45;&gt;Node8 -->
<g id="edge7_Node000001_Node000008" class="edge">
<title>Node1&#45;&gt;Node8</title>
<g id="a_edge7_Node000001_Node000008"><a xlink:title=" ">
<path fill="none" stroke="#63b8ff" d="M325.97,-171.99C272.18,-166.13 199.34,-154.25 181.44,-132 168.87,-116.36 185.26,-96.85 201.1,-83.3"/>
<polygon fill="#63b8ff" stroke="#63b8ff" points="202.85,-86.38 208.47,-77.4 198.48,-80.92 202.85,-86.38"/>
</a>
</g>
</g>
<!-- Node9 -->
<g id="Node000009" class="node">
<title>Node9</title>
<g id="a_Node000009"><a xlink:href="_texture_component_8hpp.html" target="_top" xlink:title=" ">
<polygon fill="white" stroke="#666666" points="134.69,-132 18.19,-132 18.19,-112 134.69,-112 134.69,-132"/>
<text text-anchor="middle" x="76.44" y="-118.5" font-family="Helvetica,sans-Serif" font-size="10.00">TextureComponent.hpp</text>
</a>
</g>
</g>
<!-- Node1&#45;&gt;Node9 -->
<g id="edge11_Node000001_Node000009" class="edge">
<title>Node1&#45;&gt;Node9</title>
<g id="a_edge11_Node000001_Node000009"><a xlink:title=" ">
<path fill="none" stroke="#63b8ff" d="M332.09,-167.53C279.13,-158.31 198.55,-144.27 142.05,-134.43"/>
<polygon fill="#63b8ff" stroke="#63b8ff" points="142.68,-130.98 132.22,-132.72 141.47,-137.88 142.68,-130.98"/>
</a>
</g>
</g>
<!-- Node10 -->
<g id="Node000010" class="node">
<title>Node10</title>
<g id="a_Node000010"><a xlink:href="_transform_component_8hpp.html" target="_top" xlink:title=" ">
<polygon fill="white" stroke="#666666" points="317.94,-132 190.94,-132 190.94,-112 317.94,-112 317.94,-132"/>
<text text-anchor="middle" x="254.44" y="-118.5" font-family="Helvetica,sans-Serif" font-size="10.00">TransformComponent.hpp</text>
</a>
</g>
</g>
<!-- Node1&#45;&gt;Node10 -->
<g id="edge16_Node000001_Node000010" class="edge">
<title>Node1&#45;&gt;Node10</title>
<g id="a_edge16_Node000001_Node000010"><a xlink:title=" ">
<path fill="none" stroke="#63b8ff" d="M363.45,-167.59C342.66,-159.09 311.79,-146.46 288.2,-136.81"/>
<polygon fill="#63b8ff" stroke="#63b8ff" points="289.6,-133.6 279.02,-133.05 286.95,-140.08 289.6,-133.6"/>
</a>
</g>
</g>
<!-- Node11 -->
<g id="Node000011" class="node">
<title>Node11</title>
<g id="a_Node000011"><a xlink:href="_input_component_8hpp.html" target="_top" xlink:title=" ">
<polygon fill="white" stroke="#666666" points="480.07,-132 374.82,-132 374.82,-112 480.07,-112 480.07,-132"/>
<text text-anchor="middle" x="427.44" y="-118.5" font-family="Helvetica,sans-Serif" font-size="10.00">InputComponent.hpp</text>
</a>
</g>
</g>
<!-- Node1&#45;&gt;Node11 -->
<g id="edge21_Node000001_Node000011" class="edge">
<title>Node1&#45;&gt;Node11</title>
<g id="a_edge21_Node000001_Node000011"><a xlink:title=" ">
<path fill="none" stroke="#63b8ff" d="M393.58,-167.59C399.05,-160.39 406.76,-150.23 413.45,-141.43"/>
<polygon fill="#63b8ff" stroke="#63b8ff" points="416.21,-143.58 419.47,-133.5 410.63,-139.35 416.21,-143.58"/>
</a>
</g>
</g>
<!-- Node8&#45;&gt;Node2 -->
<g id="edge8_Node000008_Node000002" class="edge">
<title>Node8&#45;&gt;Node2</title>
<g id="a_edge8_Node000008_Node000002"><a xlink:title=" ">
<path fill="none" stroke="#63b8ff" d="M204.63,-55.59C188.08,-47.32 163.73,-35.14 144.65,-25.6"/>
<polygon fill="#63b8ff" stroke="#63b8ff" points="146.26,-22.5 135.76,-21.16 143.13,-28.76 146.26,-22.5"/>
</a>
</g>
</g>
<!-- Node8&#45;&gt;Node3 -->
<g id="edge9_Node000008_Node000003" class="edge">
<title>Node8&#45;&gt;Node3</title>
<g id="a_edge9_Node000008_Node000003"><a xlink:title=" ">
<path fill="none" stroke="#63b8ff" d="M235.64,-55.59C245.77,-47.77 260.43,-36.46 272.45,-27.19"/>
<polygon fill="#63b8ff" stroke="#63b8ff" points="274.41,-30.1 280.19,-21.22 270.14,-24.56 274.41,-30.1"/>
</a>
</g>
</g>
<!-- Node8&#45;&gt;Node7 -->
<g id="edge10_Node000008_Node000007" class="edge">
<title>Node8&#45;&gt;Node7</title>
<g id="a_edge10_Node000008_Node000007"><a xlink:title=" ">
<path fill="none" stroke="#63b8ff" d="M265.94,-55.59C306.89,-46.53 369,-32.79 413.43,-22.95"/>
<polygon fill="#63b8ff" stroke="#63b8ff" points="414.12,-26.38 423.13,-20.81 412.61,-19.55 414.12,-26.38"/>
</a>
</g>
</g>
<!-- Node9&#45;&gt;Node2 -->
<g id="edge12_Node000009_Node000002" class="edge">
<title>Node9&#45;&gt;Node2</title>
<g id="a_edge12_Node000009_Node000002"><a xlink:title=" ">
<path fill="none" stroke="#63b8ff" d="M79.77,-111.62C86.07,-93.84 99.88,-54.88 108.35,-31"/>
<polygon fill="#63b8ff" stroke="#63b8ff" points="111.58,-32.38 111.62,-21.78 104.98,-30.04 111.58,-32.38"/>
</a>
</g>
</g>
<!-- Node9&#45;&gt;Node3 -->
<g id="edge13_Node000009_Node000003" class="edge">
<title>Node9&#45;&gt;Node3</title>
<g id="a_edge13_Node000009_Node000003"><a xlink:title=" ">
<path fill="none" stroke="#63b8ff" d="M88.29,-111.6C105.86,-97.98 140.23,-72.59 172.44,-56 199.74,-41.94 232.48,-30.04 257.02,-22.01"/>
<polygon fill="#63b8ff" stroke="#63b8ff" points="257.76,-25.45 266.22,-19.07 255.63,-18.78 257.76,-25.45"/>
</a>
</g>
</g>
<!-- Node9&#45;&gt;Node6 -->
<g id="edge14_Node000009_Node000006" class="edge">
<title>Node9&#45;&gt;Node6</title>
<g id="a_edge14_Node000009_Node000006"><a xlink:title=" ">
<path fill="none" stroke="#63b8ff" d="M122.91,-111.53C176.57,-100.6 263.41,-82.9 309.82,-73.44"/>
<polygon fill="#63b8ff" stroke="#63b8ff" points="310.39,-76.9 319.49,-71.47 308.99,-70.04 310.39,-76.9"/>
</a>
</g>
</g>
<!-- Node9&#45;&gt;Node8 -->
<g id="edge15_Node000009_Node000008" class="edge">
<title>Node9&#45;&gt;Node8</title>
<g id="a_edge15_Node000009_Node000008"><a xlink:title=" ">
<path fill="none" stroke="#63b8ff" d="M102.05,-111.59C125.51,-102.97 160.51,-90.12 186.91,-80.42"/>
<polygon fill="#63b8ff" stroke="#63b8ff" points="188.04,-83.73 196.22,-77 185.62,-77.16 188.04,-83.73"/>
</a>
</g>
</g>
<!-- Node10&#45;&gt;Node2 -->
<g id="edge17_Node000010_Node000002" class="edge">
<title>Node10&#45;&gt;Node2</title>
<g id="a_edge17_Node000010_Node000002"><a xlink:title=" ">
<path fill="none" stroke="#63b8ff" d="M232.63,-111.6C215.33,-103.56 191.06,-90.94 172.44,-76 155.49,-62.39 139.47,-43.37 128.76,-29.42"/>
<polygon fill="#63b8ff" stroke="#63b8ff" points="131.65,-27.45 122.87,-21.53 126.04,-31.63 131.65,-27.45"/>
</a>
</g>
</g>
<!-- Node10&#45;&gt;Node3 -->
<g id="edge18_Node000010_Node000003" class="edge">
<title>Node10&#45;&gt;Node3</title>
<g id="a_edge18_Node000010_Node000003"><a xlink:title=" ">
<path fill="none" stroke="#63b8ff" d="M258.95,-111.84C263.27,-102.85 269.79,-88.68 274.44,-76 279.84,-61.28 284.77,-44.25 288.26,-31.32"/>
<polygon fill="#63b8ff" stroke="#63b8ff" points="291.59,-32.41 290.74,-21.85 284.82,-30.63 291.59,-32.41"/>
</a>
</g>
</g>
<!-- Node10&#45;&gt;Node6 -->
<g id="edge19_Node000010_Node000006" class="edge">
<title>Node10&#45;&gt;Node6</title>
<g id="a_edge19_Node000010_Node000006"><a xlink:title=" ">
<path fill="none" stroke="#63b8ff" d="M269.6,-111.59C282.49,-103.59 301.27,-91.93 316.4,-82.54"/>
<polygon fill="#63b8ff" stroke="#63b8ff" points="318.23,-85.53 324.88,-77.28 314.54,-79.58 318.23,-85.53"/>
</a>
</g>
</g>
<!-- Node10&#45;&gt;Node8 -->
<g id="edge20_Node000010_Node000008" class="edge">
<title>Node10&#45;&gt;Node8</title>
<g id="a_edge20_Node000010_Node000008"><a xlink:title=" ">
<path fill="none" stroke="#63b8ff" d="M249.04,-111.59C245,-104.55 239.33,-94.67 234.35,-86"/>
<polygon fill="#63b8ff" stroke="#63b8ff" points="237.55,-84.54 229.53,-77.61 231.48,-88.03 237.55,-84.54"/>
</a>
</g>
</g>
<!-- Node11&#45;&gt;Node2 -->
<g id="edge22_Node000011_Node000002" class="edge">
<title>Node11&#45;&gt;Node2</title>
<g id="a_edge22_Node000011_Node000002"><a xlink:title=" ">
<path fill="none" stroke="#63b8ff" d="M422.16,-111.68C413.43,-97.2 394.51,-69.55 370.44,-56 335.5,-36.33 225.43,-22.22 161.9,-15.48"/>
<polygon fill="#63b8ff" stroke="#63b8ff" points="162.42,-12.01 152.12,-14.46 161.7,-18.97 162.42,-12.01"/>
</a>
</g>
</g>
<!-- Node11&#45;&gt;Node3 -->
<g id="edge23_Node000011_Node000003" class="edge">
<title>Node11&#45;&gt;Node3</title>
<g id="a_edge23_Node000011_Node000003"><a xlink:title=" ">
<path fill="none" stroke="#63b8ff" d="M426.4,-111.79C424.37,-97.96 418.65,-71.75 403.44,-56 383.98,-35.85 354.22,-24.42 330.56,-18.12"/>
<polygon fill="#63b8ff" stroke="#63b8ff" points="331.52,-14.75 320.97,-15.78 329.86,-21.55 331.52,-14.75"/>
</a>
</g>
</g>
<!-- Node11&#45;&gt;Node6 -->
<g id="edge24_Node000011_Node000006" class="edge">
<title>Node11&#45;&gt;Node6</title>
<g id="a_edge24_Node000011_Node000006"><a xlink:title=" ">
<path fill="none" stroke="#63b8ff" d="M412.46,-111.59C399.72,-103.59 381.15,-91.93 366.2,-82.54"/>
<polygon fill="#63b8ff" stroke="#63b8ff" points="368.15,-79.64 357.82,-77.28 364.43,-85.57 368.15,-79.64"/>
</a>
</g>
</g>
<!-- Node11&#45;&gt;Node8 -->
<g id="edge25_Node000011_Node000008" class="edge">
<title>Node11&#45;&gt;Node8</title>
<g id="a_edge25_Node000011_Node000008"><a xlink:title=" ">
<path fill="none" stroke="#63b8ff" d="M391.91,-111.59C358.18,-102.67 307.29,-89.19 270.26,-79.39"/>
<polygon fill="#63b8ff" stroke="#63b8ff" points="271.28,-76.04 260.72,-76.87 269.49,-82.81 271.28,-76.04"/>
</a>
</g>
</g>
</g>
</svg>

<g id="navigator" transform="translate(0 0)" fill="#404254">
  <rect fill="#f2f5e9" fill-opacity="0.5" stroke="#606060" stroke-width=".5" x="0" y="0" width="60" height="60"/>
  <use id="zoomplus" xlink:href="#zoomPlus" x="17" y="9" onmousedown="handleZoom(evt,'in')"/>
  <use id="zoomminus" xlink:href="#zoomMin" x="42" y="9" onmousedown="handleZoom(evt,'out')"/>
  <use id="reset" xlink:href="#resetDef" x="30" y="36" onmousedown="handleReset()"/>
   <use id="arrowup" xlink:href="#arrowUp" x="0" y="0" onmousedown="handlePan(0,-1)"/>
  <use id="arrowright" xlink:href="#arrowRight" x="0" y="0" onmousedown="handlePan(1,0)"/>
  <use id="arrowdown" xlink:href="#arrowDown" x="0" y="0" onmousedown="handlePan(0,1)"/>
  <use id="arrowleft" xlink:href="#arrowLeft" x="0" y="0" onmousedown="handlePan(-1,0)"/>
</g>
<svg viewBox="0 0 15 15" width="100%" height="30px" preserveAspectRatio="xMaxYMin meet">
 <g id="arrow_out" transform="scale(0.3 0.3)">
  <a xlink:href="_game_entity_8hpp__incl_org.svg" target="_base">
   <rect id="button" ry="5" rx="5" y="6" x="6" height="38" width="38"
        fill="#f2f5e9" fill-opacity="0.5" stroke="#606060" stroke-width="1.0"/>
   <path id="arrow"
     d="M 11.500037,31.436501 C 11.940474,20.09759 22.043105,11.32322 32.158766,21.979434 L 37.068811,17.246167 C 37.068811,17.246167 37.088388,32 37.088388,32 L 22.160133,31.978069 C 22.160133,31.978069 26.997745,27.140456 26.997745,27.140456 C 18.528582,18.264221 13.291696,25.230495 11.500037,31.436501 z"
     style="fill:#404040;"/>
  </a>
 </g>
</svg>

<style type='text/css'>
<![CDATA[
[data-mouse-over-selected='false'] { opacity: 0.7; }
[data-mouse-over-selected='true']  { opacity: 1.0; }
]]>
</style>
<script type="application/ecmascript"><![CDATA[
document.addEventListener('DOMContentLoaded', (event) => {
  highlightEdges();
  highlightAdjacentNodes();
});
]]></script>
</svg>
