<?xml version="1.0" encoding="UTF-8" standalone="no"?>
<!DOCTYPE svg PUBLIC "-//W3C//DTD SVG 1.1//EN"
 "http://www.w3.org/Graphics/SVG/1.1/DTD/svg11.dtd">
<!-- Generated by graphviz version 10.0.1 (20240210.2158)
 -->
<!-- Title: include/GuiHandler.hpp Pages: 1 -->
<svg width="904pt" height="308pt"
 viewBox="0.00 0.00 904.00 308.00" xmlns="http://www.w3.org/2000/svg" xmlns:xlink="http://www.w3.org/1999/xlink">
<g id="graph0" class="graph" transform="scale(1 1) rotate(0) translate(4 304)">
<title>include/GuiHandler.hpp</title>
<!-- Node1 -->
<g id="Node000001" class="node">
<title>Node1</title>
<g id="a_Node000001"><a xlink:title=" ">
<polygon fill="#999999" stroke="#666666" points="457.25,-300 340.75,-300 340.75,-280 457.25,-280 457.25,-300"/>
<text text-anchor="middle" x="399" y="-286.5" font-family="Helvetica,sans-Serif" font-size="10.00">include/GuiHandler.hpp</text>
</a>
</g>
</g>
<!-- Node2 -->
<g id="Node000002" class="node">
<title>Node2</title>
<g id="a_Node000002"><a xlink:title=" ">
<polygon fill="#e0e0e0" stroke="#999999" points="209,-20 139,-20 139,0 209,0 209,-20"/>
<text text-anchor="middle" x="174" y="-6.5" font-family="Helvetica,sans-Serif" font-size="10.00">SDL3/SDL.h</text>
</a>
</g>
</g>
<!-- Node1&#45;&gt;Node2 -->
<g id="edge1_Node000001_Node000002" class="edge">
<title>Node1&#45;&gt;Node2</title>
<g id="a_edge1_Node000001_Node000002"><a xlink:title=" ">
<path fill="none" stroke="#63b8ff" d="M340.55,-285.07C229.73,-276 0,-248.79 0,-179 0,-179 0,-179 0,-121 0,-60.4 76.33,-31.82 127.88,-19.43"/>
<polygon fill="#63b8ff" stroke="#63b8ff" points="128.33,-22.91 137.31,-17.29 126.79,-16.09 128.33,-22.91"/>
</a>
</g>
</g>
<!-- Node3 -->
<g id="Node000003" class="node">
<title>Node3</title>
<g id="a_Node000003"><a xlink:title=" ">
<polygon fill="#e0e0e0" stroke="#999999" points="188.25,-188 143.75,-188 143.75,-168 188.25,-168 188.25,-188"/>
<text text-anchor="middle" x="166" y="-174.5" font-family="Helvetica,sans-Serif" font-size="10.00">cstdlib</text>
</a>
</g>
</g>
<!-- Node1&#45;&gt;Node3 -->
<g id="edge2_Node000001_Node000003" class="edge">
<title>Node1&#45;&gt;Node3</title>
<g id="a_edge2_Node000001_Node000003"><a xlink:title=" ">
<path fill="none" stroke="#63b8ff" d="M377.22,-279.58C356.69,-270.64 325.11,-256.71 298,-244 262.22,-227.23 221.49,-206.99 194.85,-193.6"/>
<polygon fill="#63b8ff" stroke="#63b8ff" points="196.55,-190.54 186.04,-189.17 193.4,-196.79 196.55,-190.54"/>
</a>
</g>
</g>
<!-- Node4 -->
<g id="Node000004" class="node">
<title>Node4</title>
<g id="a_Node000004"><a xlink:title=" ">
<polygon fill="#e0e0e0" stroke="#999999" points="107.75,-132 66.25,-132 66.25,-112 107.75,-112 107.75,-132"/>
<text text-anchor="middle" x="87" y="-118.5" font-family="Helvetica,sans-Serif" font-size="10.00">vector</text>
</a>
</g>
</g>
<!-- Node1&#45;&gt;Node4 -->
<g id="edge3_Node000001_Node000004" class="edge">
<title>Node1&#45;&gt;Node4</title>
<g id="a_edge3_Node000001_Node000004"><a xlink:title=" ">
<path fill="none" stroke="#63b8ff" d="M347.66,-279.55C290.56,-266.89 198.06,-239.76 135,-188 119.27,-175.09 105.96,-155.95 97.37,-141.78"/>
<polygon fill="#63b8ff" stroke="#63b8ff" points="100.57,-140.3 92.52,-133.4 94.51,-143.81 100.57,-140.3"/>
</a>
</g>
</g>
<!-- Node5 -->
<g id="Node000005" class="node">
<title>Node5</title>
<g id="a_Node000005"><a xlink:title=" ">
<polygon fill="#e0e0e0" stroke="#999999" points="650.62,-20 599.38,-20 599.38,0 650.62,0 650.62,-20"/>
<text text-anchor="middle" x="625" y="-6.5" font-family="Helvetica,sans-Serif" font-size="10.00">memory</text>
</a>
</g>
</g>
<!-- Node1&#45;&gt;Node5 -->
<g id="edge4_Node000001_Node000005" class="edge">
<title>Node1&#45;&gt;Node5</title>
<g id="a_edge4_Node000001_Node000005"><a xlink:title=" ">
<path fill="none" stroke="#63b8ff" d="M457.47,-288.26C588.85,-285.02 896,-267.93 896,-179 896,-179 896,-179 896,-121 896,-71.11 736.35,-33 662.13,-17.98"/>
<polygon fill="#63b8ff" stroke="#63b8ff" points="662.96,-14.58 652.47,-16.07 661.6,-21.45 662.96,-14.58"/>
</a>
</g>
</g>
<!-- Node6 -->
<g id="Node000006" class="node">
<title>Node6</title>
<g id="a_Node000006"><a xlink:title=" ">
<polygon fill="#e0e0e0" stroke="#999999" points="261.88,-188 206.12,-188 206.12,-168 261.88,-168 261.88,-188"/>
<text text-anchor="middle" x="234" y="-174.5" font-family="Helvetica,sans-Serif" font-size="10.00">algorithm</text>
</a>
</g>
</g>
<!-- Node1&#45;&gt;Node6 -->
<g id="edge5_Node000001_Node000006" class="edge">
<title>Node1&#45;&gt;Node6</title>
<g id="a_edge5_Node000001_Node000006"><a xlink:title=" ">
<path fill="none" stroke="#63b8ff" d="M384.93,-279.62C356.56,-260.71 292.22,-217.82 257.41,-194.61"/>
<polygon fill="#63b8ff" stroke="#63b8ff" points="259.55,-191.83 249.29,-189.19 255.67,-197.65 259.55,-191.83"/>
</a>
</g>
</g>
<!-- Node7 -->
<g id="Node000007" class="node">
<title>Node7</title>
<g id="a_Node000007"><a xlink:title=" ">
<polygon fill="#e0e0e0" stroke="#999999" points="763.75,-188 710.25,-188 710.25,-168 763.75,-168 763.75,-188"/>
<text text-anchor="middle" x="737" y="-174.5" font-family="Helvetica,sans-Serif" font-size="10.00">iostream</text>
</a>
</g>
</g>
<!-- Node1&#45;&gt;Node7 -->
<g id="edge6_Node000001_Node000007" class="edge">
<title>Node1&#45;&gt;Node7</title>
<g id="a_edge6_Node000001_Node000007"><a xlink:title=" ">
<path fill="none" stroke="#63b8ff" d="M428.11,-279.53C489.39,-259.58 631.63,-213.29 699.57,-191.18"/>
<polygon fill="#63b8ff" stroke="#63b8ff" points="700.34,-194.61 708.76,-188.19 698.17,-187.96 700.34,-194.61"/>
</a>
</g>
</g>
<!-- Node8 -->
<g id="Node000008" class="node">
<title>Node8</title>
<g id="a_Node000008"><a xlink:title=" ">
<polygon fill="#e0e0e0" stroke="#999999" points="830.12,-188 781.88,-188 781.88,-168 830.12,-168 830.12,-188"/>
<text text-anchor="middle" x="806" y="-174.5" font-family="Helvetica,sans-Serif" font-size="10.00">fstream</text>
</a>
</g>
</g>
<!-- Node1&#45;&gt;Node8 -->
<g id="edge7_Node000001_Node000008" class="edge">
<title>Node1&#45;&gt;Node8</title>
<g id="a_edge7_Node000001_Node000008"><a xlink:title=" ">
<path fill="none" stroke="#63b8ff" d="M440.06,-279.5C477.43,-270.73 534.08,-257.1 583,-244 649.69,-226.14 726.91,-203.09 770.76,-189.79"/>
<polygon fill="#63b8ff" stroke="#63b8ff" points="771.68,-193.17 780.23,-186.91 769.65,-186.47 771.68,-193.17"/>
</a>
</g>
</g>
<!-- Node9 -->
<g id="Node000009" class="node">
<title>Node9</title>
<g id="a_Node000009"><a xlink:title=" ">
<polygon fill="#e0e0e0" stroke="#999999" points="710,-76 670,-76 670,-56 710,-56 710,-76"/>
<text text-anchor="middle" x="690" y="-62.5" font-family="Helvetica,sans-Serif" font-size="10.00">string</text>
</a>
</g>
</g>
<!-- Node1&#45;&gt;Node9 -->
<g id="edge8_Node000001_Node000009" class="edge">
<title>Node1&#45;&gt;Node9</title>
<g id="a_edge8_Node000001_Node000009"><a xlink:title=" ">
<path fill="none" stroke="#63b8ff" d="M457.47,-284.57C566.27,-274.95 792.99,-248.03 839,-188 877.79,-137.38 775.31,-94.82 721.1,-76.56"/>
<polygon fill="#63b8ff" stroke="#63b8ff" points="722.36,-73.29 711.77,-73.51 720.19,-79.94 722.36,-73.29"/>
</a>
</g>
</g>
<!-- Node10 -->
<g id="Node000010" class="node">
<title>Node10</title>
<g id="a_Node000010"><a xlink:href="_scene_8hpp.html" target="_top" xlink:title=" ">
<polygon fill="white" stroke="#666666" points="430.25,-244 367.75,-244 367.75,-224 430.25,-224 430.25,-244"/>
<text text-anchor="middle" x="399" y="-230.5" font-family="Helvetica,sans-Serif" font-size="10.00">Scene.hpp</text>
</a>
</g>
</g>
<!-- Node1&#45;&gt;Node10 -->
<g id="edge9_Node000001_Node000010" class="edge">
<title>Node1&#45;&gt;Node10</title>
<g id="a_edge9_Node000001_Node000010"><a xlink:title=" ">
<path fill="none" stroke="#63b8ff" d="M399,-279.59C399,-273.01 399,-263.96 399,-255.73"/>
<polygon fill="#63b8ff" stroke="#63b8ff" points="402.5,-255.81 399,-245.81 395.5,-255.81 402.5,-255.81"/>
</a>
</g>
</g>
<!-- Node10&#45;&gt;Node2 -->
<g id="edge10_Node000010_Node000002" class="edge">
<title>Node10&#45;&gt;Node2</title>
<g id="a_edge10_Node000010_Node000002"><a xlink:title=" ">
<path fill="none" stroke="#63b8ff" d="M377.56,-223.6C358.1,-214.9 328.75,-201.32 304,-188 288.9,-179.87 287.08,-173.97 271,-168 180.59,-134.41 119.29,-205.64 57,-132 22.67,-91.41 96.21,-47.41 141.65,-25.34"/>
<polygon fill="#63b8ff" stroke="#63b8ff" points="143.05,-28.55 150.6,-21.11 140.06,-22.22 143.05,-28.55"/>
</a>
</g>
</g>
<!-- Node10&#45;&gt;Node3 -->
<g id="edge11_Node000010_Node000003" class="edge">
<title>Node10&#45;&gt;Node3</title>
<g id="a_edge11_Node000010_Node000003"><a xlink:title=" ">
<path fill="none" stroke="#63b8ff" d="M367.36,-226.6C329.58,-218.81 264.23,-204.91 199.45,-188.51"/>
<polygon fill="#63b8ff" stroke="#63b8ff" points="200.66,-185.21 190.11,-186.13 198.93,-191.99 200.66,-185.21"/>
</a>
</g>
</g>
<!-- Node10&#45;&gt;Node4 -->
<g id="edge12_Node000010_Node000004" class="edge">
<title>Node10&#45;&gt;Node4</title>
<g id="a_edge12_Node000010_Node000004"><a xlink:title=" ">
<path fill="none" stroke="#63b8ff" d="M388.46,-223.61C371.77,-209.29 337.72,-182.16 304,-168 227.98,-136.07 202.41,-150.27 122,-132 121.01,-131.77 120,-131.54 118.99,-131.3"/>
<polygon fill="#63b8ff" stroke="#63b8ff" points="120.07,-127.96 109.52,-128.98 118.4,-134.76 120.07,-127.96"/>
</a>
</g>
</g>
<!-- Node10&#45;&gt;Node5 -->
<g id="edge13_Node000010_Node000005" class="edge">
<title>Node10&#45;&gt;Node5</title>
<g id="a_edge13_Node000010_Node000005"><a xlink:title=" ">
<path fill="none" stroke="#63b8ff" d="M430.44,-230.76C476.97,-226.63 566.28,-215.57 637,-188 680.89,-170.89 700.58,-171 727,-132 746.11,-103.79 756.08,-84.23 737,-56 720.41,-31.46 688,-20.3 662.29,-15.23"/>
<polygon fill="#63b8ff" stroke="#63b8ff" points="662.97,-11.79 652.52,-13.55 661.79,-18.69 662.97,-11.79"/>
</a>
</g>
</g>
<!-- Node10&#45;&gt;Node6 -->
<g id="edge14_Node000010_Node000006" class="edge">
<title>Node10&#45;&gt;Node6</title>
<g id="a_edge14_Node000010_Node000006"><a xlink:title=" ">
<path fill="none" stroke="#63b8ff" d="M370.26,-223.59C343.32,-214.78 302.85,-201.53 273,-191.76"/>
<polygon fill="#63b8ff" stroke="#63b8ff" points="274.17,-188.46 263.57,-188.68 271.99,-195.12 274.17,-188.46"/>
</a>
</g>
</g>
<!-- Node10&#45;&gt;Node7 -->
<g id="edge16_Node000010_Node000007" class="edge">
<title>Node10&#45;&gt;Node7</title>
<g id="a_edge16_Node000010_Node000007"><a xlink:title=" ">
<path fill="none" stroke="#63b8ff" d="M430.33,-228.94C484.61,-221.76 599.6,-205.86 696,-188 697,-187.81 698.02,-187.62 699.04,-187.42"/>
<polygon fill="#63b8ff" stroke="#63b8ff" points="699.56,-190.89 708.66,-185.46 698.16,-184.03 699.56,-190.89"/>
</a>
</g>
</g>
<!-- Node10&#45;&gt;Node8 -->
<g id="edge17_Node000010_Node000008" class="edge">
<title>Node10&#45;&gt;Node8</title>
<g id="a_edge17_Node000010_Node000008"><a xlink:title=" ">
<path fill="none" stroke="#63b8ff" d="M430.27,-230.79C493.03,-226.04 638.93,-213.31 770.52,-188.23"/>
<polygon fill="#63b8ff" stroke="#63b8ff" points="770.95,-191.71 780.1,-186.37 769.62,-184.84 770.95,-191.71"/>
</a>
</g>
</g>
<!-- Node10&#45;&gt;Node9 -->
<g id="edge15_Node000010_Node000009" class="edge">
<title>Node10&#45;&gt;Node9</title>
<g id="a_edge15_Node000010_Node000009"><a xlink:title=" ">
<path fill="none" stroke="#63b8ff" d="M430.74,-227.33C502.21,-213.84 672.06,-177.56 705,-132 714.64,-118.67 708.96,-100.12 702,-86.25"/>
<polygon fill="#63b8ff" stroke="#63b8ff" points="705.11,-84.63 697.15,-77.64 699.01,-88.07 705.11,-84.63"/>
</a>
</g>
</g>
<!-- Node11 -->
<g id="Node000011" class="node">
<title>Node11</title>
<g id="a_Node000011"><a xlink:href="_game_entity_8hpp.html" target="_top" xlink:title=" ">
<polygon fill="white" stroke="#666666" points="442.25,-188 355.75,-188 355.75,-168 442.25,-168 442.25,-188"/>
<text text-anchor="middle" x="399" y="-174.5" font-family="Helvetica,sans-Serif" font-size="10.00">GameEntity.hpp</text>
</a>
</g>
</g>
<!-- Node10&#45;&gt;Node11 -->
<g id="edge18_Node000010_Node000011" class="edge">
<title>Node10&#45;&gt;Node11</title>
<g id="a_edge18_Node000010_Node000011"><a xlink:title=" ">
<path fill="none" stroke="#63b8ff" d="M399,-223.59C399,-217.01 399,-207.96 399,-199.73"/>
<polygon fill="#63b8ff" stroke="#63b8ff" points="402.5,-199.81 399,-189.81 395.5,-199.81 402.5,-199.81"/>
</a>
</g>
</g>
<!-- Node11&#45;&gt;Node2 -->
<g id="edge19_Node000011_Node000002" class="edge">
<title>Node11&#45;&gt;Node2</title>
<g id="a_edge19_Node000011_Node000002"><a xlink:title=" ">
<path fill="none" stroke="#63b8ff" d="M355.3,-169.38C293.33,-158.37 186.72,-138.62 181,-132 156.89,-104.1 162.51,-57.69 168.45,-31.19"/>
<polygon fill="#63b8ff" stroke="#63b8ff" points="171.79,-32.27 170.82,-21.72 165,-30.58 171.79,-32.27"/>
</a>
</g>
</g>
<!-- Node11&#45;&gt;Node4 -->
<g id="edge22_Node000011_Node000004" class="edge">
<title>Node11&#45;&gt;Node4</title>
<g id="a_edge22_Node000011_Node000004"><a xlink:title=" ">
<path fill="none" stroke="#63b8ff" d="M355.52,-170.04C280.42,-158.01 133.33,-134.37 122,-132 121.01,-131.79 120,-131.57 118.98,-131.35"/>
<polygon fill="#63b8ff" stroke="#63b8ff" points="120.04,-128 109.5,-129.09 118.41,-134.81 120.04,-128"/>
</a>
</g>
</g>
<!-- Node11&#45;&gt;Node5 -->
<g id="edge20_Node000011_Node000005" class="edge">
<title>Node11&#45;&gt;Node5</title>
<g id="a_edge20_Node000011_Node000005"><a xlink:title=" ">
<path fill="none" stroke="#63b8ff" d="M442.58,-176.38C517.74,-174.4 667.29,-166.15 705,-132 730.46,-108.94 737.31,-85.06 719,-56 706.47,-36.11 682.44,-24.82 661.82,-18.52"/>
<polygon fill="#63b8ff" stroke="#63b8ff" points="662.83,-15.17 652.26,-15.91 660.99,-21.92 662.83,-15.17"/>
</a>
</g>
</g>
<!-- Node11&#45;&gt;Node9 -->
<g id="edge23_Node000011_Node000009" class="edge">
<title>Node11&#45;&gt;Node9</title>
<g id="a_edge23_Node000011_Node000009"><a xlink:title=" ">
<path fill="none" stroke="#63b8ff" d="M442.73,-176.65C515.18,-175.06 655.29,-167.37 687,-132 697.62,-120.16 697.46,-101.69 695.18,-87.46"/>
<polygon fill="#63b8ff" stroke="#63b8ff" points="698.63,-86.86 693.15,-77.8 691.78,-88.3 698.63,-86.86"/>
</a>
</g>
</g>
<!-- Node12 -->
<g id="Node000012" class="node">
<title>Node12</title>
<g id="a_Node000012"><a xlink:title=" ">
<polygon fill="#e0e0e0" stroke="#999999" points="236.38,-132 201.62,-132 201.62,-112 236.38,-112 236.38,-132"/>
<text text-anchor="middle" x="219" y="-118.5" font-family="Helvetica,sans-Serif" font-size="10.00">map</text>
</a>
</g>
</g>
<!-- Node11&#45;&gt;Node12 -->
<g id="edge21_Node000011_Node000012" class="edge">
<title>Node11&#45;&gt;Node12</title>
<g id="a_edge21_Node000011_Node000012"><a xlink:title=" ">
<path fill="none" stroke="#63b8ff" d="M365.47,-167.51C336.65,-159.27 293.72,-146.81 247.54,-132.4"/>
<polygon fill="#63b8ff" stroke="#63b8ff" points="248.72,-129.1 238.13,-129.45 246.63,-135.78 248.72,-129.1"/>
</a>
</g>
</g>
<!-- Node13 -->
<g id="Node000013" class="node">
<title>Node13</title>
<g id="a_Node000013"><a xlink:href="_component_type_8hpp.html" target="_top" xlink:title=" ">
<polygon fill="white" stroke="#666666" points="403.62,-20 298.38,-20 298.38,0 403.62,0 403.62,-20"/>
<text text-anchor="middle" x="351" y="-6.5" font-family="Helvetica,sans-Serif" font-size="10.00">ComponentType.hpp</text>
</a>
</g>
</g>
<!-- Node11&#45;&gt;Node13 -->
<g id="edge24_Node000011_Node000013" class="edge">
<title>Node11&#45;&gt;Node13</title>
<g id="a_edge24_Node000011_Node000013"><a xlink:title=" ">
<path fill="none" stroke="#63b8ff" d="M355.64,-170.47C298.28,-161.39 203.19,-144.65 193,-132 154.04,-83.61 247.76,-43.5 306.99,-23.92"/>
<polygon fill="#63b8ff" stroke="#63b8ff" points="307.72,-27.36 316.17,-20.96 305.58,-20.69 307.72,-27.36"/>
</a>
</g>
</g>
<!-- Node14 -->
<g id="Node000014" class="node">
<title>Node14</title>
<g id="a_Node000014"><a xlink:href="_component_8hpp.html" target="_top" xlink:title=" ">
<polygon fill="white" stroke="#666666" points="463.12,-76 378.88,-76 378.88,-56 463.12,-56 463.12,-76"/>
<text text-anchor="middle" x="421" y="-62.5" font-family="Helvetica,sans-Serif" font-size="10.00">Component.hpp</text>
</a>
</g>
</g>
<!-- Node11&#45;&gt;Node14 -->
<g id="edge25_Node000011_Node000014" class="edge">
<title>Node11&#45;&gt;Node14</title>
<g id="a_edge25_Node000011_Node000014"><a xlink:title=" ">
<path fill="none" stroke="#63b8ff" d="M400.88,-167.62C404.42,-149.92 412.15,-111.24 416.94,-87.32"/>
<polygon fill="#63b8ff" stroke="#63b8ff" points="420.3,-88.33 418.83,-77.84 413.44,-86.96 420.3,-88.33"/>
</a>
</g>
</g>
<!-- Node15 -->
<g id="Node000015" class="node">
<title>Node15</title>
<g id="a_Node000015"><a xlink:href="_texture_component_8hpp.html" target="_top" xlink:title=" ">
<polygon fill="white" stroke="#666666" points="371.25,-132 254.75,-132 254.75,-112 371.25,-112 371.25,-132"/>
<text text-anchor="middle" x="313" y="-118.5" font-family="Helvetica,sans-Serif" font-size="10.00">TextureComponent.hpp</text>
</a>
</g>
</g>
<!-- Node11&#45;&gt;Node15 -->
<g id="edge29_Node000011_Node000015" class="edge">
<title>Node11&#45;&gt;Node15</title>
<g id="a_edge29_Node000011_Node000015"><a xlink:title=" ">
<path fill="none" stroke="#63b8ff" d="M384.02,-167.59C371.27,-159.59 352.71,-147.93 337.76,-138.54"/>
<polygon fill="#63b8ff" stroke="#63b8ff" points="339.71,-135.64 329.38,-133.28 335.99,-141.57 339.71,-135.64"/>
</a>
</g>
</g>
<!-- Node16 -->
<g id="Node000016" class="node">
<title>Node16</title>
<g id="a_Node000016"><a xlink:href="_transform_component_8hpp.html" target="_top" xlink:title=" ">
<polygon fill="white" stroke="#666666" points="554.5,-132 427.5,-132 427.5,-112 554.5,-112 554.5,-132"/>
<text text-anchor="middle" x="491" y="-118.5" font-family="Helvetica,sans-Serif" font-size="10.00">TransformComponent.hpp</text>
</a>
</g>
</g>
<!-- Node11&#45;&gt;Node16 -->
<g id="edge34_Node000011_Node000016" class="edge">
<title>Node11&#45;&gt;Node16</title>
<g id="a_edge34_Node000011_Node000016"><a xlink:title=" ">
<path fill="none" stroke="#63b8ff" d="M415.03,-167.59C428.79,-159.51 448.9,-147.71 464.98,-138.27"/>
<polygon fill="#63b8ff" stroke="#63b8ff" points="466.69,-141.33 473.54,-133.25 463.15,-135.29 466.69,-141.33"/>
</a>
</g>
</g>
<!-- Node17 -->
<g id="Node000017" class="node">
<title>Node17</title>
<g id="a_Node000017"><a xlink:href="_input_component_8hpp.html" target="_top" xlink:title=" ">
<polygon fill="white" stroke="#666666" points="677.62,-132 572.38,-132 572.38,-112 677.62,-112 677.62,-132"/>
<text text-anchor="middle" x="625" y="-118.5" font-family="Helvetica,sans-Serif" font-size="10.00">InputComponent.hpp</text>
</a>
</g>
</g>
<!-- Node11&#45;&gt;Node17 -->
<g id="edge39_Node000011_Node000017" class="edge">
<title>Node11&#45;&gt;Node17</title>
<g id="a_edge39_Node000011_Node000017"><a xlink:title=" ">
<path fill="none" stroke="#63b8ff" d="M438.62,-167.53C476.35,-158.52 533.29,-144.91 574.3,-135.11"/>
<polygon fill="#63b8ff" stroke="#63b8ff" points="575.04,-138.54 583.95,-132.81 573.41,-131.73 575.04,-138.54"/>
</a>
</g>
</g>
<!-- Node14&#45;&gt;Node2 -->
<g id="edge26_Node000014_Node000002" class="edge">
<title>Node14&#45;&gt;Node2</title>
<g id="a_edge26_Node000014_Node000002"><a xlink:title=" ">
<path fill="none" stroke="#63b8ff" d="M378.54,-55.72C334.42,-46.07 265.58,-31.02 220.14,-21.09"/>
<polygon fill="#63b8ff" stroke="#63b8ff" points="221.12,-17.72 210.6,-19 219.62,-24.56 221.12,-17.72"/>
</a>
</g>
</g>
<!-- Node14&#45;&gt;Node5 -->
<g id="edge27_Node000014_Node000005" class="edge">
<title>Node14&#45;&gt;Node5</title>
<g id="a_edge27_Node000014_Node000005"><a xlink:title=" ">
<path fill="none" stroke="#63b8ff" d="M456.53,-55.59C493.36,-45.84 550.67,-30.68 588.02,-20.79"/>
<polygon fill="#63b8ff" stroke="#63b8ff" points="588.7,-24.23 597.47,-18.29 586.9,-17.46 588.7,-24.23"/>
</a>
</g>
</g>
<!-- Node14&#45;&gt;Node13 -->
<g id="edge28_Node000014_Node000013" class="edge">
<title>Node14&#45;&gt;Node13</title>
<g id="a_edge28_Node000014_Node000013"><a xlink:title=" ">
<path fill="none" stroke="#63b8ff" d="M408.81,-55.59C398.67,-47.77 384.01,-36.46 371.99,-27.19"/>
<polygon fill="#63b8ff" stroke="#63b8ff" points="374.31,-24.56 364.25,-21.22 370.03,-30.1 374.31,-24.56"/>
</a>
</g>
</g>
<!-- Node15&#45;&gt;Node2 -->
<g id="edge30_Node000015_Node000002" class="edge">
<title>Node15&#45;&gt;Node2</title>
<g id="a_edge30_Node000015_Node000002"><a xlink:title=" ">
<path fill="none" stroke="#63b8ff" d="M301.15,-111.62C277.45,-92.87 223.98,-50.55 194.49,-27.21"/>
<polygon fill="#63b8ff" stroke="#63b8ff" points="197.02,-24.76 187.01,-21.29 192.68,-30.24 197.02,-24.76"/>
</a>
</g>
</g>
<!-- Node15&#45;&gt;Node5 -->
<g id="edge31_Node000015_Node000005" class="edge">
<title>Node15&#45;&gt;Node5</title>
<g id="a_edge31_Node000015_Node000005"><a xlink:title=" ">
<path fill="none" stroke="#63b8ff" d="M318.28,-111.68C327.02,-97.2 345.94,-69.55 370,-56 439.6,-16.82 535.41,-10.35 587.53,-10.06"/>
<polygon fill="#63b8ff" stroke="#63b8ff" points="587.36,-13.55 597.37,-10.08 587.38,-6.55 587.36,-13.55"/>
</a>
</g>
</g>
<!-- Node15&#45;&gt;Node9 -->
<g id="edge32_Node000015_Node000009" class="edge">
<title>Node15&#45;&gt;Node9</title>
<g id="a_edge32_Node000015_Node000009"><a xlink:title=" ">
<path fill="none" stroke="#63b8ff" d="M371.49,-112.62C452.32,-101.04 595.33,-80.56 658.5,-71.51"/>
<polygon fill="#63b8ff" stroke="#63b8ff" points="658.78,-75.01 668.18,-70.13 657.79,-68.08 658.78,-75.01"/>
</a>
</g>
</g>
<!-- Node15&#45;&gt;Node14 -->
<g id="edge33_Node000015_Node000014" class="edge">
<title>Node15&#45;&gt;Node14</title>
<g id="a_edge33_Node000015_Node000014"><a xlink:title=" ">
<path fill="none" stroke="#63b8ff" d="M331.81,-111.59C348.36,-103.32 372.71,-91.14 391.79,-81.6"/>
<polygon fill="#63b8ff" stroke="#63b8ff" points="393.31,-84.76 400.69,-77.16 390.18,-78.5 393.31,-84.76"/>
</a>
</g>
</g>
<!-- Node16&#45;&gt;Node2 -->
<g id="edge35_Node000016_Node000002" class="edge">
<title>Node16&#45;&gt;Node2</title>
<g id="a_edge35_Node000016_Node000002"><a xlink:title=" ">
<path fill="none" stroke="#63b8ff" d="M463.7,-111.53C407.05,-91.87 276.65,-46.62 211.9,-24.15"/>
<polygon fill="#63b8ff" stroke="#63b8ff" points="213.37,-20.96 202.78,-20.99 211.08,-27.57 213.37,-20.96"/>
</a>
</g>
</g>
<!-- Node16&#45;&gt;Node5 -->
<g id="edge36_Node000016_Node000005" class="edge">
<title>Node16&#45;&gt;Node5</title>
<g id="a_edge36_Node000016_Node000005"><a xlink:title=" ">
<path fill="none" stroke="#63b8ff" d="M502.42,-111.62C525.17,-92.95 576.37,-50.92 604.88,-27.52"/>
<polygon fill="#63b8ff" stroke="#63b8ff" points="606.93,-30.37 612.43,-21.32 602.48,-24.95 606.93,-30.37"/>
</a>
</g>
</g>
<!-- Node16&#45;&gt;Node9 -->
<g id="edge37_Node000016_Node000009" class="edge">
<title>Node16&#45;&gt;Node9</title>
<g id="a_edge37_Node000016_Node000009"><a xlink:title=" ">
<path fill="none" stroke="#63b8ff" d="M525.66,-111.59C563.24,-101.4 622.68,-85.27 658.83,-75.46"/>
<polygon fill="#63b8ff" stroke="#63b8ff" points="659.5,-78.9 668.24,-72.91 657.67,-72.15 659.5,-78.9"/>
</a>
</g>
</g>
<!-- Node16&#45;&gt;Node14 -->
<g id="edge38_Node000016_Node000014" class="edge">
<title>Node16&#45;&gt;Node14</title>
<g id="a_edge38_Node000016_Node000014"><a xlink:title=" ">
<path fill="none" stroke="#63b8ff" d="M478.81,-111.59C468.67,-103.77 454.01,-92.46 441.99,-83.19"/>
<polygon fill="#63b8ff" stroke="#63b8ff" points="444.31,-80.56 434.25,-77.22 440.03,-86.1 444.31,-80.56"/>
</a>
</g>
</g>
<!-- Node17&#45;&gt;Node2 -->
<g id="edge40_Node000017_Node000002" class="edge">
<title>Node17&#45;&gt;Node2</title>
<g id="a_edge40_Node000017_Node000002"><a xlink:title=" ">
<path fill="none" stroke="#63b8ff" d="M607.17,-111.67C579.17,-97.42 522.82,-70.38 472,-56 385.15,-31.42 280.04,-19.53 220.71,-14.39"/>
<polygon fill="#63b8ff" stroke="#63b8ff" points="221.24,-10.93 210.98,-13.58 220.66,-17.9 221.24,-10.93"/>
</a>
</g>
</g>
<!-- Node17&#45;&gt;Node5 -->
<g id="edge41_Node000017_Node000005" class="edge">
<title>Node17&#45;&gt;Node5</title>
<g id="a_edge41_Node000017_Node000005"><a xlink:title=" ">
<path fill="none" stroke="#63b8ff" d="M625,-111.62C625,-94.01 625,-55.59 625,-31.65"/>
<polygon fill="#63b8ff" stroke="#63b8ff" points="628.5,-31.87 625,-21.87 621.5,-31.87 628.5,-31.87"/>
</a>
</g>
</g>
<!-- Node17&#45;&gt;Node9 -->
<g id="edge42_Node000017_Node000009" class="edge">
<title>Node17&#45;&gt;Node9</title>
<g id="a_edge42_Node000017_Node000009"><a xlink:title=" ">
<path fill="none" stroke="#63b8ff" d="M636.32,-111.59C645.64,-103.85 659.08,-92.69 670.18,-83.47"/>
<polygon fill="#63b8ff" stroke="#63b8ff" points="672.19,-86.35 677.64,-77.27 667.71,-80.96 672.19,-86.35"/>
</a>
</g>
</g>
<!-- Node17&#45;&gt;Node14 -->
<g id="edge43_Node000017_Node000014" class="edge">
<title>Node17&#45;&gt;Node14</title>
<g id="a_edge43_Node000017_Node000014"><a xlink:title=" ">
<path fill="none" stroke="#63b8ff" d="M589.47,-111.59C555.74,-102.67 504.84,-89.19 467.82,-79.39"/>
<polygon fill="#63b8ff" stroke="#63b8ff" points="468.84,-76.04 458.27,-76.87 467.05,-82.81 468.84,-76.04"/>
</a>
</g>
</g>
</g>
</svg>
