<?xml version="1.0" encoding="UTF-8" standalone="no"?>
<!DOCTYPE svg PUBLIC "-//W3C//DTD SVG 1.1//EN"
 "http://www.w3.org/Graphics/SVG/1.1/DTD/svg11.dtd">
<!-- Generated by graphviz version 10.0.1 (20240210.2158)
 -->
<!-- Title: include/InputComponent.hpp Pages: 1 -->
<svg width="179pt" height="252pt"
 viewBox="0.00 0.00 178.75 252.00" xmlns="http://www.w3.org/2000/svg" xmlns:xlink="http://www.w3.org/1999/xlink">
<g id="graph0" class="graph" transform="scale(1 1) rotate(0) translate(4 248)">
<title>include/InputComponent.hpp</title>
<!-- Node1 -->
<g id="Node000001" class="node">
<title>Node1</title>
<g id="a_Node000001"><a xlink:title=" ">
<polygon fill="#999999" stroke="#666666" points="139,-244 0,-244 0,-224 139,-224 139,-244"/>
<text text-anchor="middle" x="69.5" y="-230.5" font-family="Helvetica,sans-Serif" font-size="10.00">include/InputComponent.hpp</text>
</a>
</g>
</g>
<!-- Node2 -->
<g id="Node000002" class="node">
<title>Node2</title>
<g id="a_Node000002"><a xlink:href="_game_entity_8hpp.html" target="_top" xlink:title=" ">
<polygon fill="white" stroke="#666666" points="129.62,-188 9.38,-188 9.38,-168 129.62,-168 129.62,-188"/>
<text text-anchor="middle" x="69.5" y="-174.5" font-family="Helvetica,sans-Serif" font-size="10.00">include/GameEntity.hpp</text>
</a>
</g>
</g>
<!-- Node1&#45;&gt;Node2 -->
<g id="edge1_Node000001_Node000002" class="edge">
<title>Node1&#45;&gt;Node2</title>
<g id="a_edge1_Node000001_Node000002"><a xlink:title=" ">
<path fill="none" stroke="#63b8ff" d="M69.5,-212.13C69.5,-203.9 69.5,-194.85 69.5,-188.3"/>
<polygon fill="#63b8ff" stroke="#63b8ff" points="66,-212.08 69.5,-222.08 73,-212.08 66,-212.08"/>
</a>
</g>
</g>
<!-- Node3 -->
<g id="Node000003" class="node">
<title>Node3</title>
<g id="a_Node000003"><a xlink:href="_scene_8hpp.html" target="_top" xlink:title=" ">
<polygon fill="white" stroke="#666666" points="117.62,-132 21.38,-132 21.38,-112 117.62,-112 117.62,-132"/>
<text text-anchor="middle" x="69.5" y="-118.5" font-family="Helvetica,sans-Serif" font-size="10.00">include/Scene.hpp</text>
</a>
</g>
</g>
<!-- Node2&#45;&gt;Node3 -->
<g id="edge2_Node000002_Node000003" class="edge">
<title>Node2&#45;&gt;Node3</title>
<g id="a_edge2_Node000002_Node000003"><a xlink:title=" ">
<path fill="none" stroke="#63b8ff" d="M69.5,-156.13C69.5,-147.9 69.5,-138.85 69.5,-132.3"/>
<polygon fill="#63b8ff" stroke="#63b8ff" points="66,-156.08 69.5,-166.08 73,-156.08 66,-156.08"/>
</a>
</g>
</g>
<!-- Node4 -->
<g id="Node000004" class="node">
<title>Node4</title>
<g id="a_Node000004"><a xlink:href="_application_8hpp.html" target="_top" xlink:title=" ">
<polygon fill="white" stroke="#666666" points="127.75,-20 11.25,-20 11.25,0 127.75,0 127.75,-20"/>
<text text-anchor="middle" x="69.5" y="-6.5" font-family="Helvetica,sans-Serif" font-size="10.00">include/Application.hpp</text>
</a>
</g>
</g>
<!-- Node3&#45;&gt;Node4 -->
<g id="edge3_Node000003_Node000004" class="edge">
<title>Node3&#45;&gt;Node4</title>
<g id="a_edge3_Node000003_Node000004"><a xlink:title=" ">
<path fill="none" stroke="#63b8ff" d="M56.61,-101.84C52.17,-94.15 47.75,-84.99 45.5,-76 40.42,-55.69 53.34,-32.96 62.13,-20.48"/>
<polygon fill="#63b8ff" stroke="#63b8ff" points="53.61,-103.65 61.88,-110.28 59.55,-99.94 53.61,-103.65"/>
</a>
</g>
</g>
<!-- Node5 -->
<g id="Node000005" class="node">
<title>Node5</title>
<g id="a_Node000005"><a xlink:href="_gui_handler_8hpp.html" target="_top" xlink:title=" ">
<polygon fill="white" stroke="#666666" points="170.75,-76 54.25,-76 54.25,-56 170.75,-56 170.75,-76"/>
<text text-anchor="middle" x="112.5" y="-62.5" font-family="Helvetica,sans-Serif" font-size="10.00">include/GuiHandler.hpp</text>
</a>
</g>
</g>
<!-- Node3&#45;&gt;Node5 -->
<g id="edge4_Node000003_Node000005" class="edge">
<title>Node3&#45;&gt;Node5</title>
<g id="a_edge4_Node000003_Node000005"><a xlink:title=" ">
<path fill="none" stroke="#63b8ff" d="M84.06,-102.72C91.13,-93.84 99.32,-83.55 105.1,-76.3"/>
<polygon fill="#63b8ff" stroke="#63b8ff" points="81.42,-100.41 77.93,-110.41 86.9,-104.77 81.42,-100.41"/>
</a>
</g>
</g>
<!-- Node5&#45;&gt;Node4 -->
<g id="edge5_Node000005_Node000004" class="edge">
<title>Node5&#45;&gt;Node4</title>
<g id="a_edge5_Node000005_Node000004"><a xlink:title=" ">
<path fill="none" stroke="#63b8ff" d="M97.94,-46.72C90.87,-37.84 82.68,-27.55 76.9,-20.3"/>
<polygon fill="#63b8ff" stroke="#63b8ff" points="95.1,-48.77 104.07,-54.41 100.58,-44.41 95.1,-48.77"/>
</a>
</g>
</g>
</g>
</svg>
