<?xml version="1.0" encoding="UTF-8" standalone="no"?>
<!DOCTYPE svg PUBLIC "-//W3C//DTD SVG 1.1//EN"
 "http://www.w3.org/Graphics/SVG/1.1/DTD/svg11.dtd">
<!-- Generated by graphviz version 10.0.1 (20240210.2158)
 -->
<!-- Title: include/ResourceManager.hpp Pages: 1 -->
<svg width="306pt" height="84pt"
 viewBox="0.00 0.00 306.00 84.00" xmlns="http://www.w3.org/2000/svg" xmlns:xlink="http://www.w3.org/1999/xlink">
<g id="graph0" class="graph" transform="scale(1 1) rotate(0) translate(4 80)">
<title>include/ResourceManager.hpp</title>
<!-- Node1 -->
<g id="Node000001" class="node">
<title>Node1</title>
<g id="a_Node000001"><a xlink:title=" ">
<polygon fill="#999999" stroke="#666666" points="244.62,-76 97.38,-76 97.38,-56 244.62,-56 244.62,-76"/>
<text text-anchor="middle" x="171" y="-62.5" font-family="Helvetica,sans-Serif" font-size="10.00">include/ResourceManager.hpp</text>
</a>
</g>
</g>
<!-- Node2 -->
<g id="Node000002" class="node">
<title>Node2</title>
<g id="a_Node000002"><a xlink:title=" ">
<polygon fill="#e0e0e0" stroke="#999999" points="70,-20 0,-20 0,0 70,0 70,-20"/>
<text text-anchor="middle" x="35" y="-6.5" font-family="Helvetica,sans-Serif" font-size="10.00">SDL3/SDL.h</text>
</a>
</g>
</g>
<!-- Node1&#45;&gt;Node2 -->
<g id="edge1_Node000001_Node000002" class="edge">
<title>Node1&#45;&gt;Node2</title>
<g id="a_edge1_Node000001_Node000002"><a xlink:title=" ">
<path fill="none" stroke="#63b8ff" d="M147.31,-55.59C125.8,-47.05 93.8,-34.35 69.46,-24.68"/>
<polygon fill="#63b8ff" stroke="#63b8ff" points="70.87,-21.48 60.28,-21.04 68.28,-27.98 70.87,-21.48"/>
</a>
</g>
</g>
<!-- Node3 -->
<g id="Node000003" class="node">
<title>Node3</title>
<g id="a_Node000003"><a xlink:title=" ">
<polygon fill="#e0e0e0" stroke="#999999" points="170.38,-20 87.62,-20 87.62,0 170.38,0 170.38,-20"/>
<text text-anchor="middle" x="129" y="-6.5" font-family="Helvetica,sans-Serif" font-size="10.00">unordered_map</text>
</a>
</g>
</g>
<!-- Node1&#45;&gt;Node3 -->
<g id="edge2_Node000001_Node000003" class="edge">
<title>Node1&#45;&gt;Node3</title>
<g id="a_edge2_Node000001_Node000003"><a xlink:title=" ">
<path fill="none" stroke="#63b8ff" d="M163.68,-55.59C158.02,-48.32 150.01,-38.02 143.11,-29.15"/>
<polygon fill="#63b8ff" stroke="#63b8ff" points="146.06,-27.24 137.16,-21.49 140.54,-31.54 146.06,-27.24"/>
</a>
</g>
</g>
<!-- Node4 -->
<g id="Node000004" class="node">
<title>Node4</title>
<g id="a_Node000004"><a xlink:title=" ">
<polygon fill="#e0e0e0" stroke="#999999" points="239.62,-20 188.38,-20 188.38,0 239.62,0 239.62,-20"/>
<text text-anchor="middle" x="214" y="-6.5" font-family="Helvetica,sans-Serif" font-size="10.00">memory</text>
</a>
</g>
</g>
<!-- Node1&#45;&gt;Node4 -->
<g id="edge3_Node000001_Node000004" class="edge">
<title>Node1&#45;&gt;Node4</title>
<g id="a_edge3_Node000001_Node000004"><a xlink:title=" ">
<path fill="none" stroke="#63b8ff" d="M178.49,-55.59C184.29,-48.32 192.49,-38.02 199.55,-29.15"/>
<polygon fill="#63b8ff" stroke="#63b8ff" points="202.16,-31.49 205.65,-21.48 196.69,-27.12 202.16,-31.49"/>
</a>
</g>
</g>
<!-- Node5 -->
<g id="Node000005" class="node">
<title>Node5</title>
<g id="a_Node000005"><a xlink:title=" ">
<polygon fill="#e0e0e0" stroke="#999999" points="298,-20 258,-20 258,0 298,0 298,-20"/>
<text text-anchor="middle" x="278" y="-6.5" font-family="Helvetica,sans-Serif" font-size="10.00">string</text>
</a>
</g>
</g>
<!-- Node1&#45;&gt;Node5 -->
<g id="edge4_Node000001_Node000005" class="edge">
<title>Node1&#45;&gt;Node5</title>
<g id="a_edge4_Node000001_Node000005"><a xlink:title=" ">
<path fill="none" stroke="#63b8ff" d="M189.64,-55.59C206.03,-47.32 230.16,-35.14 249.06,-25.6"/>
<polygon fill="#63b8ff" stroke="#63b8ff" points="250.51,-28.79 257.87,-21.16 247.36,-22.54 250.51,-28.79"/>
</a>
</g>
</g>
</g>
</svg>
