<?xml version="1.0" encoding="UTF-8" standalone="no"?>
<!DOCTYPE svg PUBLIC "-//W3C//DTD SVG 1.1//EN"
 "http://www.w3.org/Graphics/SVG/1.1/DTD/svg11.dtd">
<!-- Generated by graphviz version 10.0.1 (20240210.2158)
 -->
<!-- Title: Scene Pages: 1 -->
<svg width="314pt" height="572pt"
 viewBox="0.00 0.00 314.00 572.00" xmlns="http://www.w3.org/2000/svg" xmlns:xlink="http://www.w3.org/1999/xlink">
<g id="graph0" class="graph" transform="scale(1 1) rotate(0) translate(4 568)">
<title>Scene</title>
<!-- Node1 -->
<g id="Node000001" class="node">
<title>Node1</title>
<g id="a_Node000001"><a xlink:title=" ">
<polygon fill="#999999" stroke="none" points="171,-404 50,-404 50,0 171,0 171,-404"/>
<text text-anchor="start" x="96.62" y="-390.5" font-family="Helvetica,sans-Serif" font-size="10.00">Scene</text>
<text text-anchor="start" x="109" y="-374.5" font-family="Helvetica,sans-Serif" font-size="10.00"> </text>
<text text-anchor="start" x="54" y="-358.5" font-family="Helvetica,sans-Serif" font-size="10.00">+</text>
<text text-anchor="start" x="64" y="-358.5" font-family="Helvetica,sans-Serif" font-size="10.00">Scene()</text>
<text text-anchor="start" x="54" y="-342.5" font-family="Helvetica,sans-Serif" font-size="10.00">+</text>
<text text-anchor="start" x="64" y="-342.5" font-family="Helvetica,sans-Serif" font-size="10.00">~Scene()</text>
<text text-anchor="start" x="54" y="-326.5" font-family="Helvetica,sans-Serif" font-size="10.00">+</text>
<text text-anchor="start" x="64" y="-326.5" font-family="Helvetica,sans-Serif" font-size="10.00">StartUp()</text>
<text text-anchor="start" x="54" y="-310.5" font-family="Helvetica,sans-Serif" font-size="10.00">+</text>
<text text-anchor="start" x="64" y="-310.5" font-family="Helvetica,sans-Serif" font-size="10.00">Input()</text>
<text text-anchor="start" x="54" y="-294.5" font-family="Helvetica,sans-Serif" font-size="10.00">+</text>
<text text-anchor="start" x="64" y="-294.5" font-family="Helvetica,sans-Serif" font-size="10.00">Update()</text>
<text text-anchor="start" x="54" y="-278.5" font-family="Helvetica,sans-Serif" font-size="10.00">+</text>
<text text-anchor="start" x="64" y="-278.5" font-family="Helvetica,sans-Serif" font-size="10.00">Render()</text>
<text text-anchor="start" x="54" y="-262.5" font-family="Helvetica,sans-Serif" font-size="10.00">+</text>
<text text-anchor="start" x="64" y="-262.5" font-family="Helvetica,sans-Serif" font-size="10.00">SetSceneActiveStatus()</text>
<text text-anchor="start" x="54" y="-246.5" font-family="Helvetica,sans-Serif" font-size="10.00">+</text>
<text text-anchor="start" x="64" y="-246.5" font-family="Helvetica,sans-Serif" font-size="10.00">IsSceneActive()</text>
<text text-anchor="start" x="54" y="-230.5" font-family="Helvetica,sans-Serif" font-size="10.00">+</text>
<text text-anchor="start" x="64" y="-230.5" font-family="Helvetica,sans-Serif" font-size="10.00">SaveScene()</text>
<text text-anchor="start" x="54" y="-214.5" font-family="Helvetica,sans-Serif" font-size="10.00">+</text>
<text text-anchor="start" x="64" y="-214.5" font-family="Helvetica,sans-Serif" font-size="10.00">LoadScene()</text>
<text text-anchor="start" x="54" y="-198.5" font-family="Helvetica,sans-Serif" font-size="10.00">+</text>
<text text-anchor="start" x="64" y="-198.5" font-family="Helvetica,sans-Serif" font-size="10.00">SetRenderer()</text>
<text text-anchor="start" x="54" y="-182.5" font-family="Helvetica,sans-Serif" font-size="10.00">+</text>
<text text-anchor="start" x="64" y="-182.5" font-family="Helvetica,sans-Serif" font-size="10.00">GetName()</text>
<text text-anchor="start" x="54" y="-166.5" font-family="Helvetica,sans-Serif" font-size="10.00">+</text>
<text text-anchor="start" x="64" y="-166.5" font-family="Helvetica,sans-Serif" font-size="10.00">SetName()</text>
<text text-anchor="start" x="54" y="-150.5" font-family="Helvetica,sans-Serif" font-size="10.00">+</text>
<text text-anchor="start" x="64" y="-150.5" font-family="Helvetica,sans-Serif" font-size="10.00">GetDesc()</text>
<text text-anchor="start" x="54" y="-134.5" font-family="Helvetica,sans-Serif" font-size="10.00">+</text>
<text text-anchor="start" x="64" y="-134.5" font-family="Helvetica,sans-Serif" font-size="10.00">SetDesc()</text>
<text text-anchor="start" x="54" y="-118.5" font-family="Helvetica,sans-Serif" font-size="10.00">+</text>
<text text-anchor="start" x="64" y="-118.5" font-family="Helvetica,sans-Serif" font-size="10.00">CreatePaddle()</text>
<text text-anchor="start" x="54" y="-102.5" font-family="Helvetica,sans-Serif" font-size="10.00">+</text>
<text text-anchor="start" x="64" y="-102.5" font-family="Helvetica,sans-Serif" font-size="10.00">CreateBall()</text>
<text text-anchor="start" x="54" y="-86.5" font-family="Helvetica,sans-Serif" font-size="10.00">+</text>
<text text-anchor="start" x="64" y="-86.5" font-family="Helvetica,sans-Serif" font-size="10.00">CreateDeath()</text>
<text text-anchor="start" x="54" y="-70.5" font-family="Helvetica,sans-Serif" font-size="10.00">+</text>
<text text-anchor="start" x="64" y="-70.5" font-family="Helvetica,sans-Serif" font-size="10.00">CreateBlock()</text>
<text text-anchor="start" x="54" y="-54.5" font-family="Helvetica,sans-Serif" font-size="10.00">+</text>
<text text-anchor="start" x="64" y="-54.5" font-family="Helvetica,sans-Serif" font-size="10.00">SetStatus()</text>
<text text-anchor="start" x="54" y="-38.5" font-family="Helvetica,sans-Serif" font-size="10.00">+</text>
<text text-anchor="start" x="64" y="-38.5" font-family="Helvetica,sans-Serif" font-size="10.00">GetStatus()</text>
<text text-anchor="start" x="54" y="-22.5" font-family="Helvetica,sans-Serif" font-size="10.00">+</text>
<text text-anchor="start" x="64" y="-22.5" font-family="Helvetica,sans-Serif" font-size="10.00">SetMode()</text>
<text text-anchor="start" x="54" y="-6.5" font-family="Helvetica,sans-Serif" font-size="10.00">+</text>
<text text-anchor="start" x="64" y="-6.5" font-family="Helvetica,sans-Serif" font-size="10.00">GetMode()</text>
<polygon fill="#666666" stroke="#666666" points="50,-386 50,-386 171,-386 171,-386 50,-386"/>
<polygon fill="#666666" stroke="#666666" points="50,-370 50,-370 171,-370 171,-370 50,-370"/>
<polygon fill="none" stroke="#666666" points="50,0 50,-404 171,-404 171,0 50,0"/>
</a>
</g>
</g>
<!-- Node2 -->
<g id="Node000002" class="node">
<title>Node2</title>
<g id="a_Node000002"><a xlink:title=" ">
<polygon fill="white" stroke="none" points="35,-558 0,-558 0,-506 35,-506 35,-558"/>
<text text-anchor="start" x="4.75" y="-544.5" font-family="Helvetica,sans-Serif" font-size="10.00">char *</text>
<text text-anchor="start" x="16" y="-528.5" font-family="Helvetica,sans-Serif" font-size="10.00"> </text>
<text text-anchor="start" x="16" y="-512.5" font-family="Helvetica,sans-Serif" font-size="10.00"> </text>
<polygon fill="#666666" stroke="#666666" points="0,-540 0,-540 35,-540 35,-540 0,-540"/>
<polygon fill="#666666" stroke="#666666" points="0,-524 0,-524 35,-524 35,-524 0,-524"/>
<polygon fill="none" stroke="#666666" points="0,-506 0,-558 35,-558 35,-506 0,-506"/>
</a>
</g>
</g>
<!-- Node2&#45;&gt;Node1 -->
<g id="edge1_Node000001_Node000002" class="edge">
<title>Node2&#45;&gt;Node1</title>
<g id="a_edge1_Node000001_Node000002"><a xlink:title=" ">
<path fill="none" stroke="#63b8ff" d="M20.81,-506.1C24.02,-483.86 29.48,-450.49 36.75,-422 39.69,-410.46 42.95,-398.65 46.4,-386.79"/>
<polygon fill="none" stroke="#63b8ff" points="46.4,-386.79 44.27,-379.9 49.81,-375.29 51.94,-382.17 46.4,-386.79"/>
</a>
</g>
<text text-anchor="middle" x="72.38" y="-472.5" font-family="Helvetica,sans-Serif" font-size="10.00" fill="grey"> +currentfilepath</text>
<text text-anchor="middle" x="72.38" y="-460.5" font-family="Helvetica,sans-Serif" font-size="10.00" fill="grey">+description</text>
<text text-anchor="middle" x="72.38" y="-448.5" font-family="Helvetica,sans-Serif" font-size="10.00" fill="grey">+loadfilepath</text>
<text text-anchor="middle" x="72.38" y="-436.5" font-family="Helvetica,sans-Serif" font-size="10.00" fill="grey">+name</text>
<text text-anchor="middle" x="72.38" y="-424.5" font-family="Helvetica,sans-Serif" font-size="10.00" fill="grey">+savefilepath</text>
</g>
<!-- Node3 -->
<g id="Node000003" class="node">
<title>Node3</title>
<g id="a_Node000003"><a xlink:title=" ">
<polygon fill="white" stroke="none" points="163,-564 58,-564 58,-500 163,-500 163,-564"/>
<text text-anchor="start" x="62.88" y="-550.5" font-family="Helvetica,sans-Serif" font-size="10.00">vector&lt; std::shared</text>
<text text-anchor="start" x="62.88" y="-538.5" font-family="Helvetica,sans-Serif" font-size="10.00">_ptr&lt; GameEntity &gt; &gt;</text>
<text text-anchor="start" x="109" y="-522.5" font-family="Helvetica,sans-Serif" font-size="10.00"> </text>
<text text-anchor="start" x="109" y="-506.5" font-family="Helvetica,sans-Serif" font-size="10.00"> </text>
<polygon fill="#666666" stroke="#666666" points="58,-534 58,-534 163,-534 163,-534 58,-534"/>
<polygon fill="#666666" stroke="#666666" points="58,-518 58,-518 163,-518 163,-518 58,-518"/>
<polygon fill="none" stroke="#666666" points="58,-500 58,-564 163,-564 163,-500 58,-500"/>
</a>
</g>
</g>
<!-- Node3&#45;&gt;Node1 -->
<g id="edge2_Node000001_Node000003" class="edge">
<title>Node3&#45;&gt;Node1</title>
<g id="a_edge2_Node000001_Node000003"><a xlink:title=" ">
<path fill="none" stroke="#63b8ff" d="M110.5,-500.14C110.5,-479.14 110.5,-449.29 110.5,-416.53"/>
<polygon fill="none" stroke="#63b8ff" points="110.5,-416.74 106.5,-410.74 110.5,-404.74 114.5,-410.74 110.5,-416.74"/>
</a>
</g>
<text text-anchor="middle" x="130.75" y="-448.5" font-family="Helvetica,sans-Serif" font-size="10.00" fill="grey"> +entities</text>
</g>
<!-- Node4 -->
<g id="Node000004" class="node">
<title>Node4</title>
<g id="a_Node000004"><a xlink:title=" ">
<polygon fill="white" stroke="none" points="306,-558 181,-558 181,-506 306,-506 306,-558"/>
<text text-anchor="start" x="185.75" y="-544.5" font-family="Helvetica,sans-Serif" font-size="10.00">shared_ptr&lt; GameEntity &gt;</text>
<text text-anchor="start" x="242" y="-528.5" font-family="Helvetica,sans-Serif" font-size="10.00"> </text>
<text text-anchor="start" x="242" y="-512.5" font-family="Helvetica,sans-Serif" font-size="10.00"> </text>
<polygon fill="#666666" stroke="#666666" points="181,-540 181,-540 306,-540 306,-540 181,-540"/>
<polygon fill="#666666" stroke="#666666" points="181,-524 181,-524 306,-524 306,-524 181,-524"/>
<polygon fill="none" stroke="#666666" points="181,-506 181,-558 306,-558 306,-506 181,-506"/>
</a>
</g>
</g>
<!-- Node4&#45;&gt;Node1 -->
<g id="edge3_Node000001_Node000004" class="edge">
<title>Node4&#45;&gt;Node1</title>
<g id="a_edge3_Node000001_Node000004"><a xlink:title=" ">
<path fill="none" stroke="#63b8ff" d="M233.39,-506.08C220.77,-474.95 198.1,-419.03 175.63,-363.62"/>
<polygon fill="none" stroke="#63b8ff" points="175.69,-363.77 169.73,-359.71 171.18,-352.65 177.14,-356.7 175.69,-363.77"/>
</a>
</g>
<text text-anchor="middle" x="238.5" y="-448.5" font-family="Helvetica,sans-Serif" font-size="10.00" fill="grey"> +cursor</text>
</g>
</g>
</svg>
