<?xml version="1.0" encoding="UTF-8" standalone="no"?>
<!DOCTYPE svg PUBLIC "-//W3C//DTD SVG 1.1//EN"
 "http://www.w3.org/Graphics/SVG/1.1/DTD/svg11.dtd">
<!-- Generated by graphviz version 10.0.1 (20240210.2158)
 -->
<!-- Title: Component Pages: 1 -->
<svg width="400pt" height="532pt"
 viewBox="0.00 0.00 400.00 532.00" xmlns="http://www.w3.org/2000/svg" xmlns:xlink="http://www.w3.org/1999/xlink">
<g id="graph0" class="graph" transform="scale(1 1) rotate(0) translate(4 528)">
<title>Component</title>
<!-- Node1 -->
<g id="Node000001" class="node">
<title>Node1</title>
<g id="a_Node000001"><a xlink:title=" ">
<polygon fill="#999999" stroke="none" points="230.5,-524 139.5,-524 139.5,-360 230.5,-360 230.5,-524"/>
<text text-anchor="start" x="160.25" y="-510.5" font-family="Helvetica,sans-Serif" font-size="10.00">Component</text>
<text text-anchor="start" x="183.5" y="-494.5" font-family="Helvetica,sans-Serif" font-size="10.00"> </text>
<text text-anchor="start" x="143.5" y="-478.5" font-family="Helvetica,sans-Serif" font-size="10.00">+</text>
<text text-anchor="start" x="153.5" y="-478.5" font-family="Helvetica,sans-Serif" font-size="10.00">Component()</text>
<text text-anchor="start" x="143.5" y="-462.5" font-family="Helvetica,sans-Serif" font-size="10.00">+</text>
<text text-anchor="start" x="153.5" y="-462.5" font-family="Helvetica,sans-Serif" font-size="10.00">~Component()</text>
<text text-anchor="start" x="143.5" y="-446.5" font-family="Helvetica,sans-Serif" font-size="10.00">+</text>
<text text-anchor="start" x="153.5" y="-446.5" font-family="Helvetica,sans-Serif" font-size="10.00">Input()</text>
<text text-anchor="start" x="143.5" y="-430.5" font-family="Helvetica,sans-Serif" font-size="10.00">+</text>
<text text-anchor="start" x="153.5" y="-430.5" font-family="Helvetica,sans-Serif" font-size="10.00">Update()</text>
<text text-anchor="start" x="143.5" y="-414.5" font-family="Helvetica,sans-Serif" font-size="10.00">+</text>
<text text-anchor="start" x="153.5" y="-414.5" font-family="Helvetica,sans-Serif" font-size="10.00">Render()</text>
<text text-anchor="start" x="143.5" y="-398.5" font-family="Helvetica,sans-Serif" font-size="10.00">+</text>
<text text-anchor="start" x="153.5" y="-398.5" font-family="Helvetica,sans-Serif" font-size="10.00">GetType()</text>
<text text-anchor="start" x="143.5" y="-382.5" font-family="Helvetica,sans-Serif" font-size="10.00">+</text>
<text text-anchor="start" x="153.5" y="-382.5" font-family="Helvetica,sans-Serif" font-size="10.00">SetGameEntity()</text>
<text text-anchor="start" x="143.5" y="-366.5" font-family="Helvetica,sans-Serif" font-size="10.00">+</text>
<text text-anchor="start" x="153.5" y="-366.5" font-family="Helvetica,sans-Serif" font-size="10.00">GetGameEntity()</text>
<polygon fill="#666666" stroke="#666666" points="139.5,-506 139.5,-506 230.5,-506 230.5,-506 139.5,-506"/>
<polygon fill="#666666" stroke="#666666" points="139.5,-490 139.5,-490 230.5,-490 230.5,-490 139.5,-490"/>
<polygon fill="none" stroke="#666666" points="139.5,-360 139.5,-524 230.5,-524 230.5,-360 139.5,-360"/>
</a>
</g>
</g>
<!-- Node2 -->
<g id="Node000002" class="node">
<title>Node2</title>
<g id="a_Node000002"><a xlink:href="struct_input_component.html" target="_top" xlink:title=" ">
<polygon fill="white" stroke="none" points="100,-260 0,-260 0,-64 100,-64 100,-260"/>
<text text-anchor="start" x="14.75" y="-246.5" font-family="Helvetica,sans-Serif" font-size="10.00">InputComponent</text>
<text text-anchor="start" x="4" y="-230.5" font-family="Helvetica,sans-Serif" font-size="10.00">+</text>
<text text-anchor="start" x="14" y="-230.5" font-family="Helvetica,sans-Serif" font-size="10.00">mSpeed</text>
<text text-anchor="start" x="4" y="-214.5" font-family="Helvetica,sans-Serif" font-size="10.00">+</text>
<text text-anchor="start" x="14" y="-214.5" font-family="Helvetica,sans-Serif" font-size="10.00">inputtype</text>
<text text-anchor="start" x="4" y="-198.5" font-family="Helvetica,sans-Serif" font-size="10.00">+</text>
<text text-anchor="start" x="14" y="-198.5" font-family="Helvetica,sans-Serif" font-size="10.00">InputComponent()</text>
<text text-anchor="start" x="4" y="-182.5" font-family="Helvetica,sans-Serif" font-size="10.00">+</text>
<text text-anchor="start" x="14" y="-182.5" font-family="Helvetica,sans-Serif" font-size="10.00">InputComponent()</text>
<text text-anchor="start" x="4" y="-166.5" font-family="Helvetica,sans-Serif" font-size="10.00">+</text>
<text text-anchor="start" x="14" y="-166.5" font-family="Helvetica,sans-Serif" font-size="10.00">~InputComponent()</text>
<text text-anchor="start" x="4" y="-150.5" font-family="Helvetica,sans-Serif" font-size="10.00">+</text>
<text text-anchor="start" x="14" y="-150.5" font-family="Helvetica,sans-Serif" font-size="10.00">GetType()</text>
<text text-anchor="start" x="4" y="-134.5" font-family="Helvetica,sans-Serif" font-size="10.00">+</text>
<text text-anchor="start" x="14" y="-134.5" font-family="Helvetica,sans-Serif" font-size="10.00">Input()</text>
<text text-anchor="start" x="4" y="-118.5" font-family="Helvetica,sans-Serif" font-size="10.00">+</text>
<text text-anchor="start" x="14" y="-118.5" font-family="Helvetica,sans-Serif" font-size="10.00">Update()</text>
<text text-anchor="start" x="4" y="-102.5" font-family="Helvetica,sans-Serif" font-size="10.00">+</text>
<text text-anchor="start" x="14" y="-102.5" font-family="Helvetica,sans-Serif" font-size="10.00">Render()</text>
<text text-anchor="start" x="4" y="-86.5" font-family="Helvetica,sans-Serif" font-size="10.00">+</text>
<text text-anchor="start" x="14" y="-86.5" font-family="Helvetica,sans-Serif" font-size="10.00">GetSpeed()</text>
<text text-anchor="start" x="4" y="-70.5" font-family="Helvetica,sans-Serif" font-size="10.00">+</text>
<text text-anchor="start" x="14" y="-70.5" font-family="Helvetica,sans-Serif" font-size="10.00">SetSpeed()</text>
<polygon fill="#666666" stroke="#666666" points="0,-242 0,-242 100,-242 100,-242 0,-242"/>
<polygon fill="#666666" stroke="#666666" points="0,-210 0,-210 12,-210 12,-210 0,-210"/>
<polygon fill="#666666" stroke="#666666" points="12,-210 12,-210 100,-210 100,-210 12,-210"/>
<polygon fill="none" stroke="#666666" points="0,-64 0,-260 100,-260 100,-64 0,-64"/>
</a>
</g>
</g>
<!-- Node1&#45;&gt;Node2 -->
<g id="edge1_Node000001_Node000002" class="edge">
<title>Node1&#45;&gt;Node2</title>
<g id="a_edge1_Node000001_Node000002"><a xlink:title=" ">
<path fill="none" stroke="#63b8ff" d="M133.45,-367.09C124.72,-353.1 116.17,-338.35 109,-324 98.88,-303.76 89.57,-281.35 81.48,-259.84"/>
<polygon fill="none" stroke="#63b8ff" points="130.39,-368.79 138.7,-375.36 136.3,-365.04 130.39,-368.79"/>
</a>
</g>
</g>
<!-- Node3 -->
<g id="Node000003" class="node">
<title>Node3</title>
<g id="a_Node000003"><a xlink:href="struct_texture_component.html" target="_top" xlink:title=" ">
<polygon fill="white" stroke="none" points="252,-252 118,-252 118,-72 252,-72 252,-252"/>
<text text-anchor="start" x="144.12" y="-238.5" font-family="Helvetica,sans-Serif" font-size="10.00">TextureComponent</text>
<text text-anchor="start" x="183.5" y="-222.5" font-family="Helvetica,sans-Serif" font-size="10.00"> </text>
<text text-anchor="start" x="122" y="-206.5" font-family="Helvetica,sans-Serif" font-size="10.00">+</text>
<text text-anchor="start" x="132" y="-206.5" font-family="Helvetica,sans-Serif" font-size="10.00">TextureComponent()</text>
<text text-anchor="start" x="122" y="-190.5" font-family="Helvetica,sans-Serif" font-size="10.00">+</text>
<text text-anchor="start" x="132" y="-190.5" font-family="Helvetica,sans-Serif" font-size="10.00">~TextureComponent()</text>
<text text-anchor="start" x="122" y="-174.5" font-family="Helvetica,sans-Serif" font-size="10.00">+</text>
<text text-anchor="start" x="132" y="-174.5" font-family="Helvetica,sans-Serif" font-size="10.00">CreateTextureComponent()</text>
<text text-anchor="start" x="122" y="-158.5" font-family="Helvetica,sans-Serif" font-size="10.00">+</text>
<text text-anchor="start" x="132" y="-158.5" font-family="Helvetica,sans-Serif" font-size="10.00">Input()</text>
<text text-anchor="start" x="122" y="-142.5" font-family="Helvetica,sans-Serif" font-size="10.00">+</text>
<text text-anchor="start" x="132" y="-142.5" font-family="Helvetica,sans-Serif" font-size="10.00">Update()</text>
<text text-anchor="start" x="122" y="-126.5" font-family="Helvetica,sans-Serif" font-size="10.00">+</text>
<text text-anchor="start" x="132" y="-126.5" font-family="Helvetica,sans-Serif" font-size="10.00">Render()</text>
<text text-anchor="start" x="122" y="-110.5" font-family="Helvetica,sans-Serif" font-size="10.00">+</text>
<text text-anchor="start" x="132" y="-110.5" font-family="Helvetica,sans-Serif" font-size="10.00">GetType()</text>
<text text-anchor="start" x="122" y="-94.5" font-family="Helvetica,sans-Serif" font-size="10.00">+</text>
<text text-anchor="start" x="132" y="-94.5" font-family="Helvetica,sans-Serif" font-size="10.00">GetFilepath()</text>
<text text-anchor="start" x="122" y="-78.5" font-family="Helvetica,sans-Serif" font-size="10.00">+</text>
<text text-anchor="start" x="132" y="-78.5" font-family="Helvetica,sans-Serif" font-size="10.00">SetFilepath()</text>
<polygon fill="#666666" stroke="#666666" points="118,-234 118,-234 252,-234 252,-234 118,-234"/>
<polygon fill="#666666" stroke="#666666" points="118,-218 118,-218 252,-218 252,-218 118,-218"/>
<polygon fill="none" stroke="#666666" points="118,-72 118,-252 252,-252 252,-72 118,-72"/>
</a>
</g>
</g>
<!-- Node1&#45;&gt;Node3 -->
<g id="edge2_Node000001_Node000003" class="edge">
<title>Node1&#45;&gt;Node3</title>
<g id="a_edge2_Node000001_Node000003"><a xlink:title=" ">
<path fill="none" stroke="#63b8ff" d="M185,-348.88C185,-317.61 185,-282.77 185,-251.78"/>
<polygon fill="none" stroke="#63b8ff" points="181.5,-348.7 185,-358.7 188.5,-348.7 181.5,-348.7"/>
</a>
</g>
</g>
<!-- Node4 -->
<g id="Node000004" class="node">
<title>Node4</title>
<g id="a_Node000004"><a xlink:href="struct_transform_component.html" target="_top" xlink:title=" ">
<polygon fill="white" stroke="none" points="392,-324 270,-324 270,0 392,0 392,-324"/>
<text text-anchor="start" x="284.88" y="-310.5" font-family="Helvetica,sans-Serif" font-size="10.00">TransformComponent</text>
<text text-anchor="start" x="274" y="-294.5" font-family="Helvetica,sans-Serif" font-size="10.00">+</text>
<text text-anchor="start" x="284" y="-294.5" font-family="Helvetica,sans-Serif" font-size="10.00">mRectangle</text>
<text text-anchor="start" x="274" y="-278.5" font-family="Helvetica,sans-Serif" font-size="10.00">+</text>
<text text-anchor="start" x="284" y="-278.5" font-family="Helvetica,sans-Serif" font-size="10.00">isCursor</text>
<text text-anchor="start" x="274" y="-262.5" font-family="Helvetica,sans-Serif" font-size="10.00">+</text>
<text text-anchor="start" x="284" y="-262.5" font-family="Helvetica,sans-Serif" font-size="10.00">TransformComponent()</text>
<text text-anchor="start" x="274" y="-246.5" font-family="Helvetica,sans-Serif" font-size="10.00">+</text>
<text text-anchor="start" x="284" y="-246.5" font-family="Helvetica,sans-Serif" font-size="10.00">~TransformComponent()</text>
<text text-anchor="start" x="274" y="-230.5" font-family="Helvetica,sans-Serif" font-size="10.00">+</text>
<text text-anchor="start" x="284" y="-230.5" font-family="Helvetica,sans-Serif" font-size="10.00">Input()</text>
<text text-anchor="start" x="274" y="-214.5" font-family="Helvetica,sans-Serif" font-size="10.00">+</text>
<text text-anchor="start" x="284" y="-214.5" font-family="Helvetica,sans-Serif" font-size="10.00">Update()</text>
<text text-anchor="start" x="274" y="-198.5" font-family="Helvetica,sans-Serif" font-size="10.00">+</text>
<text text-anchor="start" x="284" y="-198.5" font-family="Helvetica,sans-Serif" font-size="10.00">Render()</text>
<text text-anchor="start" x="274" y="-182.5" font-family="Helvetica,sans-Serif" font-size="10.00">+</text>
<text text-anchor="start" x="284" y="-182.5" font-family="Helvetica,sans-Serif" font-size="10.00">GetType()</text>
<text text-anchor="start" x="274" y="-166.5" font-family="Helvetica,sans-Serif" font-size="10.00">+</text>
<text text-anchor="start" x="284" y="-166.5" font-family="Helvetica,sans-Serif" font-size="10.00">SetW()</text>
<text text-anchor="start" x="274" y="-150.5" font-family="Helvetica,sans-Serif" font-size="10.00">+</text>
<text text-anchor="start" x="284" y="-150.5" font-family="Helvetica,sans-Serif" font-size="10.00">SetH()</text>
<text text-anchor="start" x="274" y="-134.5" font-family="Helvetica,sans-Serif" font-size="10.00">+</text>
<text text-anchor="start" x="284" y="-134.5" font-family="Helvetica,sans-Serif" font-size="10.00">SetWH()</text>
<text text-anchor="start" x="274" y="-118.5" font-family="Helvetica,sans-Serif" font-size="10.00">+</text>
<text text-anchor="start" x="284" y="-118.5" font-family="Helvetica,sans-Serif" font-size="10.00">SetX()</text>
<text text-anchor="start" x="274" y="-102.5" font-family="Helvetica,sans-Serif" font-size="10.00">+</text>
<text text-anchor="start" x="284" y="-102.5" font-family="Helvetica,sans-Serif" font-size="10.00">SetY()</text>
<text text-anchor="start" x="274" y="-86.5" font-family="Helvetica,sans-Serif" font-size="10.00">+</text>
<text text-anchor="start" x="284" y="-86.5" font-family="Helvetica,sans-Serif" font-size="10.00">SetXY()</text>
<text text-anchor="start" x="274" y="-70.5" font-family="Helvetica,sans-Serif" font-size="10.00">+</text>
<text text-anchor="start" x="284" y="-70.5" font-family="Helvetica,sans-Serif" font-size="10.00">GetX()</text>
<text text-anchor="start" x="274" y="-54.5" font-family="Helvetica,sans-Serif" font-size="10.00">+</text>
<text text-anchor="start" x="284" y="-54.5" font-family="Helvetica,sans-Serif" font-size="10.00">GetY()</text>
<text text-anchor="start" x="274" y="-38.5" font-family="Helvetica,sans-Serif" font-size="10.00">+</text>
<text text-anchor="start" x="284" y="-38.5" font-family="Helvetica,sans-Serif" font-size="10.00">GetW()</text>
<text text-anchor="start" x="274" y="-22.5" font-family="Helvetica,sans-Serif" font-size="10.00">+</text>
<text text-anchor="start" x="284" y="-22.5" font-family="Helvetica,sans-Serif" font-size="10.00">GetH()</text>
<text text-anchor="start" x="274" y="-6.5" font-family="Helvetica,sans-Serif" font-size="10.00">+</text>
<text text-anchor="start" x="284" y="-6.5" font-family="Helvetica,sans-Serif" font-size="10.00">GetRectangle()</text>
<polygon fill="#666666" stroke="#666666" points="270,-306 270,-306 392,-306 392,-306 270,-306"/>
<polygon fill="#666666" stroke="#666666" points="270,-274 270,-274 282,-274 282,-274 270,-274"/>
<polygon fill="#666666" stroke="#666666" points="282,-274 282,-274 392,-274 392,-274 282,-274"/>
<polygon fill="none" stroke="#666666" points="270,0 270,-324 392,-324 392,0 270,0"/>
</a>
</g>
</g>
<!-- Node1&#45;&gt;Node4 -->
<g id="edge3_Node000001_Node000004" class="edge">
<title>Node1&#45;&gt;Node4</title>
<g id="a_edge3_Node000001_Node000004"><a xlink:title=" ">
<path fill="none" stroke="#63b8ff" d="M236.34,-365.96C244.98,-352.24 253.55,-337.87 261,-324 264.1,-318.23 267.18,-312.29 270.21,-306.25"/>
<polygon fill="none" stroke="#63b8ff" points="233.6,-363.75 231.18,-374.06 239.51,-367.51 233.6,-363.75"/>
</a>
</g>
</g>
</g>
</svg>
