<?xml version="1.0" encoding="UTF-8" standalone="no"?>
<!DOCTYPE svg PUBLIC "-//W3C//DTD SVG 1.1//EN"
 "http://www.w3.org/Graphics/SVG/1.1/DTD/svg11.dtd">
<!-- Generated by graphviz version 10.0.1 (20240210.2158)
 -->
<!-- Title: InputComponent Pages: 1 -->
<svg width="229pt" height="400pt"
 viewBox="0.00 0.00 229.25 400.00" xmlns="http://www.w3.org/2000/svg" xmlns:xlink="http://www.w3.org/1999/xlink">

<svg id="main" version="1.1" xmlns="http://www.w3.org/2000/svg" xmlns:xlink="http://www.w3.org/1999/xlink" xml:space="preserve" onload="init(evt)">
<style type="text/css"><![CDATA[
.node, .edge {opacity: 0.7;}
.node.selected, .edge.selected {opacity: 1;}
.edge:hover path { stroke: red; }
.edge:hover polygon { stroke: red; fill: red; }
]]></style>
<script type="application/ecmascript" xlink:href="svg.min.js"/>
<svg id="graph" class="graph">
<g id="graph0" class="graph" transform="scale(1 1) rotate(0) translate(4 396)">
<title>InputComponent</title>
<!-- Node1 -->
<g id="Node000001" class="node">
<title>Node1</title>
<g id="a_Node000001"><a xlink:title=" ">
<polygon fill="#999999" stroke="none" points="173.5,-180 73.5,-180 73.5,0 173.5,0 173.5,-180"/>
<text text-anchor="start" x="88.25" y="-166.5" font-family="Helvetica,sans-Serif" font-size="10.00">InputComponent</text>
<text text-anchor="start" x="122" y="-150.5" font-family="Helvetica,sans-Serif" font-size="10.00"> </text>
<text text-anchor="start" x="77.5" y="-134.5" font-family="Helvetica,sans-Serif" font-size="10.00">+</text>
<text text-anchor="start" x="87.5" y="-134.5" font-family="Helvetica,sans-Serif" font-size="10.00">InputComponent()</text>
<text text-anchor="start" x="77.5" y="-118.5" font-family="Helvetica,sans-Serif" font-size="10.00">+</text>
<text text-anchor="start" x="87.5" y="-118.5" font-family="Helvetica,sans-Serif" font-size="10.00">InputComponent()</text>
<text text-anchor="start" x="77.5" y="-102.5" font-family="Helvetica,sans-Serif" font-size="10.00">+</text>
<text text-anchor="start" x="87.5" y="-102.5" font-family="Helvetica,sans-Serif" font-size="10.00">~InputComponent()</text>
<text text-anchor="start" x="77.5" y="-86.5" font-family="Helvetica,sans-Serif" font-size="10.00">+</text>
<text text-anchor="start" x="87.5" y="-86.5" font-family="Helvetica,sans-Serif" font-size="10.00">GetType()</text>
<text text-anchor="start" x="77.5" y="-70.5" font-family="Helvetica,sans-Serif" font-size="10.00">+</text>
<text text-anchor="start" x="87.5" y="-70.5" font-family="Helvetica,sans-Serif" font-size="10.00">Input()</text>
<text text-anchor="start" x="77.5" y="-54.5" font-family="Helvetica,sans-Serif" font-size="10.00">+</text>
<text text-anchor="start" x="87.5" y="-54.5" font-family="Helvetica,sans-Serif" font-size="10.00">Update()</text>
<text text-anchor="start" x="77.5" y="-38.5" font-family="Helvetica,sans-Serif" font-size="10.00">+</text>
<text text-anchor="start" x="87.5" y="-38.5" font-family="Helvetica,sans-Serif" font-size="10.00">Render()</text>
<text text-anchor="start" x="77.5" y="-22.5" font-family="Helvetica,sans-Serif" font-size="10.00">+</text>
<text text-anchor="start" x="87.5" y="-22.5" font-family="Helvetica,sans-Serif" font-size="10.00">GetSpeed()</text>
<text text-anchor="start" x="77.5" y="-6.5" font-family="Helvetica,sans-Serif" font-size="10.00">+</text>
<text text-anchor="start" x="87.5" y="-6.5" font-family="Helvetica,sans-Serif" font-size="10.00">SetSpeed()</text>
<polygon fill="#666666" stroke="#666666" points="73.5,-162 73.5,-162 173.5,-162 173.5,-162 73.5,-162"/>
<polygon fill="#666666" stroke="#666666" points="73.5,-146 73.5,-146 173.5,-146 173.5,-146 73.5,-146"/>
<polygon fill="none" stroke="#666666" points="73.5,0 73.5,-180 173.5,-180 173.5,0 73.5,0"/>
</a>
</g>
</g>
<!-- Node2 -->
<g id="Node000002" class="node">
<title>Node2</title>
<g id="a_Node000002"><a xlink:href="struct_component.html" target="_top" xlink:title=" ">
<polygon fill="white" stroke="none" points="91,-392 0,-392 0,-228 91,-228 91,-392"/>
<text text-anchor="start" x="20.75" y="-378.5" font-family="Helvetica,sans-Serif" font-size="10.00">Component</text>
<text text-anchor="start" x="44" y="-362.5" font-family="Helvetica,sans-Serif" font-size="10.00"> </text>
<text text-anchor="start" x="4" y="-346.5" font-family="Helvetica,sans-Serif" font-size="10.00">+</text>
<text text-anchor="start" x="14" y="-346.5" font-family="Helvetica,sans-Serif" font-size="10.00">Component()</text>
<text text-anchor="start" x="4" y="-330.5" font-family="Helvetica,sans-Serif" font-size="10.00">+</text>
<text text-anchor="start" x="14" y="-330.5" font-family="Helvetica,sans-Serif" font-size="10.00">~Component()</text>
<text text-anchor="start" x="4" y="-314.5" font-family="Helvetica,sans-Serif" font-size="10.00">+</text>
<text text-anchor="start" x="14" y="-314.5" font-family="Helvetica,sans-Serif" font-size="10.00">Input()</text>
<text text-anchor="start" x="4" y="-298.5" font-family="Helvetica,sans-Serif" font-size="10.00">+</text>
<text text-anchor="start" x="14" y="-298.5" font-family="Helvetica,sans-Serif" font-size="10.00">Update()</text>
<text text-anchor="start" x="4" y="-282.5" font-family="Helvetica,sans-Serif" font-size="10.00">+</text>
<text text-anchor="start" x="14" y="-282.5" font-family="Helvetica,sans-Serif" font-size="10.00">Render()</text>
<text text-anchor="start" x="4" y="-266.5" font-family="Helvetica,sans-Serif" font-size="10.00">+</text>
<text text-anchor="start" x="14" y="-266.5" font-family="Helvetica,sans-Serif" font-size="10.00">GetType()</text>
<text text-anchor="start" x="4" y="-250.5" font-family="Helvetica,sans-Serif" font-size="10.00">+</text>
<text text-anchor="start" x="14" y="-250.5" font-family="Helvetica,sans-Serif" font-size="10.00">SetGameEntity()</text>
<text text-anchor="start" x="4" y="-234.5" font-family="Helvetica,sans-Serif" font-size="10.00">+</text>
<text text-anchor="start" x="14" y="-234.5" font-family="Helvetica,sans-Serif" font-size="10.00">GetGameEntity()</text>
<polygon fill="#666666" stroke="#666666" points="0,-374 0,-374 91,-374 91,-374 0,-374"/>
<polygon fill="#666666" stroke="#666666" points="0,-358 0,-358 91,-358 91,-358 0,-358"/>
<polygon fill="none" stroke="#666666" points="0,-228 0,-392 91,-392 91,-228 0,-228"/>
</a>
</g>
</g>
<!-- Node2&#45;&gt;Node1 -->
<g id="edge1_Node000001_Node000002" class="edge">
<title>Node2&#45;&gt;Node1</title>
<g id="a_edge1_Node000001_Node000002"><a xlink:title=" ">
<path fill="none" stroke="#63b8ff" d="M78.3,-217.32C82.75,-204.89 87.3,-192.16 91.73,-179.8"/>
<polygon fill="none" stroke="#63b8ff" points="75.02,-216.11 74.94,-226.71 81.61,-218.47 75.02,-216.11"/>
</a>
</g>
</g>
<!-- Node3 -->
<g id="Node000003" class="node">
<title>Node3</title>
<g id="a_Node000003"><a xlink:title=" ">
<polygon fill="white" stroke="none" points="137.5,-336 109.5,-336 109.5,-284 137.5,-284 137.5,-336"/>
<text text-anchor="start" x="114.5" y="-322.5" font-family="Helvetica,sans-Serif" font-size="10.00">float</text>
<text text-anchor="start" x="122" y="-306.5" font-family="Helvetica,sans-Serif" font-size="10.00"> </text>
<text text-anchor="start" x="122" y="-290.5" font-family="Helvetica,sans-Serif" font-size="10.00"> </text>
<polygon fill="#666666" stroke="#666666" points="109.5,-318 109.5,-318 137.5,-318 137.5,-318 109.5,-318"/>
<polygon fill="#666666" stroke="#666666" points="109.5,-302 109.5,-302 137.5,-302 137.5,-302 109.5,-302"/>
<polygon fill="none" stroke="#666666" points="109.5,-284 109.5,-336 137.5,-336 137.5,-284 109.5,-284"/>
</a>
</g>
</g>
<!-- Node3&#45;&gt;Node1 -->
<g id="edge2_Node000001_Node000003" class="edge">
<title>Node3&#45;&gt;Node1</title>
<g id="a_edge2_Node000001_Node000003"><a xlink:title=" ">
<path fill="none" stroke="#63b8ff" d="M123.5,-284.42C123.5,-261.81 123.5,-226.71 123.5,-192.58"/>
<polygon fill="none" stroke="#63b8ff" points="123.5,-192.48 119.5,-186.48 123.5,-180.48 127.5,-186.48 123.5,-192.48"/>
</a>
</g>
<text text-anchor="middle" x="146" y="-200.5" font-family="Helvetica,sans-Serif" font-size="10.00" fill="grey"> +mSpeed</text>
</g>
<!-- Node4 -->
<g id="Node000004" class="node">
<title>Node4</title>
<g id="a_Node000004"><a xlink:title=" ">
<polygon fill="white" stroke="none" points="208.5,-336 174.5,-336 174.5,-284 208.5,-284 208.5,-336"/>
<text text-anchor="start" x="179.5" y="-322.5" font-family="Helvetica,sans-Serif" font-size="10.00">string</text>
<text text-anchor="start" x="190" y="-306.5" font-family="Helvetica,sans-Serif" font-size="10.00"> </text>
<text text-anchor="start" x="190" y="-290.5" font-family="Helvetica,sans-Serif" font-size="10.00"> </text>
<polygon fill="#666666" stroke="#666666" points="174.5,-318 174.5,-318 208.5,-318 208.5,-318 174.5,-318"/>
<polygon fill="#666666" stroke="#666666" points="174.5,-302 174.5,-302 208.5,-302 208.5,-302 174.5,-302"/>
<polygon fill="none" stroke="#666666" points="174.5,-284 174.5,-336 208.5,-336 208.5,-284 174.5,-284"/>
</a>
</g>
</g>
<!-- Node4&#45;&gt;Node1 -->
<g id="edge3_Node000001_Node000004" class="edge">
<title>Node4&#45;&gt;Node1</title>
<g id="a_edge3_Node000001_Node000004"><a xlink:title=" ">
<path fill="none" stroke="#63b8ff" d="M188.14,-284.38C184.68,-261.64 178.52,-227.08 169.5,-198 168.89,-196.04 168.26,-194.06 167.6,-192.07"/>
<polygon fill="none" stroke="#63b8ff" points="167.57,-191.99 161.82,-187.63 163.63,-180.65 169.38,-185 167.57,-191.99"/>
</a>
</g>
<text text-anchor="middle" x="196.88" y="-200.5" font-family="Helvetica,sans-Serif" font-size="10.00" fill="grey"> +inputtype</text>
</g>
</g>
</svg>
</svg>

<style type='text/css'>
<![CDATA[
[data-mouse-over-selected='false'] { opacity: 0.7; }
[data-mouse-over-selected='true']  { opacity: 1.0; }
]]>
</style>
<script type="application/ecmascript"><![CDATA[
document.addEventListener('DOMContentLoaded', (event) => {
  highlightEdges();
  highlightAdjacentNodes();
});
]]></script>
</svg>
