<?xml version="1.0" encoding="UTF-8" standalone="no"?>
<!DOCTYPE svg PUBLIC "-//W3C//DTD SVG 1.1//EN"
 "http://www.w3.org/Graphics/SVG/1.1/DTD/svg11.dtd">
<!-- Generated by graphviz version 10.0.1 (20240210.2158)
 -->
<!-- Title: TransformComponent Pages: 1 -->
<svg width="258pt" height="528pt"
 viewBox="0.00 0.00 257.50 528.00" xmlns="http://www.w3.org/2000/svg" xmlns:xlink="http://www.w3.org/1999/xlink">
<g id="graph0" class="graph" transform="scale(1 1) rotate(0) translate(4 524)">
<title>TransformComponent</title>
<!-- Node1 -->
<g id="Node000001" class="node">
<title>Node1</title>
<g id="a_Node000001"><a xlink:title=" ">
<polygon fill="#999999" stroke="none" points="200.5,-308 78.5,-308 78.5,0 200.5,0 200.5,-308"/>
<text text-anchor="start" x="93.38" y="-294.5" font-family="Helvetica,sans-Serif" font-size="10.00">TransformComponent</text>
<text text-anchor="start" x="138" y="-278.5" font-family="Helvetica,sans-Serif" font-size="10.00"> </text>
<text text-anchor="start" x="82.5" y="-262.5" font-family="Helvetica,sans-Serif" font-size="10.00">+</text>
<text text-anchor="start" x="92.5" y="-262.5" font-family="Helvetica,sans-Serif" font-size="10.00">TransformComponent()</text>
<text text-anchor="start" x="82.5" y="-246.5" font-family="Helvetica,sans-Serif" font-size="10.00">+</text>
<text text-anchor="start" x="92.5" y="-246.5" font-family="Helvetica,sans-Serif" font-size="10.00">~TransformComponent()</text>
<text text-anchor="start" x="82.5" y="-230.5" font-family="Helvetica,sans-Serif" font-size="10.00">+</text>
<text text-anchor="start" x="92.5" y="-230.5" font-family="Helvetica,sans-Serif" font-size="10.00">Input()</text>
<text text-anchor="start" x="82.5" y="-214.5" font-family="Helvetica,sans-Serif" font-size="10.00">+</text>
<text text-anchor="start" x="92.5" y="-214.5" font-family="Helvetica,sans-Serif" font-size="10.00">Update()</text>
<text text-anchor="start" x="82.5" y="-198.5" font-family="Helvetica,sans-Serif" font-size="10.00">+</text>
<text text-anchor="start" x="92.5" y="-198.5" font-family="Helvetica,sans-Serif" font-size="10.00">Render()</text>
<text text-anchor="start" x="82.5" y="-182.5" font-family="Helvetica,sans-Serif" font-size="10.00">+</text>
<text text-anchor="start" x="92.5" y="-182.5" font-family="Helvetica,sans-Serif" font-size="10.00">GetType()</text>
<text text-anchor="start" x="82.5" y="-166.5" font-family="Helvetica,sans-Serif" font-size="10.00">+</text>
<text text-anchor="start" x="92.5" y="-166.5" font-family="Helvetica,sans-Serif" font-size="10.00">SetW()</text>
<text text-anchor="start" x="82.5" y="-150.5" font-family="Helvetica,sans-Serif" font-size="10.00">+</text>
<text text-anchor="start" x="92.5" y="-150.5" font-family="Helvetica,sans-Serif" font-size="10.00">SetH()</text>
<text text-anchor="start" x="82.5" y="-134.5" font-family="Helvetica,sans-Serif" font-size="10.00">+</text>
<text text-anchor="start" x="92.5" y="-134.5" font-family="Helvetica,sans-Serif" font-size="10.00">SetWH()</text>
<text text-anchor="start" x="82.5" y="-118.5" font-family="Helvetica,sans-Serif" font-size="10.00">+</text>
<text text-anchor="start" x="92.5" y="-118.5" font-family="Helvetica,sans-Serif" font-size="10.00">SetX()</text>
<text text-anchor="start" x="82.5" y="-102.5" font-family="Helvetica,sans-Serif" font-size="10.00">+</text>
<text text-anchor="start" x="92.5" y="-102.5" font-family="Helvetica,sans-Serif" font-size="10.00">SetY()</text>
<text text-anchor="start" x="82.5" y="-86.5" font-family="Helvetica,sans-Serif" font-size="10.00">+</text>
<text text-anchor="start" x="92.5" y="-86.5" font-family="Helvetica,sans-Serif" font-size="10.00">SetXY()</text>
<text text-anchor="start" x="82.5" y="-70.5" font-family="Helvetica,sans-Serif" font-size="10.00">+</text>
<text text-anchor="start" x="92.5" y="-70.5" font-family="Helvetica,sans-Serif" font-size="10.00">GetX()</text>
<text text-anchor="start" x="82.5" y="-54.5" font-family="Helvetica,sans-Serif" font-size="10.00">+</text>
<text text-anchor="start" x="92.5" y="-54.5" font-family="Helvetica,sans-Serif" font-size="10.00">GetY()</text>
<text text-anchor="start" x="82.5" y="-38.5" font-family="Helvetica,sans-Serif" font-size="10.00">+</text>
<text text-anchor="start" x="92.5" y="-38.5" font-family="Helvetica,sans-Serif" font-size="10.00">GetW()</text>
<text text-anchor="start" x="82.5" y="-22.5" font-family="Helvetica,sans-Serif" font-size="10.00">+</text>
<text text-anchor="start" x="92.5" y="-22.5" font-family="Helvetica,sans-Serif" font-size="10.00">GetH()</text>
<text text-anchor="start" x="82.5" y="-6.5" font-family="Helvetica,sans-Serif" font-size="10.00">+</text>
<text text-anchor="start" x="92.5" y="-6.5" font-family="Helvetica,sans-Serif" font-size="10.00">GetRectangle()</text>
<polygon fill="#666666" stroke="#666666" points="78.5,-290 78.5,-290 200.5,-290 200.5,-290 78.5,-290"/>
<polygon fill="#666666" stroke="#666666" points="78.5,-274 78.5,-274 200.5,-274 200.5,-274 78.5,-274"/>
<polygon fill="none" stroke="#666666" points="78.5,0 78.5,-308 200.5,-308 200.5,0 78.5,0"/>
</a>
</g>
</g>
<!-- Node2 -->
<g id="Node000002" class="node">
<title>Node2</title>
<g id="a_Node000002"><a xlink:href="struct_component.html" target="_top" xlink:title=" ">
<polygon fill="white" stroke="none" points="91,-520 0,-520 0,-356 91,-356 91,-520"/>
<text text-anchor="start" x="20.75" y="-506.5" font-family="Helvetica,sans-Serif" font-size="10.00">Component</text>
<text text-anchor="start" x="44" y="-490.5" font-family="Helvetica,sans-Serif" font-size="10.00"> </text>
<text text-anchor="start" x="4" y="-474.5" font-family="Helvetica,sans-Serif" font-size="10.00">+</text>
<text text-anchor="start" x="14" y="-474.5" font-family="Helvetica,sans-Serif" font-size="10.00">Component()</text>
<text text-anchor="start" x="4" y="-458.5" font-family="Helvetica,sans-Serif" font-size="10.00">+</text>
<text text-anchor="start" x="14" y="-458.5" font-family="Helvetica,sans-Serif" font-size="10.00">~Component()</text>
<text text-anchor="start" x="4" y="-442.5" font-family="Helvetica,sans-Serif" font-size="10.00">+</text>
<text text-anchor="start" x="14" y="-442.5" font-family="Helvetica,sans-Serif" font-size="10.00">Input()</text>
<text text-anchor="start" x="4" y="-426.5" font-family="Helvetica,sans-Serif" font-size="10.00">+</text>
<text text-anchor="start" x="14" y="-426.5" font-family="Helvetica,sans-Serif" font-size="10.00">Update()</text>
<text text-anchor="start" x="4" y="-410.5" font-family="Helvetica,sans-Serif" font-size="10.00">+</text>
<text text-anchor="start" x="14" y="-410.5" font-family="Helvetica,sans-Serif" font-size="10.00">Render()</text>
<text text-anchor="start" x="4" y="-394.5" font-family="Helvetica,sans-Serif" font-size="10.00">+</text>
<text text-anchor="start" x="14" y="-394.5" font-family="Helvetica,sans-Serif" font-size="10.00">GetType()</text>
<text text-anchor="start" x="4" y="-378.5" font-family="Helvetica,sans-Serif" font-size="10.00">+</text>
<text text-anchor="start" x="14" y="-378.5" font-family="Helvetica,sans-Serif" font-size="10.00">SetGameEntity()</text>
<text text-anchor="start" x="4" y="-362.5" font-family="Helvetica,sans-Serif" font-size="10.00">+</text>
<text text-anchor="start" x="14" y="-362.5" font-family="Helvetica,sans-Serif" font-size="10.00">GetGameEntity()</text>
<polygon fill="#666666" stroke="#666666" points="0,-502 0,-502 91,-502 91,-502 0,-502"/>
<polygon fill="#666666" stroke="#666666" points="0,-486 0,-486 91,-486 91,-486 0,-486"/>
<polygon fill="none" stroke="#666666" points="0,-356 0,-520 91,-520 91,-356 0,-356"/>
</a>
</g>
</g>
<!-- Node2&#45;&gt;Node1 -->
<g id="edge1_Node000001_Node000002" class="edge">
<title>Node2&#45;&gt;Node1</title>
<g id="a_edge1_Node000001_Node000002"><a xlink:title=" ">
<path fill="none" stroke="#63b8ff" d="M75.96,-345.62C80.03,-333.42 84.28,-320.65 88.59,-307.74"/>
<polygon fill="none" stroke="#63b8ff" points="72.76,-344.16 72.92,-354.75 79.4,-346.37 72.76,-344.16"/>
</a>
</g>
</g>
<!-- Node3 -->
<g id="Node000003" class="node">
<title>Node3</title>
<g id="a_Node000003"><a xlink:title=" ">
<polygon fill="white" stroke="none" points="169.5,-464 109.5,-464 109.5,-412 169.5,-412 169.5,-464"/>
<text text-anchor="start" x="114.38" y="-450.5" font-family="Helvetica,sans-Serif" font-size="10.00">SDL_FRect</text>
<text text-anchor="start" x="138" y="-434.5" font-family="Helvetica,sans-Serif" font-size="10.00"> </text>
<text text-anchor="start" x="138" y="-418.5" font-family="Helvetica,sans-Serif" font-size="10.00"> </text>
<polygon fill="#666666" stroke="#666666" points="109.5,-446 109.5,-446 169.5,-446 169.5,-446 109.5,-446"/>
<polygon fill="#666666" stroke="#666666" points="109.5,-430 109.5,-430 169.5,-430 169.5,-430 109.5,-430"/>
<polygon fill="none" stroke="#666666" points="109.5,-412 109.5,-464 169.5,-464 169.5,-412 109.5,-412"/>
</a>
</g>
</g>
<!-- Node3&#45;&gt;Node1 -->
<g id="edge2_Node000001_Node000003" class="edge">
<title>Node3&#45;&gt;Node1</title>
<g id="a_edge2_Node000001_Node000003"><a xlink:title=" ">
<path fill="none" stroke="#63b8ff" d="M139.5,-412.47C139.5,-390.71 139.5,-356.86 139.5,-320.78"/>
<polygon fill="none" stroke="#63b8ff" points="139.5,-320.84 135.5,-314.84 139.5,-308.84 143.5,-314.84 139.5,-320.84"/>
</a>
</g>
<text text-anchor="middle" x="169.88" y="-328.5" font-family="Helvetica,sans-Serif" font-size="10.00" fill="grey"> +mRectangle</text>
</g>
<!-- Node4 -->
<g id="Node000004" class="node">
<title>Node4</title>
<g id="a_Node000004"><a xlink:title=" ">
<polygon fill="white" stroke="none" points="237.5,-464 209.5,-464 209.5,-412 237.5,-412 237.5,-464"/>
<text text-anchor="start" x="214.5" y="-450.5" font-family="Helvetica,sans-Serif" font-size="10.00">bool</text>
<text text-anchor="start" x="222" y="-434.5" font-family="Helvetica,sans-Serif" font-size="10.00"> </text>
<text text-anchor="start" x="222" y="-418.5" font-family="Helvetica,sans-Serif" font-size="10.00"> </text>
<polygon fill="#666666" stroke="#666666" points="209.5,-446 209.5,-446 237.5,-446 237.5,-446 209.5,-446"/>
<polygon fill="#666666" stroke="#666666" points="209.5,-430 209.5,-430 237.5,-430 237.5,-430 209.5,-430"/>
<polygon fill="none" stroke="#666666" points="209.5,-412 209.5,-464 237.5,-464 237.5,-412 209.5,-412"/>
</a>
</g>
</g>
<!-- Node4&#45;&gt;Node1 -->
<g id="edge3_Node000001_Node000004" class="edge">
<title>Node4&#45;&gt;Node1</title>
<g id="a_edge3_Node000001_Node000004"><a xlink:title=" ">
<path fill="none" stroke="#63b8ff" d="M219.67,-412.06C215.93,-389.39 209.62,-355.14 201.5,-326 200.98,-324.15 200.46,-322.28 199.92,-320.41"/>
<polygon fill="none" stroke="#63b8ff" points="199.9,-320.36 194.37,-315.74 196.5,-308.85 202.04,-313.47 199.9,-320.36"/>
</a>
</g>
<text text-anchor="middle" x="227" y="-328.5" font-family="Helvetica,sans-Serif" font-size="10.00" fill="grey"> +isCursor</text>
</g>
</g>
</svg>
