<?xml version="1.0" encoding="UTF-8" standalone="no"?>
<!DOCTYPE svg PUBLIC "-//W3C//DTD SVG 1.1//EN"
 "http://www.w3.org/Graphics/SVG/1.1/DTD/svg11.dtd">
<!-- Generated by graphviz version 10.0.1 (20240210.2158)
 -->
<!-- Title: GameEntity Pages: 1 -->
<svg width="502pt" height="624pt"
 viewBox="0.00 0.00 502.25 624.00" xmlns="http://www.w3.org/2000/svg" xmlns:xlink="http://www.w3.org/1999/xlink">
<g id="graph0" class="graph" transform="scale(1 1) rotate(0) translate(4 620)">
<title>GameEntity</title>
<!-- Node1 -->
<g id="Node000001" class="node">
<title>Node1</title>
<g id="a_Node000001"><a xlink:title=" ">
<polygon fill="#999999" stroke="none" points="330,-468 216,-468 216,0 330,0 330,-468"/>
<text text-anchor="start" x="247.12" y="-454.5" font-family="Helvetica,sans-Serif" font-size="10.00">GameEntity</text>
<text text-anchor="start" x="271.5" y="-438.5" font-family="Helvetica,sans-Serif" font-size="10.00"> </text>
<text text-anchor="start" x="220" y="-422.5" font-family="Helvetica,sans-Serif" font-size="10.00">+</text>
<text text-anchor="start" x="230" y="-422.5" font-family="Helvetica,sans-Serif" font-size="10.00">GameEntity()</text>
<text text-anchor="start" x="220" y="-406.5" font-family="Helvetica,sans-Serif" font-size="10.00">+</text>
<text text-anchor="start" x="230" y="-406.5" font-family="Helvetica,sans-Serif" font-size="10.00">~GameEntity()</text>
<text text-anchor="start" x="220" y="-390.5" font-family="Helvetica,sans-Serif" font-size="10.00">+</text>
<text text-anchor="start" x="230" y="-390.5" font-family="Helvetica,sans-Serif" font-size="10.00">GetThisPtr()</text>
<text text-anchor="start" x="220" y="-374.5" font-family="Helvetica,sans-Serif" font-size="10.00">+</text>
<text text-anchor="start" x="230" y="-374.5" font-family="Helvetica,sans-Serif" font-size="10.00">Input()</text>
<text text-anchor="start" x="220" y="-358.5" font-family="Helvetica,sans-Serif" font-size="10.00">+</text>
<text text-anchor="start" x="230" y="-358.5" font-family="Helvetica,sans-Serif" font-size="10.00">Update()</text>
<text text-anchor="start" x="220" y="-342.5" font-family="Helvetica,sans-Serif" font-size="10.00">+</text>
<text text-anchor="start" x="230" y="-342.5" font-family="Helvetica,sans-Serif" font-size="10.00">Render()</text>
<text text-anchor="start" x="220" y="-326.5" font-family="Helvetica,sans-Serif" font-size="10.00">+</text>
<text text-anchor="start" x="230" y="-326.5" font-family="Helvetica,sans-Serif" font-size="10.00">AddComponent()</text>
<text text-anchor="start" x="220" y="-310.5" font-family="Helvetica,sans-Serif" font-size="10.00">+</text>
<text text-anchor="start" x="230" y="-310.5" font-family="Helvetica,sans-Serif" font-size="10.00">GetComponent()</text>
<text text-anchor="start" x="220" y="-294.5" font-family="Helvetica,sans-Serif" font-size="10.00">+</text>
<text text-anchor="start" x="230" y="-294.5" font-family="Helvetica,sans-Serif" font-size="10.00">AddDefaultTransform()</text>
<text text-anchor="start" x="220" y="-278.5" font-family="Helvetica,sans-Serif" font-size="10.00">+</text>
<text text-anchor="start" x="230" y="-278.5" font-family="Helvetica,sans-Serif" font-size="10.00">GetTransform()</text>
<text text-anchor="start" x="220" y="-262.5" font-family="Helvetica,sans-Serif" font-size="10.00">+</text>
<text text-anchor="start" x="230" y="-262.5" font-family="Helvetica,sans-Serif" font-size="10.00">SetRenderable()</text>
<text text-anchor="start" x="220" y="-246.5" font-family="Helvetica,sans-Serif" font-size="10.00">+</text>
<text text-anchor="start" x="230" y="-246.5" font-family="Helvetica,sans-Serif" font-size="10.00">IsRenderable()</text>
<text text-anchor="start" x="220" y="-230.5" font-family="Helvetica,sans-Serif" font-size="10.00">+</text>
<text text-anchor="start" x="230" y="-230.5" font-family="Helvetica,sans-Serif" font-size="10.00">Intersects()</text>
<text text-anchor="start" x="220" y="-214.5" font-family="Helvetica,sans-Serif" font-size="10.00">+</text>
<text text-anchor="start" x="230" y="-214.5" font-family="Helvetica,sans-Serif" font-size="10.00">GetName()</text>
<text text-anchor="start" x="220" y="-198.5" font-family="Helvetica,sans-Serif" font-size="10.00">+</text>
<text text-anchor="start" x="230" y="-198.5" font-family="Helvetica,sans-Serif" font-size="10.00">SetName()</text>
<text text-anchor="start" x="220" y="-182.5" font-family="Helvetica,sans-Serif" font-size="10.00">+</text>
<text text-anchor="start" x="230" y="-182.5" font-family="Helvetica,sans-Serif" font-size="10.00">GetTempName()</text>
<text text-anchor="start" x="220" y="-166.5" font-family="Helvetica,sans-Serif" font-size="10.00">+</text>
<text text-anchor="start" x="230" y="-166.5" font-family="Helvetica,sans-Serif" font-size="10.00">GetType()</text>
<text text-anchor="start" x="220" y="-150.5" font-family="Helvetica,sans-Serif" font-size="10.00">+</text>
<text text-anchor="start" x="230" y="-150.5" font-family="Helvetica,sans-Serif" font-size="10.00">SetType()</text>
<text text-anchor="start" x="220" y="-134.5" font-family="Helvetica,sans-Serif" font-size="10.00">+</text>
<text text-anchor="start" x="230" y="-134.5" font-family="Helvetica,sans-Serif" font-size="10.00">GetSpeed()</text>
<text text-anchor="start" x="220" y="-118.5" font-family="Helvetica,sans-Serif" font-size="10.00">+</text>
<text text-anchor="start" x="230" y="-118.5" font-family="Helvetica,sans-Serif" font-size="10.00">SetSpeed()</text>
<text text-anchor="start" x="220" y="-102.5" font-family="Helvetica,sans-Serif" font-size="10.00">+</text>
<text text-anchor="start" x="230" y="-102.5" font-family="Helvetica,sans-Serif" font-size="10.00">GetXDir()</text>
<text text-anchor="start" x="220" y="-86.5" font-family="Helvetica,sans-Serif" font-size="10.00">+</text>
<text text-anchor="start" x="230" y="-86.5" font-family="Helvetica,sans-Serif" font-size="10.00">GetYDir()</text>
<text text-anchor="start" x="220" y="-70.5" font-family="Helvetica,sans-Serif" font-size="10.00">+</text>
<text text-anchor="start" x="230" y="-70.5" font-family="Helvetica,sans-Serif" font-size="10.00">SetXDir()</text>
<text text-anchor="start" x="220" y="-54.5" font-family="Helvetica,sans-Serif" font-size="10.00">+</text>
<text text-anchor="start" x="230" y="-54.5" font-family="Helvetica,sans-Serif" font-size="10.00">SetYDir()</text>
<text text-anchor="start" x="220" y="-38.5" font-family="Helvetica,sans-Serif" font-size="10.00">+</text>
<text text-anchor="start" x="230" y="-38.5" font-family="Helvetica,sans-Serif" font-size="10.00">SetXYDir()</text>
<text text-anchor="start" x="220" y="-22.5" font-family="Helvetica,sans-Serif" font-size="10.00">+</text>
<text text-anchor="start" x="230" y="-22.5" font-family="Helvetica,sans-Serif" font-size="10.00">SetSubtype()</text>
<text text-anchor="start" x="220" y="-6.5" font-family="Helvetica,sans-Serif" font-size="10.00">+</text>
<text text-anchor="start" x="230" y="-6.5" font-family="Helvetica,sans-Serif" font-size="10.00">GetSubtype()</text>
<polygon fill="#666666" stroke="#666666" points="216,-450 216,-450 330,-450 330,-450 216,-450"/>
<polygon fill="#666666" stroke="#666666" points="216,-434 216,-434 330,-434 330,-434 216,-434"/>
<polygon fill="none" stroke="#666666" points="216,0 216,-468 330,-468 330,0 216,0"/>
</a>
</g>
</g>
<!-- Node2 -->
<g id="Node000002" class="node">
<title>Node2</title>
<g id="a_Node000002"><a xlink:title=" ">
<polygon fill="white" stroke="none" points="124,-616 0,-616 0,-552 124,-552 124,-616"/>
<text text-anchor="start" x="4.62" y="-602.5" font-family="Helvetica,sans-Serif" font-size="10.00">std::enable_shared</text>
<text text-anchor="start" x="4.62" y="-590.5" font-family="Helvetica,sans-Serif" font-size="10.00">_from_this&lt; GameEntity &gt;</text>
<text text-anchor="start" x="60.5" y="-574.5" font-family="Helvetica,sans-Serif" font-size="10.00"> </text>
<text text-anchor="start" x="60.5" y="-558.5" font-family="Helvetica,sans-Serif" font-size="10.00"> </text>
<polygon fill="#666666" stroke="#666666" points="0,-586 0,-586 124,-586 124,-586 0,-586"/>
<polygon fill="#666666" stroke="#666666" points="0,-570 0,-570 124,-570 124,-570 0,-570"/>
<polygon fill="none" stroke="#666666" points="0,-552 0,-616 124,-616 124,-552 0,-552"/>
</a>
</g>
</g>
<!-- Node2&#45;&gt;Node1 -->
<g id="edge1_Node000001_Node000002" class="edge">
<title>Node2&#45;&gt;Node1</title>
<g id="a_edge1_Node000001_Node000002"><a xlink:title=" ">
<path fill="none" stroke="#63b8ff" d="M86.51,-542.58C118.02,-490.61 173.71,-398.75 216.06,-328.91"/>
<polygon fill="none" stroke="#63b8ff" points="83.7,-540.46 81.51,-550.82 89.69,-544.09 83.7,-540.46"/>
</a>
</g>
</g>
<!-- Node3 -->
<g id="Node000003" class="node">
<title>Node3</title>
<g id="a_Node000003"><a xlink:title=" ">
<polygon fill="white" stroke="none" points="177.5,-610 142.5,-610 142.5,-558 177.5,-558 177.5,-610"/>
<text text-anchor="start" x="147.25" y="-596.5" font-family="Helvetica,sans-Serif" font-size="10.00">char *</text>
<text text-anchor="start" x="158.5" y="-580.5" font-family="Helvetica,sans-Serif" font-size="10.00"> </text>
<text text-anchor="start" x="158.5" y="-564.5" font-family="Helvetica,sans-Serif" font-size="10.00"> </text>
<polygon fill="#666666" stroke="#666666" points="142.5,-592 142.5,-592 177.5,-592 177.5,-592 142.5,-592"/>
<polygon fill="#666666" stroke="#666666" points="142.5,-576 142.5,-576 177.5,-576 177.5,-576 142.5,-576"/>
<polygon fill="none" stroke="#666666" points="142.5,-558 142.5,-610 177.5,-610 177.5,-558 142.5,-558"/>
</a>
</g>
</g>
<!-- Node3&#45;&gt;Node1 -->
<g id="edge2_Node000001_Node000003" class="edge">
<title>Node3&#45;&gt;Node1</title>
<g id="a_edge2_Node000001_Node000003"><a xlink:title=" ">
<path fill="none" stroke="#63b8ff" d="M168.04,-558.25C177.62,-528.73 194.56,-476.56 212.07,-422.63"/>
<polygon fill="none" stroke="#63b8ff" points="212.07,-422.65 210.12,-415.71 215.77,-411.23 217.73,-418.18 212.07,-422.65"/>
</a>
</g>
<text text-anchor="middle" x="216.62" y="-524.5" font-family="Helvetica,sans-Serif" font-size="10.00" fill="grey"> #subtype</text>
<text text-anchor="middle" x="216.62" y="-512.5" font-family="Helvetica,sans-Serif" font-size="10.00" fill="grey">+name</text>
<text text-anchor="middle" x="216.62" y="-500.5" font-family="Helvetica,sans-Serif" font-size="10.00" fill="grey">+tempName</text>
<text text-anchor="middle" x="216.62" y="-488.5" font-family="Helvetica,sans-Serif" font-size="10.00" fill="grey">+type</text>
</g>
<!-- Node4 -->
<g id="Node000004" class="node">
<title>Node4</title>
<g id="a_Node000004"><a xlink:title=" ">
<polygon fill="white" stroke="none" points="350,-616 196,-616 196,-552 350,-552 350,-616"/>
<text text-anchor="start" x="200.62" y="-602.5" font-family="Helvetica,sans-Serif" font-size="10.00">map&lt; ComponentType,</text>
<text text-anchor="start" x="200.62" y="-590.5" font-family="Helvetica,sans-Serif" font-size="10.00"> std::shared_ptr&lt; Component &gt; &gt;</text>
<text text-anchor="start" x="271.5" y="-574.5" font-family="Helvetica,sans-Serif" font-size="10.00"> </text>
<text text-anchor="start" x="271.5" y="-558.5" font-family="Helvetica,sans-Serif" font-size="10.00"> </text>
<polygon fill="#666666" stroke="#666666" points="196,-586 196,-586 350,-586 350,-586 196,-586"/>
<polygon fill="#666666" stroke="#666666" points="196,-570 196,-570 350,-570 350,-570 196,-570"/>
<polygon fill="none" stroke="#666666" points="196,-552 196,-616 350,-616 350,-552 196,-552"/>
</a>
</g>
</g>
<!-- Node4&#45;&gt;Node1 -->
<g id="edge3_Node000001_Node000004" class="edge">
<title>Node4&#45;&gt;Node1</title>
<g id="a_edge3_Node000001_Node000004"><a xlink:title=" ">
<path fill="none" stroke="#63b8ff" d="M273,-552.12C273,-533.79 273,-508.66 273,-480.51"/>
<polygon fill="none" stroke="#63b8ff" points="273,-480.72 269,-474.72 273,-468.72 277,-474.72 273,-480.72"/>
</a>
</g>
<text text-anchor="middle" x="309" y="-506.5" font-family="Helvetica,sans-Serif" font-size="10.00" fill="grey"> +mComponents</text>
</g>
<!-- Node5 -->
<g id="Node000005" class="node">
<title>Node5</title>
<g id="a_Node000005"><a xlink:title=" ">
<polygon fill="white" stroke="none" points="396,-610 368,-610 368,-558 396,-558 396,-610"/>
<text text-anchor="start" x="373" y="-596.5" font-family="Helvetica,sans-Serif" font-size="10.00">float</text>
<text text-anchor="start" x="380.5" y="-580.5" font-family="Helvetica,sans-Serif" font-size="10.00"> </text>
<text text-anchor="start" x="380.5" y="-564.5" font-family="Helvetica,sans-Serif" font-size="10.00"> </text>
<polygon fill="#666666" stroke="#666666" points="368,-592 368,-592 396,-592 396,-592 368,-592"/>
<polygon fill="#666666" stroke="#666666" points="368,-576 368,-576 396,-576 396,-576 368,-576"/>
<polygon fill="none" stroke="#666666" points="368,-558 368,-610 396,-610 396,-558 368,-558"/>
</a>
</g>
</g>
<!-- Node5&#45;&gt;Node1 -->
<g id="edge4_Node000001_Node000005" class="edge">
<title>Node5&#45;&gt;Node1</title>
<g id="a_edge4_Node000001_Node000005"><a xlink:title=" ">
<path fill="none" stroke="#63b8ff" d="M374.25,-558.25C365.38,-529.93 349.98,-480.77 333.83,-429.21"/>
<polygon fill="none" stroke="#63b8ff" points="333.79,-429.09 328.18,-424.56 330.2,-417.63 335.82,-422.16 333.79,-429.09"/>
</a>
</g>
<text text-anchor="middle" x="388.12" y="-518.5" font-family="Helvetica,sans-Serif" font-size="10.00" fill="grey"> #mSpeed</text>
<text text-anchor="middle" x="388.12" y="-506.5" font-family="Helvetica,sans-Serif" font-size="10.00" fill="grey">#xDir</text>
<text text-anchor="middle" x="388.12" y="-494.5" font-family="Helvetica,sans-Serif" font-size="10.00" fill="grey">#yDir</text>
</g>
<!-- Node6 -->
<g id="Node000006" class="node">
<title>Node6</title>
<g id="a_Node000006"><a xlink:title=" ">
<polygon fill="white" stroke="none" points="456,-610 428,-610 428,-558 456,-558 456,-610"/>
<text text-anchor="start" x="433" y="-596.5" font-family="Helvetica,sans-Serif" font-size="10.00">bool</text>
<text text-anchor="start" x="440.5" y="-580.5" font-family="Helvetica,sans-Serif" font-size="10.00"> </text>
<text text-anchor="start" x="440.5" y="-564.5" font-family="Helvetica,sans-Serif" font-size="10.00"> </text>
<polygon fill="#666666" stroke="#666666" points="428,-592 428,-592 456,-592 456,-592 428,-592"/>
<polygon fill="#666666" stroke="#666666" points="428,-576 428,-576 456,-576 456,-576 428,-576"/>
<polygon fill="none" stroke="#666666" points="428,-558 428,-610 456,-610 456,-558 428,-558"/>
</a>
</g>
</g>
<!-- Node6&#45;&gt;Node1 -->
<g id="edge5_Node000001_Node000006" class="edge">
<title>Node6&#45;&gt;Node1</title>
<g id="a_edge5_Node000001_Node000006"><a xlink:title=" ">
<path fill="none" stroke="#63b8ff" d="M436.51,-558.15C431.7,-538.22 423.95,-509.77 414,-486 392.52,-434.68 363.06,-380.53 336.62,-335.72"/>
<polygon fill="none" stroke="#63b8ff" points="336.56,-335.62 330.06,-332.51 330.43,-325.31 336.94,-328.42 336.56,-335.62"/>
</a>
</g>
<text text-anchor="middle" x="461.62" y="-506.5" font-family="Helvetica,sans-Serif" font-size="10.00" fill="grey"> #mRenderable</text>
</g>
</g>
</svg>
