<?xml version="1.0" encoding="UTF-8" standalone="no"?>
<!DOCTYPE svg PUBLIC "-//W3C//DTD SVG 1.1//EN"
 "http://www.w3.org/Graphics/SVG/1.1/DTD/svg11.dtd">
<!-- Generated by graphviz version 10.0.1 (20240210.2158)
 -->
<!-- Title: include/ComponentType.hpp Pages: 1 -->
<svg width="527pt" height="364pt"
 viewBox="0.00 0.00 526.61 364.00" xmlns="http://www.w3.org/2000/svg" xmlns:xlink="http://www.w3.org/1999/xlink">
<g id="graph0" class="graph" transform="scale(1 1) rotate(0) translate(4 360)">
<title>include/ComponentType.hpp</title>
<!-- Node1 -->
<g id="Node000001" class="node">
<title>Node1</title>
<g id="a_Node000001"><a xlink:title=" ">
<polygon fill="#999999" stroke="#666666" points="456.76,-356 317.76,-356 317.76,-336 456.76,-336 456.76,-356"/>
<text text-anchor="middle" x="387.26" y="-342.5" font-family="Helvetica,sans-Serif" font-size="10.00">include/ComponentType.hpp</text>
</a>
</g>
</g>
<!-- Node2 -->
<g id="Node000002" class="node">
<title>Node2</title>
<g id="a_Node000002"><a xlink:href="_component_8hpp.html" target="_top" xlink:title=" ">
<polygon fill="white" stroke="#666666" points="305.26,-300 187.26,-300 187.26,-280 305.26,-280 305.26,-300"/>
<text text-anchor="middle" x="246.26" y="-286.5" font-family="Helvetica,sans-Serif" font-size="10.00">include/Component.hpp</text>
</a>
</g>
</g>
<!-- Node1&#45;&gt;Node2 -->
<g id="edge1_Node000001_Node000002" class="edge">
<title>Node1&#45;&gt;Node2</title>
<g id="a_edge1_Node000001_Node000002"><a xlink:title=" ">
<path fill="none" stroke="#63b8ff" d="M352.1,-331.53C326.86,-321.87 293.48,-309.08 271.01,-300.48"/>
<polygon fill="#63b8ff" stroke="#63b8ff" points="350.7,-334.74 361.29,-335.05 353.2,-328.21 350.7,-334.74"/>
</a>
</g>
</g>
<!-- Node3 -->
<g id="Node000003" class="node">
<title>Node3</title>
<g id="a_Node000003"><a xlink:href="_game_entity_8hpp.html" target="_top" xlink:title=" ">
<polygon fill="white" stroke="#666666" points="306.39,-188 186.14,-188 186.14,-168 306.39,-168 306.39,-188"/>
<text text-anchor="middle" x="246.26" y="-174.5" font-family="Helvetica,sans-Serif" font-size="10.00">include/GameEntity.hpp</text>
</a>
</g>
</g>
<!-- Node1&#45;&gt;Node3 -->
<g id="edge13_Node000001_Node000003" class="edge">
<title>Node1&#45;&gt;Node3</title>
<g id="a_edge13_Node000001_Node000003"><a xlink:title=" ">
<path fill="none" stroke="#63b8ff" d="M420.85,-330.86C467.97,-309.07 544.23,-265.46 509.26,-224 483.88,-193.9 376.23,-183.93 306.77,-180.63"/>
<polygon fill="#63b8ff" stroke="#63b8ff" points="419.5,-327.63 411.82,-334.92 422.37,-334.01 419.5,-327.63"/>
</a>
</g>
</g>
<!-- Node2&#45;&gt;Node3 -->
<g id="edge2_Node000002_Node000003" class="edge">
<title>Node2&#45;&gt;Node3</title>
<g id="a_edge2_Node000002_Node000003"><a xlink:title=" ">
<path fill="none" stroke="#63b8ff" d="M175.67,-285.62C112.2,-280.92 25.75,-269.85 4.26,-244 -1.42,-237.16 -1.42,-230.84 4.26,-224 26.9,-196.76 121.67,-185.93 185.68,-181.68"/>
<polygon fill="#63b8ff" stroke="#63b8ff" points="175.1,-289.09 185.32,-286.29 175.59,-282.1 175.1,-289.09"/>
</a>
</g>
</g>
<!-- Node7 -->
<g id="Node000007" class="node">
<title>Node7</title>
<g id="a_Node000007"><a xlink:href="_input_component_8hpp.html" target="_top" xlink:title=" ">
<polygon fill="white" stroke="#666666" points="152.76,-244 13.76,-244 13.76,-224 152.76,-224 152.76,-244"/>
<text text-anchor="middle" x="83.26" y="-230.5" font-family="Helvetica,sans-Serif" font-size="10.00">include/InputComponent.hpp</text>
</a>
</g>
</g>
<!-- Node2&#45;&gt;Node7 -->
<g id="edge7_Node000002_Node000007" class="edge">
<title>Node2&#45;&gt;Node7</title>
<g id="a_edge7_Node000002_Node000007"><a xlink:title=" ">
<path fill="none" stroke="#63b8ff" d="M207.17,-276.05C177.83,-266.33 138.32,-253.24 111.88,-244.48"/>
<polygon fill="#63b8ff" stroke="#63b8ff" points="205.84,-279.3 216.43,-279.12 208.04,-272.65 205.84,-279.3"/>
</a>
</g>
</g>
<!-- Node8 -->
<g id="Node000008" class="node">
<title>Node8</title>
<g id="a_Node000008"><a xlink:href="_texture_component_8hpp.html" target="_top" xlink:title=" ">
<polygon fill="white" stroke="#666666" points="321.39,-244 171.14,-244 171.14,-224 321.39,-224 321.39,-244"/>
<text text-anchor="middle" x="246.26" y="-230.5" font-family="Helvetica,sans-Serif" font-size="10.00">include/TextureComponent.hpp</text>
</a>
</g>
</g>
<!-- Node2&#45;&gt;Node8 -->
<g id="edge9_Node000002_Node000008" class="edge">
<title>Node2&#45;&gt;Node8</title>
<g id="a_edge9_Node000002_Node000008"><a xlink:title=" ">
<path fill="none" stroke="#63b8ff" d="M246.26,-268.13C246.26,-259.9 246.26,-250.85 246.26,-244.3"/>
<polygon fill="#63b8ff" stroke="#63b8ff" points="242.76,-268.08 246.26,-278.08 249.76,-268.08 242.76,-268.08"/>
</a>
</g>
</g>
<!-- Node9 -->
<g id="Node000009" class="node">
<title>Node9</title>
<g id="a_Node000009"><a xlink:href="_transform_component_8hpp.html" target="_top" xlink:title=" ">
<polygon fill="white" stroke="#666666" points="500.64,-244 339.89,-244 339.89,-224 500.64,-224 500.64,-244"/>
<text text-anchor="middle" x="420.26" y="-230.5" font-family="Helvetica,sans-Serif" font-size="10.00">include/TransformComponent.hpp</text>
</a>
</g>
</g>
<!-- Node2&#45;&gt;Node9 -->
<g id="edge11_Node000002_Node000009" class="edge">
<title>Node2&#45;&gt;Node9</title>
<g id="a_edge11_Node000002_Node000009"><a xlink:title=" ">
<path fill="none" stroke="#63b8ff" d="M287.17,-276.31C318.57,-266.56 361.24,-253.32 389.72,-244.48"/>
<polygon fill="#63b8ff" stroke="#63b8ff" points="286.53,-272.84 278.02,-279.15 288.6,-279.52 286.53,-272.84"/>
</a>
</g>
</g>
<!-- Node4 -->
<g id="Node000004" class="node">
<title>Node4</title>
<g id="a_Node000004"><a xlink:href="_scene_8hpp.html" target="_top" xlink:title=" ">
<polygon fill="white" stroke="#666666" points="294.39,-132 198.14,-132 198.14,-112 294.39,-112 294.39,-132"/>
<text text-anchor="middle" x="246.26" y="-118.5" font-family="Helvetica,sans-Serif" font-size="10.00">include/Scene.hpp</text>
</a>
</g>
</g>
<!-- Node3&#45;&gt;Node4 -->
<g id="edge3_Node000003_Node000004" class="edge">
<title>Node3&#45;&gt;Node4</title>
<g id="a_edge3_Node000003_Node000004"><a xlink:title=" ">
<path fill="none" stroke="#63b8ff" d="M246.26,-156.13C246.26,-147.9 246.26,-138.85 246.26,-132.3"/>
<polygon fill="#63b8ff" stroke="#63b8ff" points="242.76,-156.08 246.26,-166.08 249.76,-156.08 242.76,-156.08"/>
</a>
</g>
</g>
<!-- Node5 -->
<g id="Node000005" class="node">
<title>Node5</title>
<g id="a_Node000005"><a xlink:href="_application_8hpp.html" target="_top" xlink:title=" ">
<polygon fill="white" stroke="#666666" points="304.51,-20 188.01,-20 188.01,0 304.51,0 304.51,-20"/>
<text text-anchor="middle" x="246.26" y="-6.5" font-family="Helvetica,sans-Serif" font-size="10.00">include/Application.hpp</text>
</a>
</g>
</g>
<!-- Node4&#45;&gt;Node5 -->
<g id="edge4_Node000004_Node000005" class="edge">
<title>Node4&#45;&gt;Node5</title>
<g id="a_edge4_Node000004_Node000005"><a xlink:title=" ">
<path fill="none" stroke="#63b8ff" d="M233.37,-101.84C228.93,-94.15 224.51,-84.99 222.26,-76 217.18,-55.69 230.1,-32.96 238.89,-20.48"/>
<polygon fill="#63b8ff" stroke="#63b8ff" points="230.38,-103.65 238.64,-110.28 236.31,-99.94 230.38,-103.65"/>
</a>
</g>
</g>
<!-- Node6 -->
<g id="Node000006" class="node">
<title>Node6</title>
<g id="a_Node000006"><a xlink:href="_gui_handler_8hpp.html" target="_top" xlink:title=" ">
<polygon fill="white" stroke="#666666" points="347.51,-76 231.01,-76 231.01,-56 347.51,-56 347.51,-76"/>
<text text-anchor="middle" x="289.26" y="-62.5" font-family="Helvetica,sans-Serif" font-size="10.00">include/GuiHandler.hpp</text>
</a>
</g>
</g>
<!-- Node4&#45;&gt;Node6 -->
<g id="edge5_Node000004_Node000006" class="edge">
<title>Node4&#45;&gt;Node6</title>
<g id="a_edge5_Node000004_Node000006"><a xlink:title=" ">
<path fill="none" stroke="#63b8ff" d="M260.82,-102.72C267.89,-93.84 276.09,-83.55 281.86,-76.3"/>
<polygon fill="#63b8ff" stroke="#63b8ff" points="258.19,-100.41 254.69,-110.41 263.66,-104.77 258.19,-100.41"/>
</a>
</g>
</g>
<!-- Node6&#45;&gt;Node5 -->
<g id="edge6_Node000006_Node000005" class="edge">
<title>Node6&#45;&gt;Node5</title>
<g id="a_edge6_Node000006_Node000005"><a xlink:title=" ">
<path fill="none" stroke="#63b8ff" d="M274.71,-46.72C267.63,-37.84 259.44,-27.55 253.67,-20.3"/>
<polygon fill="#63b8ff" stroke="#63b8ff" points="271.86,-48.77 280.83,-54.41 277.34,-44.41 271.86,-48.77"/>
</a>
</g>
</g>
<!-- Node7&#45;&gt;Node3 -->
<g id="edge8_Node000007_Node000003" class="edge">
<title>Node7&#45;&gt;Node3</title>
<g id="a_edge8_Node000007_Node000003"><a xlink:title=" ">
<path fill="none" stroke="#63b8ff" d="M122.35,-220.05C151.7,-210.33 191.21,-197.24 217.65,-188.48"/>
<polygon fill="#63b8ff" stroke="#63b8ff" points="121.48,-216.65 113.09,-223.12 123.68,-223.3 121.48,-216.65"/>
</a>
</g>
</g>
<!-- Node8&#45;&gt;Node3 -->
<g id="edge10_Node000008_Node000003" class="edge">
<title>Node8&#45;&gt;Node3</title>
<g id="a_edge10_Node000008_Node000003"><a xlink:title=" ">
<path fill="none" stroke="#63b8ff" d="M246.26,-212.13C246.26,-203.9 246.26,-194.85 246.26,-188.3"/>
<polygon fill="#63b8ff" stroke="#63b8ff" points="242.76,-212.08 246.26,-222.08 249.76,-212.08 242.76,-212.08"/>
</a>
</g>
</g>
<!-- Node9&#45;&gt;Node3 -->
<g id="edge12_Node000009_Node000003" class="edge">
<title>Node9&#45;&gt;Node3</title>
<g id="a_edge12_Node000009_Node000003"><a xlink:title=" ">
<path fill="none" stroke="#63b8ff" d="M379.36,-220.31C347.95,-210.56 305.28,-197.32 276.81,-188.48"/>
<polygon fill="#63b8ff" stroke="#63b8ff" points="377.92,-223.52 388.51,-223.15 379.99,-216.84 377.92,-223.52"/>
</a>
</g>
</g>
</g>
</svg>
