<?xml version="1.0" encoding="UTF-8" standalone="no"?>
<!DOCTYPE svg PUBLIC "-//W3C//DTD SVG 1.1//EN"
 "http://www.w3.org/Graphics/SVG/1.1/DTD/svg11.dtd">
<!-- Generated by graphviz version 10.0.1 (20240210.2158)
 -->
<!-- Title: include/Component.hpp Pages: 1 -->
<svg width="512pt" height="308pt"
 viewBox="0.00 0.00 511.59 308.00" xmlns="http://www.w3.org/2000/svg" xmlns:xlink="http://www.w3.org/1999/xlink">
<g id="graph0" class="graph" transform="scale(1 1) rotate(0) translate(4 304)">
<title>include/Component.hpp</title>
<!-- Node1 -->
<g id="Node000001" class="node">
<title>Node1</title>
<g id="a_Node000001"><a xlink:title=" ">
<polygon fill="#999999" stroke="#666666" points="226.21,-300 108.21,-300 108.21,-280 226.21,-280 226.21,-300"/>
<text text-anchor="middle" x="167.21" y="-286.5" font-family="Helvetica,sans-Serif" font-size="10.00">include/Component.hpp</text>
</a>
</g>
</g>
<!-- Node2 -->
<g id="Node000002" class="node">
<title>Node2</title>
<g id="a_Node000002"><a xlink:href="_game_entity_8hpp.html" target="_top" xlink:title=" ">
<polygon fill="white" stroke="#666666" points="227.34,-188 107.09,-188 107.09,-168 227.34,-168 227.34,-188"/>
<text text-anchor="middle" x="167.21" y="-174.5" font-family="Helvetica,sans-Serif" font-size="10.00">include/GameEntity.hpp</text>
</a>
</g>
</g>
<!-- Node1&#45;&gt;Node2 -->
<g id="edge1_Node000001_Node000002" class="edge">
<title>Node1&#45;&gt;Node2</title>
<g id="a_edge1_Node000001_Node000002"><a xlink:title=" ">
<path fill="none" stroke="#63b8ff" d="M97.06,-277.84C59.43,-270.27 18.51,-258.92 7.21,-244 -22.16,-205.22 49.97,-189.49 106.74,-183.17"/>
<polygon fill="#63b8ff" stroke="#63b8ff" points="96.1,-281.22 106.58,-279.68 97.43,-274.35 96.1,-281.22"/>
</a>
</g>
</g>
<!-- Node6 -->
<g id="Node000006" class="node">
<title>Node6</title>
<g id="a_Node000006"><a xlink:href="_input_component_8hpp.html" target="_top" xlink:title=" ">
<polygon fill="white" stroke="#666666" points="155.71,-244 16.71,-244 16.71,-224 155.71,-224 155.71,-244"/>
<text text-anchor="middle" x="86.21" y="-230.5" font-family="Helvetica,sans-Serif" font-size="10.00">include/InputComponent.hpp</text>
</a>
</g>
</g>
<!-- Node1&#45;&gt;Node6 -->
<g id="edge6_Node000001_Node000006" class="edge">
<title>Node1&#45;&gt;Node6</title>
<g id="a_edge6_Node000001_Node000006"><a xlink:title=" ">
<path fill="none" stroke="#63b8ff" d="M143.62,-273.27C129.63,-263.94 112.36,-252.43 100.43,-244.48"/>
<polygon fill="#63b8ff" stroke="#63b8ff" points="141.58,-276.12 151.85,-278.75 145.47,-270.3 141.58,-276.12"/>
</a>
</g>
</g>
<!-- Node7 -->
<g id="Node000007" class="node">
<title>Node7</title>
<g id="a_Node000007"><a xlink:href="_texture_component_8hpp.html" target="_top" xlink:title=" ">
<polygon fill="white" stroke="#666666" points="324.34,-244 174.09,-244 174.09,-224 324.34,-224 324.34,-244"/>
<text text-anchor="middle" x="249.21" y="-230.5" font-family="Helvetica,sans-Serif" font-size="10.00">include/TextureComponent.hpp</text>
</a>
</g>
</g>
<!-- Node1&#45;&gt;Node7 -->
<g id="edge8_Node000001_Node000007" class="edge">
<title>Node1&#45;&gt;Node7</title>
<g id="a_edge8_Node000001_Node000007"><a xlink:title=" ">
<path fill="none" stroke="#63b8ff" d="M191.1,-273.27C205.26,-263.94 222.75,-252.43 234.82,-244.48"/>
<polygon fill="#63b8ff" stroke="#63b8ff" points="189.19,-270.34 182.76,-278.76 193.04,-276.18 189.19,-270.34"/>
</a>
</g>
</g>
<!-- Node8 -->
<g id="Node000008" class="node">
<title>Node8</title>
<g id="a_Node000008"><a xlink:href="_transform_component_8hpp.html" target="_top" xlink:title=" ">
<polygon fill="white" stroke="#666666" points="503.59,-244 342.84,-244 342.84,-224 503.59,-224 503.59,-244"/>
<text text-anchor="middle" x="423.21" y="-230.5" font-family="Helvetica,sans-Serif" font-size="10.00">include/TransformComponent.hpp</text>
</a>
</g>
</g>
<!-- Node1&#45;&gt;Node8 -->
<g id="edge10_Node000001_Node000008" class="edge">
<title>Node1&#45;&gt;Node8</title>
<g id="a_edge10_Node000001_Node000008"><a xlink:title=" ">
<path fill="none" stroke="#63b8ff" d="M223.21,-277.19C269.79,-267.36 335.21,-253.56 378.38,-244.46"/>
<polygon fill="#63b8ff" stroke="#63b8ff" points="222.64,-273.73 213.58,-279.22 224.09,-280.58 222.64,-273.73"/>
</a>
</g>
</g>
<!-- Node3 -->
<g id="Node000003" class="node">
<title>Node3</title>
<g id="a_Node000003"><a xlink:href="_scene_8hpp.html" target="_top" xlink:title=" ">
<polygon fill="white" stroke="#666666" points="215.34,-132 119.09,-132 119.09,-112 215.34,-112 215.34,-132"/>
<text text-anchor="middle" x="167.21" y="-118.5" font-family="Helvetica,sans-Serif" font-size="10.00">include/Scene.hpp</text>
</a>
</g>
</g>
<!-- Node2&#45;&gt;Node3 -->
<g id="edge2_Node000002_Node000003" class="edge">
<title>Node2&#45;&gt;Node3</title>
<g id="a_edge2_Node000002_Node000003"><a xlink:title=" ">
<path fill="none" stroke="#63b8ff" d="M167.21,-156.13C167.21,-147.9 167.21,-138.85 167.21,-132.3"/>
<polygon fill="#63b8ff" stroke="#63b8ff" points="163.71,-156.08 167.21,-166.08 170.71,-156.08 163.71,-156.08"/>
</a>
</g>
</g>
<!-- Node4 -->
<g id="Node000004" class="node">
<title>Node4</title>
<g id="a_Node000004"><a xlink:href="_application_8hpp.html" target="_top" xlink:title=" ">
<polygon fill="white" stroke="#666666" points="225.46,-20 108.96,-20 108.96,0 225.46,0 225.46,-20"/>
<text text-anchor="middle" x="167.21" y="-6.5" font-family="Helvetica,sans-Serif" font-size="10.00">include/Application.hpp</text>
</a>
</g>
</g>
<!-- Node3&#45;&gt;Node4 -->
<g id="edge3_Node000003_Node000004" class="edge">
<title>Node3&#45;&gt;Node4</title>
<g id="a_edge3_Node000003_Node000004"><a xlink:title=" ">
<path fill="none" stroke="#63b8ff" d="M154.33,-101.84C149.88,-94.15 145.46,-84.99 143.21,-76 138.14,-55.69 151.05,-32.96 159.84,-20.48"/>
<polygon fill="#63b8ff" stroke="#63b8ff" points="151.33,-103.65 159.59,-110.28 157.27,-99.94 151.33,-103.65"/>
</a>
</g>
</g>
<!-- Node5 -->
<g id="Node000005" class="node">
<title>Node5</title>
<g id="a_Node000005"><a xlink:href="_gui_handler_8hpp.html" target="_top" xlink:title=" ">
<polygon fill="white" stroke="#666666" points="268.46,-76 151.96,-76 151.96,-56 268.46,-56 268.46,-76"/>
<text text-anchor="middle" x="210.21" y="-62.5" font-family="Helvetica,sans-Serif" font-size="10.00">include/GuiHandler.hpp</text>
</a>
</g>
</g>
<!-- Node3&#45;&gt;Node5 -->
<g id="edge4_Node000003_Node000005" class="edge">
<title>Node3&#45;&gt;Node5</title>
<g id="a_edge4_Node000003_Node000005"><a xlink:title=" ">
<path fill="none" stroke="#63b8ff" d="M181.77,-102.72C188.84,-93.84 197.04,-83.55 202.81,-76.3"/>
<polygon fill="#63b8ff" stroke="#63b8ff" points="179.14,-100.41 175.65,-110.41 184.61,-104.77 179.14,-100.41"/>
</a>
</g>
</g>
<!-- Node5&#45;&gt;Node4 -->
<g id="edge5_Node000005_Node000004" class="edge">
<title>Node5&#45;&gt;Node4</title>
<g id="a_edge5_Node000005_Node000004"><a xlink:title=" ">
<path fill="none" stroke="#63b8ff" d="M195.66,-46.72C188.59,-37.84 180.39,-27.55 174.62,-20.3"/>
<polygon fill="#63b8ff" stroke="#63b8ff" points="192.81,-48.77 201.78,-54.41 198.29,-44.41 192.81,-48.77"/>
</a>
</g>
</g>
<!-- Node6&#45;&gt;Node2 -->
<g id="edge7_Node000006_Node000002" class="edge">
<title>Node6&#45;&gt;Node2</title>
<g id="a_edge7_Node000006_Node000002"><a xlink:title=" ">
<path fill="none" stroke="#63b8ff" d="M109.81,-217.27C123.8,-207.94 141.07,-196.43 152.99,-188.48"/>
<polygon fill="#63b8ff" stroke="#63b8ff" points="107.96,-214.3 101.58,-222.75 111.84,-220.12 107.96,-214.3"/>
</a>
</g>
</g>
<!-- Node7&#45;&gt;Node2 -->
<g id="edge9_Node000007_Node000002" class="edge">
<title>Node7&#45;&gt;Node2</title>
<g id="a_edge9_Node000007_Node000002"><a xlink:title=" ">
<path fill="none" stroke="#63b8ff" d="M225.33,-217.27C211.16,-207.94 193.68,-196.43 181.61,-188.48"/>
<polygon fill="#63b8ff" stroke="#63b8ff" points="223.39,-220.18 233.67,-222.76 227.24,-214.34 223.39,-220.18"/>
</a>
</g>
</g>
<!-- Node8&#45;&gt;Node2 -->
<g id="edge11_Node000008_Node000002" class="edge">
<title>Node8&#45;&gt;Node2</title>
<g id="a_edge11_Node000008_Node000002"><a xlink:title=" ">
<path fill="none" stroke="#63b8ff" d="M367.22,-221.19C320.64,-211.36 255.22,-197.56 212.05,-188.46"/>
<polygon fill="#63b8ff" stroke="#63b8ff" points="366.34,-224.58 376.85,-223.22 367.79,-217.73 366.34,-224.58"/>
</a>
</g>
</g>
</g>
</svg>
