<?xml version="1.0" encoding="UTF-8" standalone="no"?>
<!DOCTYPE svg PUBLIC "-//W3C//DTD SVG 1.1//EN"
 "http://www.w3.org/Graphics/SVG/1.1/DTD/svg11.dtd">
<!-- Generated by graphviz version 10.0.1 (20240210.2158)
 -->
<!-- Title: include/Scene.hpp Pages: 1 -->
<svg width="992pt" height="252pt"
 viewBox="0.00 0.00 992.10 252.00" xmlns="http://www.w3.org/2000/svg" xmlns:xlink="http://www.w3.org/1999/xlink">
<g id="graph0" class="graph" transform="scale(1 1) rotate(0) translate(4 248)">
<title>include/Scene.hpp</title>
<!-- Node1 -->
<g id="Node000001" class="node">
<title>Node1</title>
<g id="a_Node000001"><a xlink:title=" ">
<polygon fill="#999999" stroke="#666666" points="748.1,-244 651.85,-244 651.85,-224 748.1,-224 748.1,-244"/>
<text text-anchor="middle" x="699.98" y="-230.5" font-family="Helvetica,sans-Serif" font-size="10.00">include/Scene.hpp</text>
</a>
</g>
</g>
<!-- Node2 -->
<g id="Node000002" class="node">
<title>Node2</title>
<g id="a_Node000002"><a xlink:title=" ">
<polygon fill="#e0e0e0" stroke="#999999" points="245.98,-20 175.98,-20 175.98,0 245.98,0 245.98,-20"/>
<text text-anchor="middle" x="210.98" y="-6.5" font-family="Helvetica,sans-Serif" font-size="10.00">SDL3/SDL.h</text>
</a>
</g>
</g>
<!-- Node1&#45;&gt;Node2 -->
<g id="edge1_Node000001_Node000002" class="edge">
<title>Node1&#45;&gt;Node2</title>
<g id="a_edge1_Node000001_Node000002"><a xlink:title=" ">
<path fill="none" stroke="#63b8ff" d="M651.42,-233.21C523.19,-233.19 178.16,-229.18 72.98,-188 35.88,-173.47 20.24,-167.91 2.98,-132 -8.23,-108.68 17.02,-60.51 21.98,-56 42.58,-37.23 115.34,-23.94 164.33,-16.88"/>
<polygon fill="#63b8ff" stroke="#63b8ff" points="164.7,-20.36 174.12,-15.51 163.73,-13.43 164.7,-20.36"/>
</a>
</g>
</g>
<!-- Node3 -->
<g id="Node000003" class="node">
<title>Node3</title>
<g id="a_Node000003"><a xlink:title=" ">
<polygon fill="#e0e0e0" stroke="#999999" points="772.23,-188 727.73,-188 727.73,-168 772.23,-168 772.23,-188"/>
<text text-anchor="middle" x="749.98" y="-174.5" font-family="Helvetica,sans-Serif" font-size="10.00">cstdlib</text>
</a>
</g>
</g>
<!-- Node1&#45;&gt;Node3 -->
<g id="edge2_Node000001_Node000003" class="edge">
<title>Node1&#45;&gt;Node3</title>
<g id="a_edge2_Node000001_Node000003"><a xlink:title=" ">
<path fill="none" stroke="#63b8ff" d="M708.69,-223.59C715.57,-216.16 725.37,-205.58 733.7,-196.58"/>
<polygon fill="#63b8ff" stroke="#63b8ff" points="736.11,-199.12 740.34,-189.41 730.98,-194.37 736.11,-199.12"/>
</a>
</g>
</g>
<!-- Node4 -->
<g id="Node000004" class="node">
<title>Node4</title>
<g id="a_Node000004"><a xlink:title=" ">
<polygon fill="#e0e0e0" stroke="#999999" points="674.73,-132 633.23,-132 633.23,-112 674.73,-112 674.73,-132"/>
<text text-anchor="middle" x="653.98" y="-118.5" font-family="Helvetica,sans-Serif" font-size="10.00">vector</text>
</a>
</g>
</g>
<!-- Node1&#45;&gt;Node4 -->
<g id="edge3_Node000001_Node000004" class="edge">
<title>Node1&#45;&gt;Node4</title>
<g id="a_edge3_Node000001_Node000004"><a xlink:title=" ">
<path fill="none" stroke="#63b8ff" d="M696.06,-223.62C688.59,-205.76 672.18,-166.53 662.2,-142.67"/>
<polygon fill="#63b8ff" stroke="#63b8ff" points="665.56,-141.63 658.47,-133.75 659.1,-144.33 665.56,-141.63"/>
</a>
</g>
</g>
<!-- Node5 -->
<g id="Node000005" class="node">
<title>Node5</title>
<g id="a_Node000005"><a xlink:title=" ">
<polygon fill="#e0e0e0" stroke="#999999" points="442.6,-20 391.35,-20 391.35,0 442.6,0 442.6,-20"/>
<text text-anchor="middle" x="416.98" y="-6.5" font-family="Helvetica,sans-Serif" font-size="10.00">memory</text>
</a>
</g>
</g>
<!-- Node1&#45;&gt;Node5 -->
<g id="edge4_Node000001_Node000005" class="edge">
<title>Node1&#45;&gt;Node5</title>
<g id="a_edge4_Node000001_Node000005"><a xlink:title=" ">
<path fill="none" stroke="#63b8ff" d="M701.67,-223.62C705.08,-201.55 710.37,-145.7 683.98,-112 627.51,-39.91 513.46,-19.27 454.37,-13.36"/>
<polygon fill="#63b8ff" stroke="#63b8ff" points="454.76,-9.88 444.48,-12.48 454.13,-16.86 454.76,-9.88"/>
</a>
</g>
</g>
<!-- Node6 -->
<g id="Node000006" class="node">
<title>Node6</title>
<g id="a_Node000006"><a xlink:title=" ">
<polygon fill="#e0e0e0" stroke="#999999" points="845.85,-188 790.1,-188 790.1,-168 845.85,-168 845.85,-188"/>
<text text-anchor="middle" x="817.98" y="-174.5" font-family="Helvetica,sans-Serif" font-size="10.00">algorithm</text>
</a>
</g>
</g>
<!-- Node1&#45;&gt;Node6 -->
<g id="edge5_Node000001_Node000006" class="edge">
<title>Node1&#45;&gt;Node6</title>
<g id="a_edge5_Node000001_Node000006"><a xlink:title=" ">
<path fill="none" stroke="#63b8ff" d="M720.53,-223.59C738.86,-215.21 765.96,-202.8 786.93,-193.21"/>
<polygon fill="#63b8ff" stroke="#63b8ff" points="788.25,-196.45 795.89,-189.11 785.34,-190.09 788.25,-196.45"/>
</a>
</g>
</g>
<!-- Node7 -->
<g id="Node000007" class="node">
<title>Node7</title>
<g id="a_Node000007"><a xlink:title=" ">
<polygon fill="#e0e0e0" stroke="#999999" points="249.98,-76 209.98,-76 209.98,-56 249.98,-56 249.98,-76"/>
<text text-anchor="middle" x="229.98" y="-62.5" font-family="Helvetica,sans-Serif" font-size="10.00">string</text>
</a>
</g>
</g>
<!-- Node1&#45;&gt;Node7 -->
<g id="edge6_Node000001_Node000007" class="edge">
<title>Node1&#45;&gt;Node7</title>
<g id="a_edge6_Node000001_Node000007"><a xlink:title=" ">
<path fill="none" stroke="#63b8ff" d="M651.57,-233.71C509.35,-234.65 97.62,-228.81 15.98,-132 -34.54,-72.09 127.6,-66.24 198.49,-66.45"/>
<polygon fill="#63b8ff" stroke="#63b8ff" points="198.28,-69.95 208.31,-66.53 198.34,-62.95 198.28,-69.95"/>
</a>
</g>
</g>
<!-- Node8 -->
<g id="Node000008" class="node">
<title>Node8</title>
<g id="a_Node000008"><a xlink:title=" ">
<polygon fill="#e0e0e0" stroke="#999999" points="917.73,-188 864.23,-188 864.23,-168 917.73,-168 917.73,-188"/>
<text text-anchor="middle" x="890.98" y="-174.5" font-family="Helvetica,sans-Serif" font-size="10.00">iostream</text>
</a>
</g>
</g>
<!-- Node1&#45;&gt;Node8 -->
<g id="edge7_Node000001_Node000008" class="edge">
<title>Node1&#45;&gt;Node8</title>
<g id="a_edge7_Node000001_Node000008"><a xlink:title=" ">
<path fill="none" stroke="#63b8ff" d="M733.25,-223.59C766.71,-214.13 818.24,-199.57 853.22,-189.68"/>
<polygon fill="#63b8ff" stroke="#63b8ff" points="853.82,-193.14 862.49,-187.05 851.92,-186.41 853.82,-193.14"/>
</a>
</g>
</g>
<!-- Node9 -->
<g id="Node000009" class="node">
<title>Node9</title>
<g id="a_Node000009"><a xlink:title=" ">
<polygon fill="#e0e0e0" stroke="#999999" points="984.1,-188 935.85,-188 935.85,-168 984.1,-168 984.1,-188"/>
<text text-anchor="middle" x="959.98" y="-174.5" font-family="Helvetica,sans-Serif" font-size="10.00">fstream</text>
</a>
</g>
</g>
<!-- Node1&#45;&gt;Node9 -->
<g id="edge8_Node000001_Node000009" class="edge">
<title>Node1&#45;&gt;Node9</title>
<g id="a_edge8_Node000001_Node000009"><a xlink:title=" ">
<path fill="none" stroke="#63b8ff" d="M748.46,-224.41C792.13,-216.45 858.33,-203.82 924.48,-188.47"/>
<polygon fill="#63b8ff" stroke="#63b8ff" points="925.11,-191.91 934.04,-186.22 923.51,-185.1 925.11,-191.91"/>
</a>
</g>
</g>
<!-- Node10 -->
<g id="Node000010" class="node">
<title>Node10</title>
<g id="a_Node000010"><a xlink:href="_game_entity_8hpp.html" target="_top" xlink:title=" ">
<polygon fill="white" stroke="#666666" points="438.23,-188 351.73,-188 351.73,-168 438.23,-168 438.23,-188"/>
<text text-anchor="middle" x="394.98" y="-174.5" font-family="Helvetica,sans-Serif" font-size="10.00">GameEntity.hpp</text>
</a>
</g>
</g>
<!-- Node1&#45;&gt;Node10 -->
<g id="edge9_Node000001_Node000010" class="edge">
<title>Node1&#45;&gt;Node10</title>
<g id="a_edge9_Node000001_Node000010"><a xlink:title=" ">
<path fill="none" stroke="#63b8ff" d="M651.65,-224.44C596.69,-214.71 507.16,-198.86 449.68,-188.69"/>
<polygon fill="#63b8ff" stroke="#63b8ff" points="450.58,-185.29 440.12,-186.99 449.36,-192.18 450.58,-185.29"/>
</a>
</g>
</g>
<!-- Node10&#45;&gt;Node2 -->
<g id="edge10_Node000010_Node000002" class="edge">
<title>Node10&#45;&gt;Node2</title>
<g id="a_edge10_Node000010_Node000002"><a xlink:title=" ">
<path fill="none" stroke="#63b8ff" d="M351.31,-175.02C256.38,-170.27 37.95,-156.74 15.98,-132 -33.31,-76.51 92.39,-37.71 164.5,-20.69"/>
<polygon fill="#63b8ff" stroke="#63b8ff" points="165.14,-24.13 174.11,-18.48 163.58,-17.31 165.14,-24.13"/>
</a>
</g>
</g>
<!-- Node10&#45;&gt;Node4 -->
<g id="edge13_Node000010_Node000004" class="edge">
<title>Node10&#45;&gt;Node4</title>
<g id="a_edge13_Node000010_Node000004"><a xlink:title=" ">
<path fill="none" stroke="#63b8ff" d="M438.49,-168.97C483.73,-160.46 556.53,-146.29 618.98,-132 619.97,-131.77 620.97,-131.54 621.99,-131.3"/>
<polygon fill="#63b8ff" stroke="#63b8ff" points="622.58,-134.76 631.45,-128.97 620.91,-127.96 622.58,-134.76"/>
</a>
</g>
</g>
<!-- Node10&#45;&gt;Node5 -->
<g id="edge11_Node000010_Node000005" class="edge">
<title>Node10&#45;&gt;Node5</title>
<g id="a_edge11_Node000010_Node000005"><a xlink:title=" ">
<path fill="none" stroke="#63b8ff" d="M438.55,-170.1C478.96,-162.71 534.79,-149.62 547.98,-132 581.43,-87.29 502.72,-45.52 453.29,-24.74"/>
<polygon fill="#63b8ff" stroke="#63b8ff" points="454.62,-21.5 444.04,-20.96 451.98,-27.98 454.62,-21.5"/>
</a>
</g>
</g>
<!-- Node10&#45;&gt;Node7 -->
<g id="edge14_Node000010_Node000007" class="edge">
<title>Node10&#45;&gt;Node7</title>
<g id="a_edge14_Node000010_Node000007"><a xlink:title=" ">
<path fill="none" stroke="#63b8ff" d="M351.54,-173.65C320.08,-169.02 278.58,-158.03 251.98,-132 239.99,-120.27 234.54,-101.79 232.05,-87.52"/>
<polygon fill="#63b8ff" stroke="#63b8ff" points="235.55,-87.29 230.75,-77.85 228.62,-88.23 235.55,-87.29"/>
</a>
</g>
</g>
<!-- Node11 -->
<g id="Node000011" class="node">
<title>Node11</title>
<g id="a_Node000011"><a xlink:title=" ">
<polygon fill="#e0e0e0" stroke="#999999" points="59.35,-132 24.6,-132 24.6,-112 59.35,-112 59.35,-132"/>
<text text-anchor="middle" x="41.98" y="-118.5" font-family="Helvetica,sans-Serif" font-size="10.00">map</text>
</a>
</g>
</g>
<!-- Node10&#45;&gt;Node11 -->
<g id="edge12_Node000010_Node000011" class="edge">
<title>Node10&#45;&gt;Node11</title>
<g id="a_edge12_Node000010_Node000011"><a xlink:title=" ">
<path fill="none" stroke="#63b8ff" d="M351.36,-173.74C290.36,-168.59 176.03,-156.76 70.87,-132.31"/>
<polygon fill="#63b8ff" stroke="#63b8ff" points="71.75,-128.92 61.22,-130.02 70.14,-135.73 71.75,-128.92"/>
</a>
</g>
</g>
<!-- Node12 -->
<g id="Node000012" class="node">
<title>Node12</title>
<g id="a_Node000012"><a xlink:href="_component_type_8hpp.html" target="_top" xlink:title=" ">
<polygon fill="white" stroke="#666666" points="627.6,-20 522.35,-20 522.35,0 627.6,0 627.6,-20"/>
<text text-anchor="middle" x="574.98" y="-6.5" font-family="Helvetica,sans-Serif" font-size="10.00">ComponentType.hpp</text>
</a>
</g>
</g>
<!-- Node10&#45;&gt;Node12 -->
<g id="edge15_Node000010_Node000012" class="edge">
<title>Node10&#45;&gt;Node12</title>
<g id="a_edge15_Node000010_Node000012"><a xlink:title=" ">
<path fill="none" stroke="#63b8ff" d="M438.43,-171.24C483.26,-164.34 548.85,-151.25 564.98,-132 588.59,-103.81 584.66,-57.85 579.77,-31.43"/>
<polygon fill="#63b8ff" stroke="#63b8ff" points="583.2,-30.74 577.71,-21.67 576.35,-32.18 583.2,-30.74"/>
</a>
</g>
</g>
<!-- Node13 -->
<g id="Node000013" class="node">
<title>Node13</title>
<g id="a_Node000013"><a xlink:href="_component_8hpp.html" target="_top" xlink:title=" ">
<polygon fill="white" stroke="#666666" points="428.1,-76 343.85,-76 343.85,-56 428.1,-56 428.1,-76"/>
<text text-anchor="middle" x="385.98" y="-62.5" font-family="Helvetica,sans-Serif" font-size="10.00">Component.hpp</text>
</a>
</g>
</g>
<!-- Node10&#45;&gt;Node13 -->
<g id="edge16_Node000010_Node000013" class="edge">
<title>Node10&#45;&gt;Node13</title>
<g id="a_edge16_Node000010_Node000013"><a xlink:title=" ">
<path fill="none" stroke="#63b8ff" d="M394.21,-167.62C392.77,-150.01 389.63,-111.59 387.67,-87.65"/>
<polygon fill="#63b8ff" stroke="#63b8ff" points="391.17,-87.54 386.87,-77.86 384.19,-88.12 391.17,-87.54"/>
</a>
</g>
</g>
<!-- Node14 -->
<g id="Node000014" class="node">
<title>Node14</title>
<g id="a_Node000014"><a xlink:href="_texture_component_8hpp.html" target="_top" xlink:title=" ">
<polygon fill="white" stroke="#666666" points="539.23,-132 422.73,-132 422.73,-112 539.23,-112 539.23,-132"/>
<text text-anchor="middle" x="480.98" y="-118.5" font-family="Helvetica,sans-Serif" font-size="10.00">TextureComponent.hpp</text>
</a>
</g>
</g>
<!-- Node10&#45;&gt;Node14 -->
<g id="edge20_Node000010_Node000014" class="edge">
<title>Node10&#45;&gt;Node14</title>
<g id="a_edge20_Node000010_Node000014"><a xlink:title=" ">
<path fill="none" stroke="#63b8ff" d="M409.96,-167.59C422.7,-159.59 441.27,-147.93 456.22,-138.54"/>
<polygon fill="#63b8ff" stroke="#63b8ff" points="457.99,-141.57 464.6,-133.28 454.27,-135.64 457.99,-141.57"/>
</a>
</g>
</g>
<!-- Node15 -->
<g id="Node000015" class="node">
<title>Node15</title>
<g id="a_Node000015"><a xlink:href="_transform_component_8hpp.html" target="_top" xlink:title=" ">
<polygon fill="white" stroke="#666666" points="204.48,-132 77.48,-132 77.48,-112 204.48,-112 204.48,-132"/>
<text text-anchor="middle" x="140.98" y="-118.5" font-family="Helvetica,sans-Serif" font-size="10.00">TransformComponent.hpp</text>
</a>
</g>
</g>
<!-- Node10&#45;&gt;Node15 -->
<g id="edge25_Node000010_Node000015" class="edge">
<title>Node10&#45;&gt;Node15</title>
<g id="a_edge25_Node000010_Node000015"><a xlink:title=" ">
<path fill="none" stroke="#63b8ff" d="M351.31,-167.72C308.46,-158.61 242.96,-144.68 196.44,-134.79"/>
<polygon fill="#63b8ff" stroke="#63b8ff" points="197.34,-131.4 186.83,-132.75 195.88,-138.25 197.34,-131.4"/>
</a>
</g>
</g>
<!-- Node16 -->
<g id="Node000016" class="node">
<title>Node16</title>
<g id="a_Node000016"><a xlink:href="_input_component_8hpp.html" target="_top" xlink:title=" ">
<polygon fill="white" stroke="#666666" points="366.6,-132 261.35,-132 261.35,-112 366.6,-112 366.6,-132"/>
<text text-anchor="middle" x="313.98" y="-118.5" font-family="Helvetica,sans-Serif" font-size="10.00">InputComponent.hpp</text>
</a>
</g>
</g>
<!-- Node10&#45;&gt;Node16 -->
<g id="edge30_Node000010_Node000016" class="edge">
<title>Node10&#45;&gt;Node16</title>
<g id="a_edge30_Node000010_Node000016"><a xlink:title=" ">
<path fill="none" stroke="#63b8ff" d="M380.87,-167.59C368.98,-159.67 351.71,-148.16 337.7,-138.82"/>
<polygon fill="#63b8ff" stroke="#63b8ff" points="339.72,-135.95 329.46,-133.32 335.84,-141.78 339.72,-135.95"/>
</a>
</g>
</g>
<!-- Node13&#45;&gt;Node2 -->
<g id="edge17_Node000013_Node000002" class="edge">
<title>Node13&#45;&gt;Node2</title>
<g id="a_edge17_Node000013_Node000002"><a xlink:title=" ">
<path fill="none" stroke="#63b8ff" d="M355.5,-55.59C326.94,-46.78 284.03,-33.54 252.38,-23.78"/>
<polygon fill="#63b8ff" stroke="#63b8ff" points="253.73,-20.53 243.14,-20.93 251.67,-27.22 253.73,-20.53"/>
</a>
</g>
</g>
<!-- Node13&#45;&gt;Node5 -->
<g id="edge18_Node000013_Node000005" class="edge">
<title>Node13&#45;&gt;Node5</title>
<g id="a_edge18_Node000013_Node000005"><a xlink:title=" ">
<path fill="none" stroke="#63b8ff" d="M391.38,-55.59C395.42,-48.55 401.09,-38.67 406.07,-30"/>
<polygon fill="#63b8ff" stroke="#63b8ff" points="408.94,-32.03 410.89,-21.61 402.87,-28.54 408.94,-32.03"/>
</a>
</g>
</g>
<!-- Node13&#45;&gt;Node12 -->
<g id="edge19_Node000013_Node000012" class="edge">
<title>Node13&#45;&gt;Node12</title>
<g id="a_edge19_Node000013_Node000012"><a xlink:title=" ">
<path fill="none" stroke="#63b8ff" d="M418.9,-55.59C450.01,-46.71 496.89,-33.31 531.16,-23.52"/>
<polygon fill="#63b8ff" stroke="#63b8ff" points="531.69,-27.01 540.34,-20.9 529.77,-20.28 531.69,-27.01"/>
</a>
</g>
</g>
<!-- Node14&#45;&gt;Node2 -->
<g id="edge21_Node000014_Node000002" class="edge">
<title>Node14&#45;&gt;Node2</title>
<g id="a_edge21_Node000014_Node000002"><a xlink:title=" ">
<path fill="none" stroke="#63b8ff" d="M477.45,-111.76C471.46,-97.38 457.87,-69.87 436.98,-56 382.79,-20.02 306.27,-11.59 257.64,-10.23"/>
<polygon fill="#63b8ff" stroke="#63b8ff" points="257.78,-6.73 247.72,-10.05 257.66,-13.73 257.78,-6.73"/>
</a>
</g>
</g>
<!-- Node14&#45;&gt;Node5 -->
<g id="edge22_Node000014_Node000005" class="edge">
<title>Node14&#45;&gt;Node5</title>
<g id="a_edge22_Node000014_Node000005"><a xlink:title=" ">
<path fill="none" stroke="#63b8ff" d="M481.34,-111.51C481.43,-98.22 480.05,-73.71 469.98,-56 463.37,-44.39 452.58,-34.41 442.45,-26.82"/>
<polygon fill="#63b8ff" stroke="#63b8ff" points="444.54,-24.02 434.34,-21.17 440.54,-29.76 444.54,-24.02"/>
</a>
</g>
</g>
<!-- Node14&#45;&gt;Node7 -->
<g id="edge23_Node000014_Node000007" class="edge">
<title>Node14&#45;&gt;Node7</title>
<g id="a_edge23_Node000014_Node000007"><a xlink:title=" ">
<path fill="none" stroke="#63b8ff" d="M436.97,-111.53C386.74,-100.73 305.83,-83.32 261.51,-73.78"/>
<polygon fill="#63b8ff" stroke="#63b8ff" points="262.29,-70.37 251.77,-71.69 260.81,-77.21 262.29,-70.37"/>
</a>
</g>
</g>
<!-- Node14&#45;&gt;Node13 -->
<g id="edge24_Node000014_Node000013" class="edge">
<title>Node14&#45;&gt;Node13</title>
<g id="a_edge24_Node000014_Node000013"><a xlink:title=" ">
<path fill="none" stroke="#63b8ff" d="M464.43,-111.59C450.08,-103.44 429.05,-91.48 412.38,-82"/>
<polygon fill="#63b8ff" stroke="#63b8ff" points="414.39,-79.13 403.97,-77.23 410.93,-85.21 414.39,-79.13"/>
</a>
</g>
</g>
<!-- Node15&#45;&gt;Node2 -->
<g id="edge26_Node000015_Node000002" class="edge">
<title>Node15&#45;&gt;Node2</title>
<g id="a_edge26_Node000015_Node000002"><a xlink:title=" ">
<path fill="none" stroke="#63b8ff" d="M143.66,-111.65C147.68,-98.52 156.09,-74.22 167.98,-56 174.57,-45.9 183.59,-36.05 191.66,-28.16"/>
<polygon fill="#63b8ff" stroke="#63b8ff" points="193.89,-30.86 198.79,-21.47 189.11,-25.76 193.89,-30.86"/>
</a>
</g>
</g>
<!-- Node15&#45;&gt;Node5 -->
<g id="edge27_Node000015_Node000005" class="edge">
<title>Node15&#45;&gt;Node5</title>
<g id="a_edge27_Node000015_Node000005"><a xlink:title=" ">
<path fill="none" stroke="#63b8ff" d="M146.71,-111.77C156.15,-97.41 176.39,-69.93 200.98,-56 257.73,-23.85 334.55,-14.56 379.63,-11.94"/>
<polygon fill="#63b8ff" stroke="#63b8ff" points="379.59,-15.45 389.41,-11.46 379.25,-8.46 379.59,-15.45"/>
</a>
</g>
</g>
<!-- Node15&#45;&gt;Node7 -->
<g id="edge28_Node000015_Node000007" class="edge">
<title>Node15&#45;&gt;Node7</title>
<g id="a_edge28_Node000015_Node000007"><a xlink:title=" ">
<path fill="none" stroke="#63b8ff" d="M156.48,-111.59C169.8,-103.51 189.26,-91.71 204.8,-82.27"/>
<polygon fill="#63b8ff" stroke="#63b8ff" points="206.33,-85.44 213.06,-77.26 202.7,-79.46 206.33,-85.44"/>
</a>
</g>
</g>
<!-- Node15&#45;&gt;Node13 -->
<g id="edge29_Node000015_Node000013" class="edge">
<title>Node15&#45;&gt;Node13</title>
<g id="a_edge29_Node000015_Node000013"><a xlink:title=" ">
<path fill="none" stroke="#63b8ff" d="M183.93,-111.53C225.22,-102.43 287.73,-88.65 332.28,-78.83"/>
<polygon fill="#63b8ff" stroke="#63b8ff" points="332.99,-82.26 342,-76.69 331.48,-75.43 332.99,-82.26"/>
</a>
</g>
</g>
<!-- Node16&#45;&gt;Node2 -->
<g id="edge31_Node000016_Node000002" class="edge">
<title>Node16&#45;&gt;Node2</title>
<g id="a_edge31_Node000016_Node000002"><a xlink:title=" ">
<path fill="none" stroke="#63b8ff" d="M306.82,-111.89C296.61,-99.05 277.1,-75.07 258.98,-56 249.77,-46.31 238.95,-36.08 229.92,-27.83"/>
<polygon fill="#63b8ff" stroke="#63b8ff" points="232.5,-25.44 222.73,-21.34 227.81,-30.63 232.5,-25.44"/>
</a>
</g>
</g>
<!-- Node16&#45;&gt;Node5 -->
<g id="edge32_Node000016_Node000005" class="edge">
<title>Node16&#45;&gt;Node5</title>
<g id="a_edge32_Node000016_Node000005"><a xlink:title=" ">
<path fill="none" stroke="#63b8ff" d="M314.84,-111.57C316.52,-97.9 321.38,-72.45 334.98,-56 346.94,-41.52 364.84,-30.94 380.86,-23.69"/>
<polygon fill="#63b8ff" stroke="#63b8ff" points="381.78,-27.1 389.64,-19.99 379.06,-20.65 381.78,-27.1"/>
</a>
</g>
</g>
<!-- Node16&#45;&gt;Node7 -->
<g id="edge33_Node000016_Node000007" class="edge">
<title>Node16&#45;&gt;Node7</title>
<g id="a_edge33_Node000016_Node000007"><a xlink:title=" ">
<path fill="none" stroke="#63b8ff" d="M299.35,-111.59C286.9,-103.59 268.76,-91.93 254.16,-82.54"/>
<polygon fill="#63b8ff" stroke="#63b8ff" points="256.3,-79.76 246,-77.3 252.52,-85.65 256.3,-79.76"/>
</a>
</g>
</g>
<!-- Node16&#45;&gt;Node13 -->
<g id="edge34_Node000016_Node000013" class="edge">
<title>Node16&#45;&gt;Node13</title>
<g id="a_edge34_Node000016_Node000013"><a xlink:title=" ">
<path fill="none" stroke="#63b8ff" d="M326.52,-111.59C336.95,-103.77 352.03,-92.46 364.39,-83.19"/>
<polygon fill="#63b8ff" stroke="#63b8ff" points="366.47,-86.01 372.37,-77.21 362.27,-80.41 366.47,-86.01"/>
</a>
</g>
</g>
</g>
</svg>
