<?xml version="1.0" encoding="UTF-8" standalone="no"?>
<!DOCTYPE svg PUBLIC "-//W3C//DTD SVG 1.1//EN"
 "http://www.w3.org/Graphics/SVG/1.1/DTD/svg11.dtd">
<!-- Generated by graphviz version 10.0.1 (20240210.2158)
 -->
<!-- Title: include/Scene.hpp Pages: 1 -->
<svg width="168pt" height="140pt"
 viewBox="0.00 0.00 167.50 140.00" xmlns="http://www.w3.org/2000/svg" xmlns:xlink="http://www.w3.org/1999/xlink">
<g id="graph0" class="graph" transform="scale(1 1) rotate(0) translate(4 136)">
<title>include/Scene.hpp</title>
<!-- Node1 -->
<g id="Node000001" class="node">
<title>Node1</title>
<g id="a_Node000001"><a xlink:title=" ">
<polygon fill="#999999" stroke="#666666" points="106.38,-132 10.12,-132 10.12,-112 106.38,-112 106.38,-132"/>
<text text-anchor="middle" x="58.25" y="-118.5" font-family="Helvetica,sans-Serif" font-size="10.00">include/Scene.hpp</text>
</a>
</g>
</g>
<!-- Node2 -->
<g id="Node000002" class="node">
<title>Node2</title>
<g id="a_Node000002"><a xlink:href="_application_8hpp.html" target="_top" xlink:title=" ">
<polygon fill="white" stroke="#666666" points="116.5,-20 0,-20 0,0 116.5,0 116.5,-20"/>
<text text-anchor="middle" x="58.25" y="-6.5" font-family="Helvetica,sans-Serif" font-size="10.00">include/Application.hpp</text>
</a>
</g>
</g>
<!-- Node1&#45;&gt;Node2 -->
<g id="edge1_Node000001_Node000002" class="edge">
<title>Node1&#45;&gt;Node2</title>
<g id="a_edge1_Node000001_Node000002"><a xlink:title=" ">
<path fill="none" stroke="#63b8ff" d="M45.36,-101.84C40.92,-94.15 36.5,-84.99 34.25,-76 29.17,-55.69 42.09,-32.96 50.88,-20.48"/>
<polygon fill="#63b8ff" stroke="#63b8ff" points="42.36,-103.65 50.63,-110.28 48.3,-99.94 42.36,-103.65"/>
</a>
</g>
</g>
<!-- Node3 -->
<g id="Node000003" class="node">
<title>Node3</title>
<g id="a_Node000003"><a xlink:href="_gui_handler_8hpp.html" target="_top" xlink:title=" ">
<polygon fill="white" stroke="#666666" points="159.5,-76 43,-76 43,-56 159.5,-56 159.5,-76"/>
<text text-anchor="middle" x="101.25" y="-62.5" font-family="Helvetica,sans-Serif" font-size="10.00">include/GuiHandler.hpp</text>
</a>
</g>
</g>
<!-- Node1&#45;&gt;Node3 -->
<g id="edge2_Node000001_Node000003" class="edge">
<title>Node1&#45;&gt;Node3</title>
<g id="a_edge2_Node000001_Node000003"><a xlink:title=" ">
<path fill="none" stroke="#63b8ff" d="M72.81,-102.72C79.88,-93.84 88.07,-83.55 93.85,-76.3"/>
<polygon fill="#63b8ff" stroke="#63b8ff" points="70.17,-100.41 66.68,-110.41 75.65,-104.77 70.17,-100.41"/>
</a>
</g>
</g>
<!-- Node3&#45;&gt;Node2 -->
<g id="edge3_Node000003_Node000002" class="edge">
<title>Node3&#45;&gt;Node2</title>
<g id="a_edge3_Node000003_Node000002"><a xlink:title=" ">
<path fill="none" stroke="#63b8ff" d="M86.69,-46.72C79.62,-37.84 71.43,-27.55 65.65,-20.3"/>
<polygon fill="#63b8ff" stroke="#63b8ff" points="83.85,-48.77 92.82,-54.41 89.33,-44.41 83.85,-48.77"/>
</a>
</g>
</g>
</g>
</svg>
