<?xml version="1.0" encoding="UTF-8" standalone="no"?>
<!DOCTYPE svg PUBLIC "-//W3C//DTD SVG 1.1//EN"
 "http://www.w3.org/Graphics/SVG/1.1/DTD/svg11.dtd">
<!-- Generated by graphviz version 10.0.1 (20240210.2158)
 -->
<!-- Title: include/TransformComponent.hpp Pages: 1 -->
<svg width="190pt" height="252pt"
 viewBox="0.00 0.00 189.62 252.00" xmlns="http://www.w3.org/2000/svg" xmlns:xlink="http://www.w3.org/1999/xlink">
<g id="graph0" class="graph" transform="scale(1 1) rotate(0) translate(4 248)">
<title>include/TransformComponent.hpp</title>
<!-- Node1 -->
<g id="Node000001" class="node">
<title>Node1</title>
<g id="a_Node000001"><a xlink:title=" ">
<polygon fill="#999999" stroke="#666666" points="160.75,-244 0,-244 0,-224 160.75,-224 160.75,-244"/>
<text text-anchor="middle" x="80.38" y="-230.5" font-family="Helvetica,sans-Serif" font-size="10.00">include/TransformComponent.hpp</text>
</a>
</g>
</g>
<!-- Node2 -->
<g id="Node000002" class="node">
<title>Node2</title>
<g id="a_Node000002"><a xlink:href="_game_entity_8hpp.html" target="_top" xlink:title=" ">
<polygon fill="white" stroke="#666666" points="140.5,-188 20.25,-188 20.25,-168 140.5,-168 140.5,-188"/>
<text text-anchor="middle" x="80.38" y="-174.5" font-family="Helvetica,sans-Serif" font-size="10.00">include/GameEntity.hpp</text>
</a>
</g>
</g>
<!-- Node1&#45;&gt;Node2 -->
<g id="edge1_Node000001_Node000002" class="edge">
<title>Node1&#45;&gt;Node2</title>
<g id="a_edge1_Node000001_Node000002"><a xlink:title=" ">
<path fill="none" stroke="#63b8ff" d="M80.38,-212.13C80.38,-203.9 80.38,-194.85 80.38,-188.3"/>
<polygon fill="#63b8ff" stroke="#63b8ff" points="76.88,-212.08 80.38,-222.08 83.88,-212.08 76.88,-212.08"/>
</a>
</g>
</g>
<!-- Node3 -->
<g id="Node000003" class="node">
<title>Node3</title>
<g id="a_Node000003"><a xlink:href="_scene_8hpp.html" target="_top" xlink:title=" ">
<polygon fill="white" stroke="#666666" points="128.5,-132 32.25,-132 32.25,-112 128.5,-112 128.5,-132"/>
<text text-anchor="middle" x="80.38" y="-118.5" font-family="Helvetica,sans-Serif" font-size="10.00">include/Scene.hpp</text>
</a>
</g>
</g>
<!-- Node2&#45;&gt;Node3 -->
<g id="edge2_Node000002_Node000003" class="edge">
<title>Node2&#45;&gt;Node3</title>
<g id="a_edge2_Node000002_Node000003"><a xlink:title=" ">
<path fill="none" stroke="#63b8ff" d="M80.38,-156.13C80.38,-147.9 80.38,-138.85 80.38,-132.3"/>
<polygon fill="#63b8ff" stroke="#63b8ff" points="76.88,-156.08 80.38,-166.08 83.88,-156.08 76.88,-156.08"/>
</a>
</g>
</g>
<!-- Node4 -->
<g id="Node000004" class="node">
<title>Node4</title>
<g id="a_Node000004"><a xlink:href="_application_8hpp.html" target="_top" xlink:title=" ">
<polygon fill="white" stroke="#666666" points="138.62,-20 22.12,-20 22.12,0 138.62,0 138.62,-20"/>
<text text-anchor="middle" x="80.38" y="-6.5" font-family="Helvetica,sans-Serif" font-size="10.00">include/Application.hpp</text>
</a>
</g>
</g>
<!-- Node3&#45;&gt;Node4 -->
<g id="edge3_Node000003_Node000004" class="edge">
<title>Node3&#45;&gt;Node4</title>
<g id="a_edge3_Node000003_Node000004"><a xlink:title=" ">
<path fill="none" stroke="#63b8ff" d="M67.49,-101.84C63.04,-94.15 58.62,-84.99 56.38,-76 51.3,-55.69 64.21,-32.96 73,-20.48"/>
<polygon fill="#63b8ff" stroke="#63b8ff" points="64.49,-103.65 72.75,-110.28 70.43,-99.94 64.49,-103.65"/>
</a>
</g>
</g>
<!-- Node5 -->
<g id="Node000005" class="node">
<title>Node5</title>
<g id="a_Node000005"><a xlink:href="_gui_handler_8hpp.html" target="_top" xlink:title=" ">
<polygon fill="white" stroke="#666666" points="181.62,-76 65.12,-76 65.12,-56 181.62,-56 181.62,-76"/>
<text text-anchor="middle" x="123.38" y="-62.5" font-family="Helvetica,sans-Serif" font-size="10.00">include/GuiHandler.hpp</text>
</a>
</g>
</g>
<!-- Node3&#45;&gt;Node5 -->
<g id="edge4_Node000003_Node000005" class="edge">
<title>Node3&#45;&gt;Node5</title>
<g id="a_edge4_Node000003_Node000005"><a xlink:title=" ">
<path fill="none" stroke="#63b8ff" d="M94.93,-102.72C102,-93.84 110.2,-83.55 115.97,-76.3"/>
<polygon fill="#63b8ff" stroke="#63b8ff" points="92.3,-100.41 88.81,-110.41 97.78,-104.77 92.3,-100.41"/>
</a>
</g>
</g>
<!-- Node5&#45;&gt;Node4 -->
<g id="edge5_Node000005_Node000004" class="edge">
<title>Node5&#45;&gt;Node4</title>
<g id="a_edge5_Node000005_Node000004"><a xlink:title=" ">
<path fill="none" stroke="#63b8ff" d="M108.82,-46.72C101.75,-37.84 93.55,-27.55 87.78,-20.3"/>
<polygon fill="#63b8ff" stroke="#63b8ff" points="105.97,-48.77 114.94,-54.41 111.45,-44.41 105.97,-48.77"/>
</a>
</g>
</g>
</g>
</svg>
