<?xml version="1.0" encoding="UTF-8" standalone="no"?>
<!DOCTYPE svg PUBLIC "-//W3C//DTD SVG 1.1//EN"
 "http://www.w3.org/Graphics/SVG/1.1/DTD/svg11.dtd">
<!-- Generated by graphviz version 10.0.1 (20240210.2158)
 -->
<!-- Title: include/TransformComponent.hpp Pages: 1 -->
<svg width="287pt" height="140pt"
 viewBox="0.00 0.00 287.00 140.00" xmlns="http://www.w3.org/2000/svg" xmlns:xlink="http://www.w3.org/1999/xlink">
<g id="graph0" class="graph" transform="scale(1 1) rotate(0) translate(4 136)">
<title>include/TransformComponent.hpp</title>
<!-- Node1 -->
<g id="Node000001" class="node">
<title>Node1</title>
<g id="a_Node000001"><a xlink:title=" ">
<polygon fill="#999999" stroke="#666666" points="256.38,-132 95.62,-132 95.62,-112 256.38,-112 256.38,-132"/>
<text text-anchor="middle" x="176" y="-118.5" font-family="Helvetica,sans-Serif" font-size="10.00">include/TransformComponent.hpp</text>
</a>
</g>
</g>
<!-- Node2 -->
<g id="Node000002" class="node">
<title>Node2</title>
<g id="a_Node000002"><a xlink:title=" ">
<polygon fill="#e0e0e0" stroke="#999999" points="70,-20 0,-20 0,0 70,0 70,-20"/>
<text text-anchor="middle" x="35" y="-6.5" font-family="Helvetica,sans-Serif" font-size="10.00">SDL3/SDL.h</text>
</a>
</g>
</g>
<!-- Node1&#45;&gt;Node2 -->
<g id="edge1_Node000001_Node000002" class="edge">
<title>Node1&#45;&gt;Node2</title>
<g id="a_edge1_Node000001_Node000002"><a xlink:title=" ">
<path fill="none" stroke="#63b8ff" d="M152.27,-111.57C134.13,-103.68 109.07,-91.27 90,-76 73.29,-62.61 57.88,-43.57 47.65,-29.55"/>
<polygon fill="#63b8ff" stroke="#63b8ff" points="50.68,-27.77 42.05,-21.62 44.96,-31.81 50.68,-27.77"/>
</a>
</g>
</g>
<!-- Node3 -->
<g id="Node000003" class="node">
<title>Node3</title>
<g id="a_Node000003"><a xlink:title=" ">
<polygon fill="#e0e0e0" stroke="#999999" points="262.62,-20 211.38,-20 211.38,0 262.62,0 262.62,-20"/>
<text text-anchor="middle" x="237" y="-6.5" font-family="Helvetica,sans-Serif" font-size="10.00">memory</text>
</a>
</g>
</g>
<!-- Node1&#45;&gt;Node3 -->
<g id="edge2_Node000001_Node000003" class="edge">
<title>Node1&#45;&gt;Node3</title>
<g id="a_edge2_Node000001_Node000003"><a xlink:title=" ">
<path fill="none" stroke="#63b8ff" d="M181.2,-111.62C191.15,-93.68 213.06,-54.17 226.27,-30.35"/>
<polygon fill="#63b8ff" stroke="#63b8ff" points="229.29,-32.12 231.08,-21.68 223.17,-28.73 229.29,-32.12"/>
</a>
</g>
</g>
<!-- Node4 -->
<g id="Node000004" class="node">
<title>Node4</title>
<g id="a_Node000004"><a xlink:title=" ">
<polygon fill="#e0e0e0" stroke="#999999" points="279,-76 239,-76 239,-56 279,-56 279,-76"/>
<text text-anchor="middle" x="259" y="-62.5" font-family="Helvetica,sans-Serif" font-size="10.00">string</text>
</a>
</g>
</g>
<!-- Node1&#45;&gt;Node4 -->
<g id="edge3_Node000001_Node000004" class="edge">
<title>Node1&#45;&gt;Node4</title>
<g id="a_edge3_Node000001_Node000004"><a xlink:title=" ">
<path fill="none" stroke="#63b8ff" d="M190.46,-111.59C202.76,-103.59 220.68,-91.93 235.11,-82.54"/>
<polygon fill="#63b8ff" stroke="#63b8ff" points="236.69,-85.69 243.16,-77.3 232.87,-79.82 236.69,-85.69"/>
</a>
</g>
</g>
<!-- Node5 -->
<g id="Node000005" class="node">
<title>Node5</title>
<g id="a_Node000005"><a xlink:href="_component_8hpp.html" target="_top" xlink:title=" ">
<polygon fill="white" stroke="#666666" points="183.12,-76 98.88,-76 98.88,-56 183.12,-56 183.12,-76"/>
<text text-anchor="middle" x="141" y="-62.5" font-family="Helvetica,sans-Serif" font-size="10.00">Component.hpp</text>
</a>
</g>
</g>
<!-- Node1&#45;&gt;Node5 -->
<g id="edge4_Node000001_Node000005" class="edge">
<title>Node1&#45;&gt;Node5</title>
<g id="a_edge4_Node000001_Node000005"><a xlink:title=" ">
<path fill="none" stroke="#63b8ff" d="M169.9,-111.59C165.29,-104.47 158.79,-94.45 153.13,-85.72"/>
<polygon fill="#63b8ff" stroke="#63b8ff" points="156.23,-84.06 147.85,-77.57 150.35,-87.86 156.23,-84.06"/>
</a>
</g>
</g>
<!-- Node5&#45;&gt;Node2 -->
<g id="edge5_Node000005_Node000002" class="edge">
<title>Node5&#45;&gt;Node2</title>
<g id="a_edge5_Node000005_Node000002"><a xlink:title=" ">
<path fill="none" stroke="#63b8ff" d="M122.54,-55.59C106.3,-47.32 82.39,-35.14 63.67,-25.6"/>
<polygon fill="#63b8ff" stroke="#63b8ff" points="65.46,-22.59 54.96,-21.17 62.28,-28.82 65.46,-22.59"/>
</a>
</g>
</g>
<!-- Node5&#45;&gt;Node3 -->
<g id="edge6_Node000005_Node000003" class="edge">
<title>Node5&#45;&gt;Node3</title>
<g id="a_edge6_Node000005_Node000003"><a xlink:title=" ">
<path fill="none" stroke="#63b8ff" d="M157.72,-55.59C172.22,-47.44 193.47,-35.48 210.32,-26"/>
<polygon fill="#63b8ff" stroke="#63b8ff" points="211.83,-29.17 218.83,-21.22 208.4,-23.07 211.83,-29.17"/>
</a>
</g>
</g>
<!-- Node6 -->
<g id="Node000006" class="node">
<title>Node6</title>
<g id="a_Node000006"><a xlink:href="_component_type_8hpp.html" target="_top" xlink:title=" ">
<polygon fill="white" stroke="#666666" points="193.62,-20 88.38,-20 88.38,0 193.62,0 193.62,-20"/>
<text text-anchor="middle" x="141" y="-6.5" font-family="Helvetica,sans-Serif" font-size="10.00">ComponentType.hpp</text>
</a>
</g>
</g>
<!-- Node5&#45;&gt;Node6 -->
<g id="edge7_Node000005_Node000006" class="edge">
<title>Node5&#45;&gt;Node6</title>
<g id="a_edge7_Node000005_Node000006"><a xlink:title=" ">
<path fill="none" stroke="#63b8ff" d="M141,-55.59C141,-49.01 141,-39.96 141,-31.73"/>
<polygon fill="#63b8ff" stroke="#63b8ff" points="144.5,-31.81 141,-21.81 137.5,-31.81 144.5,-31.81"/>
</a>
</g>
</g>
</g>
</svg>
