<?xml version="1.0" encoding="UTF-8" standalone="no"?>
<!DOCTYPE svg PUBLIC "-//W3C//DTD SVG 1.1//EN"
 "http://www.w3.org/Graphics/SVG/1.1/DTD/svg11.dtd">
<!-- Generated by graphviz version 10.0.1 (20240210.2158)
 -->
<!-- Title: GuiHandler Pages: 1 -->
<svg width="314pt" height="816pt"
 viewBox="0.00 0.00 314.00 816.00" xmlns="http://www.w3.org/2000/svg" xmlns:xlink="http://www.w3.org/1999/xlink">
<g id="graph0" class="graph" transform="scale(1 1) rotate(0) translate(4 812)">
<title>GuiHandler</title>
<!-- Node1 -->
<g id="Node000001" class="node">
<title>Node1</title>
<g id="a_Node000001"><a xlink:title=" ">
<polygon fill="#999999" stroke="none" points="176.5,-196 44.5,-196 44.5,0 176.5,0 176.5,-196"/>
<text text-anchor="start" x="86.5" y="-182.5" font-family="Helvetica,sans-Serif" font-size="10.00">GuiHandler</text>
<text text-anchor="start" x="109" y="-166.5" font-family="Helvetica,sans-Serif" font-size="10.00"> </text>
<text text-anchor="start" x="48.5" y="-150.5" font-family="Helvetica,sans-Serif" font-size="10.00">+</text>
<text text-anchor="start" x="58.5" y="-150.5" font-family="Helvetica,sans-Serif" font-size="10.00">GuiHandler()</text>
<text text-anchor="start" x="48.5" y="-134.5" font-family="Helvetica,sans-Serif" font-size="10.00">+</text>
<text text-anchor="start" x="58.5" y="-134.5" font-family="Helvetica,sans-Serif" font-size="10.00">~GuiHandler()</text>
<text text-anchor="start" x="48.5" y="-118.5" font-family="Helvetica,sans-Serif" font-size="10.00">+</text>
<text text-anchor="start" x="58.5" y="-118.5" font-family="Helvetica,sans-Serif" font-size="10.00">StartUp()</text>
<text text-anchor="start" x="48.5" y="-102.5" font-family="Helvetica,sans-Serif" font-size="10.00">+</text>
<text text-anchor="start" x="58.5" y="-102.5" font-family="Helvetica,sans-Serif" font-size="10.00">Shutdown()</text>
<text text-anchor="start" x="48.5" y="-86.5" font-family="Helvetica,sans-Serif" font-size="10.00">+</text>
<text text-anchor="start" x="58.5" y="-86.5" font-family="Helvetica,sans-Serif" font-size="10.00">Input()</text>
<text text-anchor="start" x="48.5" y="-70.5" font-family="Helvetica,sans-Serif" font-size="10.00">+</text>
<text text-anchor="start" x="58.5" y="-70.5" font-family="Helvetica,sans-Serif" font-size="10.00">Update()</text>
<text text-anchor="start" x="48.5" y="-54.5" font-family="Helvetica,sans-Serif" font-size="10.00">+</text>
<text text-anchor="start" x="58.5" y="-54.5" font-family="Helvetica,sans-Serif" font-size="10.00">Render()</text>
<text text-anchor="start" x="48.5" y="-38.5" font-family="Helvetica,sans-Serif" font-size="10.00">+</text>
<text text-anchor="start" x="58.5" y="-38.5" font-family="Helvetica,sans-Serif" font-size="10.00">Process()</text>
<text text-anchor="start" x="48.5" y="-22.5" font-family="Helvetica,sans-Serif" font-size="10.00">+</text>
<text text-anchor="start" x="58.5" y="-22.5" font-family="Helvetica,sans-Serif" font-size="10.00">GetSelectedObjectName()</text>
<text text-anchor="start" x="48.5" y="-6.5" font-family="Helvetica,sans-Serif" font-size="10.00">+</text>
<text text-anchor="start" x="58.5" y="-6.5" font-family="Helvetica,sans-Serif" font-size="10.00">SetFirstTime()</text>
<polygon fill="#666666" stroke="#666666" points="44.5,-178 44.5,-178 176.5,-178 176.5,-178 44.5,-178"/>
<polygon fill="#666666" stroke="#666666" points="44.5,-162 44.5,-162 176.5,-162 176.5,-162 44.5,-162"/>
<polygon fill="none" stroke="#666666" points="44.5,0 44.5,-196 176.5,-196 176.5,0 44.5,0"/>
</a>
</g>
</g>
<!-- Node2 -->
<g id="Node000002" class="node">
<title>Node2</title>
<g id="a_Node000002"><a xlink:href="class_scene.html" target="_top" xlink:title=" ">
<polygon fill="white" stroke="none" points="171,-648 50,-648 50,-244 171,-244 171,-648"/>
<text text-anchor="start" x="96.62" y="-634.5" font-family="Helvetica,sans-Serif" font-size="10.00">Scene</text>
<text text-anchor="start" x="109" y="-618.5" font-family="Helvetica,sans-Serif" font-size="10.00"> </text>
<text text-anchor="start" x="54" y="-602.5" font-family="Helvetica,sans-Serif" font-size="10.00">+</text>
<text text-anchor="start" x="64" y="-602.5" font-family="Helvetica,sans-Serif" font-size="10.00">Scene()</text>
<text text-anchor="start" x="54" y="-586.5" font-family="Helvetica,sans-Serif" font-size="10.00">+</text>
<text text-anchor="start" x="64" y="-586.5" font-family="Helvetica,sans-Serif" font-size="10.00">~Scene()</text>
<text text-anchor="start" x="54" y="-570.5" font-family="Helvetica,sans-Serif" font-size="10.00">+</text>
<text text-anchor="start" x="64" y="-570.5" font-family="Helvetica,sans-Serif" font-size="10.00">StartUp()</text>
<text text-anchor="start" x="54" y="-554.5" font-family="Helvetica,sans-Serif" font-size="10.00">+</text>
<text text-anchor="start" x="64" y="-554.5" font-family="Helvetica,sans-Serif" font-size="10.00">Input()</text>
<text text-anchor="start" x="54" y="-538.5" font-family="Helvetica,sans-Serif" font-size="10.00">+</text>
<text text-anchor="start" x="64" y="-538.5" font-family="Helvetica,sans-Serif" font-size="10.00">Update()</text>
<text text-anchor="start" x="54" y="-522.5" font-family="Helvetica,sans-Serif" font-size="10.00">+</text>
<text text-anchor="start" x="64" y="-522.5" font-family="Helvetica,sans-Serif" font-size="10.00">Render()</text>
<text text-anchor="start" x="54" y="-506.5" font-family="Helvetica,sans-Serif" font-size="10.00">+</text>
<text text-anchor="start" x="64" y="-506.5" font-family="Helvetica,sans-Serif" font-size="10.00">SetSceneActiveStatus()</text>
<text text-anchor="start" x="54" y="-490.5" font-family="Helvetica,sans-Serif" font-size="10.00">+</text>
<text text-anchor="start" x="64" y="-490.5" font-family="Helvetica,sans-Serif" font-size="10.00">IsSceneActive()</text>
<text text-anchor="start" x="54" y="-474.5" font-family="Helvetica,sans-Serif" font-size="10.00">+</text>
<text text-anchor="start" x="64" y="-474.5" font-family="Helvetica,sans-Serif" font-size="10.00">SaveScene()</text>
<text text-anchor="start" x="54" y="-458.5" font-family="Helvetica,sans-Serif" font-size="10.00">+</text>
<text text-anchor="start" x="64" y="-458.5" font-family="Helvetica,sans-Serif" font-size="10.00">LoadScene()</text>
<text text-anchor="start" x="54" y="-442.5" font-family="Helvetica,sans-Serif" font-size="10.00">+</text>
<text text-anchor="start" x="64" y="-442.5" font-family="Helvetica,sans-Serif" font-size="10.00">SetRenderer()</text>
<text text-anchor="start" x="54" y="-426.5" font-family="Helvetica,sans-Serif" font-size="10.00">+</text>
<text text-anchor="start" x="64" y="-426.5" font-family="Helvetica,sans-Serif" font-size="10.00">GetName()</text>
<text text-anchor="start" x="54" y="-410.5" font-family="Helvetica,sans-Serif" font-size="10.00">+</text>
<text text-anchor="start" x="64" y="-410.5" font-family="Helvetica,sans-Serif" font-size="10.00">SetName()</text>
<text text-anchor="start" x="54" y="-394.5" font-family="Helvetica,sans-Serif" font-size="10.00">+</text>
<text text-anchor="start" x="64" y="-394.5" font-family="Helvetica,sans-Serif" font-size="10.00">GetDesc()</text>
<text text-anchor="start" x="54" y="-378.5" font-family="Helvetica,sans-Serif" font-size="10.00">+</text>
<text text-anchor="start" x="64" y="-378.5" font-family="Helvetica,sans-Serif" font-size="10.00">SetDesc()</text>
<text text-anchor="start" x="54" y="-362.5" font-family="Helvetica,sans-Serif" font-size="10.00">+</text>
<text text-anchor="start" x="64" y="-362.5" font-family="Helvetica,sans-Serif" font-size="10.00">CreatePaddle()</text>
<text text-anchor="start" x="54" y="-346.5" font-family="Helvetica,sans-Serif" font-size="10.00">+</text>
<text text-anchor="start" x="64" y="-346.5" font-family="Helvetica,sans-Serif" font-size="10.00">CreateBall()</text>
<text text-anchor="start" x="54" y="-330.5" font-family="Helvetica,sans-Serif" font-size="10.00">+</text>
<text text-anchor="start" x="64" y="-330.5" font-family="Helvetica,sans-Serif" font-size="10.00">CreateDeath()</text>
<text text-anchor="start" x="54" y="-314.5" font-family="Helvetica,sans-Serif" font-size="10.00">+</text>
<text text-anchor="start" x="64" y="-314.5" font-family="Helvetica,sans-Serif" font-size="10.00">CreateBlock()</text>
<text text-anchor="start" x="54" y="-298.5" font-family="Helvetica,sans-Serif" font-size="10.00">+</text>
<text text-anchor="start" x="64" y="-298.5" font-family="Helvetica,sans-Serif" font-size="10.00">SetStatus()</text>
<text text-anchor="start" x="54" y="-282.5" font-family="Helvetica,sans-Serif" font-size="10.00">+</text>
<text text-anchor="start" x="64" y="-282.5" font-family="Helvetica,sans-Serif" font-size="10.00">GetStatus()</text>
<text text-anchor="start" x="54" y="-266.5" font-family="Helvetica,sans-Serif" font-size="10.00">+</text>
<text text-anchor="start" x="64" y="-266.5" font-family="Helvetica,sans-Serif" font-size="10.00">SetMode()</text>
<text text-anchor="start" x="54" y="-250.5" font-family="Helvetica,sans-Serif" font-size="10.00">+</text>
<text text-anchor="start" x="64" y="-250.5" font-family="Helvetica,sans-Serif" font-size="10.00">GetMode()</text>
<polygon fill="#666666" stroke="#666666" points="50,-630 50,-630 171,-630 171,-630 50,-630"/>
<polygon fill="#666666" stroke="#666666" points="50,-614 50,-614 171,-614 171,-614 50,-614"/>
<polygon fill="none" stroke="#666666" points="50,-244 50,-648 171,-648 171,-244 50,-244"/>
</a>
</g>
</g>
<!-- Node2&#45;&gt;Node1 -->
<g id="edge1_Node000001_Node000002" class="edge">
<title>Node2&#45;&gt;Node1</title>
<g id="a_edge1_Node000001_Node000002"><a xlink:title=" ">
<path fill="none" stroke="#63b8ff" d="M110.5,-244.23C110.5,-232.1 110.5,-220.16 110.5,-208.65"/>
<polygon fill="none" stroke="#63b8ff" points="110.5,-208.76 106.5,-202.76 110.5,-196.76 114.5,-202.76 110.5,-208.76"/>
</a>
</g>
<text text-anchor="middle" x="130.38" y="-216.5" font-family="Helvetica,sans-Serif" font-size="10.00" fill="grey"> +rScene</text>
</g>
<!-- Node3 -->
<g id="Node000003" class="node">
<title>Node3</title>
<g id="a_Node000003"><a xlink:title=" ">
<polygon fill="white" stroke="none" points="35,-802 0,-802 0,-750 35,-750 35,-802"/>
<text text-anchor="start" x="4.75" y="-788.5" font-family="Helvetica,sans-Serif" font-size="10.00">char *</text>
<text text-anchor="start" x="16" y="-772.5" font-family="Helvetica,sans-Serif" font-size="10.00"> </text>
<text text-anchor="start" x="16" y="-756.5" font-family="Helvetica,sans-Serif" font-size="10.00"> </text>
<polygon fill="#666666" stroke="#666666" points="0,-784 0,-784 35,-784 35,-784 0,-784"/>
<polygon fill="#666666" stroke="#666666" points="0,-768 0,-768 35,-768 35,-768 0,-768"/>
<polygon fill="none" stroke="#666666" points="0,-750 0,-802 35,-802 35,-750 0,-750"/>
</a>
</g>
</g>
<!-- Node3&#45;&gt;Node2 -->
<g id="edge2_Node000002_Node000003" class="edge">
<title>Node3&#45;&gt;Node2</title>
<g id="a_edge2_Node000002_Node000003"><a xlink:title=" ">
<path fill="none" stroke="#63b8ff" d="M20.81,-750.1C24.02,-727.86 29.48,-694.49 36.75,-666 39.69,-654.46 42.95,-642.65 46.4,-630.79"/>
<polygon fill="none" stroke="#63b8ff" points="46.4,-630.79 44.27,-623.9 49.81,-619.29 51.94,-626.17 46.4,-630.79"/>
</a>
</g>
<text text-anchor="middle" x="72.38" y="-716.5" font-family="Helvetica,sans-Serif" font-size="10.00" fill="grey"> +currentfilepath</text>
<text text-anchor="middle" x="72.38" y="-704.5" font-family="Helvetica,sans-Serif" font-size="10.00" fill="grey">+description</text>
<text text-anchor="middle" x="72.38" y="-692.5" font-family="Helvetica,sans-Serif" font-size="10.00" fill="grey">+loadfilepath</text>
<text text-anchor="middle" x="72.38" y="-680.5" font-family="Helvetica,sans-Serif" font-size="10.00" fill="grey">+name</text>
<text text-anchor="middle" x="72.38" y="-668.5" font-family="Helvetica,sans-Serif" font-size="10.00" fill="grey">+savefilepath</text>
</g>
<!-- Node4 -->
<g id="Node000004" class="node">
<title>Node4</title>
<g id="a_Node000004"><a xlink:title=" ">
<polygon fill="white" stroke="none" points="163,-808 58,-808 58,-744 163,-744 163,-808"/>
<text text-anchor="start" x="62.88" y="-794.5" font-family="Helvetica,sans-Serif" font-size="10.00">vector&lt; std::shared</text>
<text text-anchor="start" x="62.88" y="-782.5" font-family="Helvetica,sans-Serif" font-size="10.00">_ptr&lt; GameEntity &gt; &gt;</text>
<text text-anchor="start" x="109" y="-766.5" font-family="Helvetica,sans-Serif" font-size="10.00"> </text>
<text text-anchor="start" x="109" y="-750.5" font-family="Helvetica,sans-Serif" font-size="10.00"> </text>
<polygon fill="#666666" stroke="#666666" points="58,-778 58,-778 163,-778 163,-778 58,-778"/>
<polygon fill="#666666" stroke="#666666" points="58,-762 58,-762 163,-762 163,-762 58,-762"/>
<polygon fill="none" stroke="#666666" points="58,-744 58,-808 163,-808 163,-744 58,-744"/>
</a>
</g>
</g>
<!-- Node4&#45;&gt;Node2 -->
<g id="edge3_Node000002_Node000004" class="edge">
<title>Node4&#45;&gt;Node2</title>
<g id="a_edge3_Node000002_Node000004"><a xlink:title=" ">
<path fill="none" stroke="#63b8ff" d="M110.5,-744.14C110.5,-723.14 110.5,-693.29 110.5,-660.53"/>
<polygon fill="none" stroke="#63b8ff" points="110.5,-660.74 106.5,-654.74 110.5,-648.74 114.5,-654.74 110.5,-660.74"/>
</a>
</g>
<text text-anchor="middle" x="130.75" y="-692.5" font-family="Helvetica,sans-Serif" font-size="10.00" fill="grey"> +entities</text>
</g>
<!-- Node5 -->
<g id="Node000005" class="node">
<title>Node5</title>
<g id="a_Node000005"><a xlink:title=" ">
<polygon fill="white" stroke="none" points="306,-802 181,-802 181,-750 306,-750 306,-802"/>
<text text-anchor="start" x="185.75" y="-788.5" font-family="Helvetica,sans-Serif" font-size="10.00">shared_ptr&lt; GameEntity &gt;</text>
<text text-anchor="start" x="242" y="-772.5" font-family="Helvetica,sans-Serif" font-size="10.00"> </text>
<text text-anchor="start" x="242" y="-756.5" font-family="Helvetica,sans-Serif" font-size="10.00"> </text>
<polygon fill="#666666" stroke="#666666" points="181,-784 181,-784 306,-784 306,-784 181,-784"/>
<polygon fill="#666666" stroke="#666666" points="181,-768 181,-768 306,-768 306,-768 181,-768"/>
<polygon fill="none" stroke="#666666" points="181,-750 181,-802 306,-802 306,-750 181,-750"/>
</a>
</g>
</g>
<!-- Node5&#45;&gt;Node2 -->
<g id="edge4_Node000002_Node000005" class="edge">
<title>Node5&#45;&gt;Node2</title>
<g id="a_edge4_Node000002_Node000005"><a xlink:title=" ">
<path fill="none" stroke="#63b8ff" d="M233.39,-750.08C220.77,-718.95 198.1,-663.03 175.63,-607.62"/>
<polygon fill="none" stroke="#63b8ff" points="175.69,-607.77 169.73,-603.71 171.18,-596.65 177.14,-600.7 175.69,-607.77"/>
</a>
</g>
<text text-anchor="middle" x="238.5" y="-692.5" font-family="Helvetica,sans-Serif" font-size="10.00" fill="grey"> +cursor</text>
</g>
</g>
</svg>
