<?xml version="1.0" encoding="UTF-8" standalone="no"?>
<!DOCTYPE svg PUBLIC "-//W3C//DTD SVG 1.1//EN"
 "http://www.w3.org/Graphics/SVG/1.1/DTD/svg11.dtd">
<!-- Generated by graphviz version 10.0.1 (20240210.2158)
 -->
<!-- Title: Graphical Class Hierarchy Pages: 1 -->
<svg width="218pt" height="104pt"
 viewBox="0.00 0.00 217.75 104.00" xmlns="http://www.w3.org/2000/svg" xmlns:xlink="http://www.w3.org/1999/xlink">
<g id="graph0" class="graph" transform="scale(1 1) rotate(0) translate(4 100)">
<title>Graphical Class Hierarchy</title>
<!-- Node0 -->
<g id="Node000000" class="node">
<title>Node0</title>
<g id="a_Node000000"><a xlink:href="struct_component.html" target="_top" xlink:title=" ">
<polygon fill="white" stroke="#666666" points="65.5,-58 0,-58 0,-38 65.5,-38 65.5,-58"/>
<text text-anchor="middle" x="32.75" y="-44.5" font-family="Helvetica,sans-Serif" font-size="10.00">Component</text>
</a>
</g>
</g>
<!-- Node1 -->
<g id="Node000001" class="node">
<title>Node1</title>
<g id="a_Node000001"><a xlink:href="struct_input_component.html" target="_top" xlink:title=" ">
<polygon fill="white" stroke="#666666" points="198.88,-96 112.38,-96 112.38,-76 198.88,-76 198.88,-96"/>
<text text-anchor="middle" x="155.62" y="-82.5" font-family="Helvetica,sans-Serif" font-size="10.00">InputComponent</text>
</a>
</g>
</g>
<!-- Node0&#45;&gt;Node1 -->
<g id="edge1_Node000000_Node000001" class="edge">
<title>Node0&#45;&gt;Node1</title>
<g id="a_edge1_Node000000_Node000001"><a xlink:title=" ">
<path fill="none" stroke="#63b8ff" d="M76.74,-61.51C91.47,-66.15 107.73,-71.26 121.56,-75.6"/>
<polygon fill="#63b8ff" stroke="#63b8ff" points="77.86,-58.2 67.27,-58.54 75.76,-64.88 77.86,-58.2"/>
</a>
</g>
</g>
<!-- Node2 -->
<g id="Node000002" class="node">
<title>Node2</title>
<g id="a_Node000002"><a xlink:href="struct_texture_component.html" target="_top" xlink:title=" ">
<polygon fill="white" stroke="#666666" points="204.5,-58 106.75,-58 106.75,-38 204.5,-38 204.5,-58"/>
<text text-anchor="middle" x="155.62" y="-44.5" font-family="Helvetica,sans-Serif" font-size="10.00">TextureComponent</text>
</a>
</g>
</g>
<!-- Node0&#45;&gt;Node2 -->
<g id="edge2_Node000000_Node000002" class="edge">
<title>Node0&#45;&gt;Node2</title>
<g id="a_edge2_Node000000_Node000002"><a xlink:title=" ">
<path fill="none" stroke="#63b8ff" d="M77.07,-48C86.6,-48 96.75,-48 106.45,-48"/>
<polygon fill="#63b8ff" stroke="#63b8ff" points="77.34,-44.5 67.34,-48 77.34,-51.5 77.34,-44.5"/>
</a>
</g>
</g>
<!-- Node3 -->
<g id="Node000003" class="node">
<title>Node3</title>
<g id="a_Node000003"><a xlink:href="struct_transform_component.html" target="_top" xlink:title=" ">
<polygon fill="white" stroke="#666666" points="209.75,-20 101.5,-20 101.5,0 209.75,0 209.75,-20"/>
<text text-anchor="middle" x="155.62" y="-6.5" font-family="Helvetica,sans-Serif" font-size="10.00">TransformComponent</text>
</a>
</g>
</g>
<!-- Node0&#45;&gt;Node3 -->
<g id="edge3_Node000000_Node000003" class="edge">
<title>Node0&#45;&gt;Node3</title>
<g id="a_edge3_Node000000_Node000003"><a xlink:title=" ">
<path fill="none" stroke="#63b8ff" d="M76.74,-34.49C91.47,-29.85 107.73,-24.74 121.56,-20.4"/>
<polygon fill="#63b8ff" stroke="#63b8ff" points="75.76,-31.12 67.27,-37.46 77.86,-37.8 75.76,-31.12"/>
</a>
</g>
</g>
</g>
</svg>
